<svg width="61" height="34" viewBox="0 0 61 34" fill="none" xmlns="http://www.w3.org/2000/svg">
<rect y="14.9388" width="61" height="16.9892" rx="8.4946" fill="#575757"/>
<ellipse cx="51.6153" cy="23.4333" rx="3.31222" ry="3.51501" fill="white"/>
<ellipse cx="36.0204" cy="23.2867" rx="1.79412" ry="1.90396" fill="white"/>
<ellipse cx="27.7398" cy="23.2867" rx="1.79412" ry="1.90396" fill="white"/>
<ellipse cx="19.4592" cy="23.2867" rx="1.79412" ry="1.90396" fill="white"/>
<ellipse cx="11.1786" cy="23.2867" rx="1.79412" ry="1.90396" fill="white"/>
<rect x="6.62439" y="28.4128" width="6.34842" height="4.97959" fill="#575757"/>
<rect x="48.5792" y="28.4128" width="6.34842" height="4.97959" fill="#575757"/>
<rect x="50.5647" y="5.87721" width="1.85199" height="12.2836" fill="#575757"/>
<ellipse cx="51.6065" cy="5.263" rx="2.19924" ry="2.33389" fill="#575757"/>
<path d="M51.5602 5.27251L52.5539 3.86651C52.2779 3.64682 51.9328 3.51501 51.5602 3.51501C51.1876 3.51501 50.8426 3.64682 50.5666 3.86651L51.5602 5.27251ZM51.5602 0C50.4423 0 49.41 0.392509 48.5792 1.0545L49.0761 1.7575C49.7661 1.20682 50.6273 0.878752 51.5602 0.878752C52.4932 0.878752 53.3543 1.20682 54.0444 1.7575L54.5412 1.0545C53.7104 0.392509 52.6781 0 51.5602 0ZM51.5602 1.7575C50.815 1.7575 50.1277 2.0182 49.5729 2.4605L50.0697 3.16351C50.4837 2.83251 50.9999 2.63625 51.5602 2.63625C52.1205 2.63625 52.6367 2.83251 53.0507 3.16351L53.5476 2.4605C52.9928 2.0182 52.3055 1.7575 51.5602 1.7575Z" fill="#575757"/>
</svg>
