<svg width="42" height="29" viewBox="0 0 42 29" fill="none" xmlns="http://www.w3.org/2000/svg">
<g opacity="0.64">
<path d="M36.8094 20.1653C36.7524 20.2523 36.6703 20.3226 36.5724 20.368C36.4746 20.4133 36.365 20.4319 36.2563 20.4215C32.6102 20.4155 28.9639 20.4139 25.3175 20.4166C24.8974 20.4166 24.7742 20.2986 24.7742 19.8975C24.7742 13.4403 24.7742 6.98318 24.7742 0.526198C24.7742 0.124741 24.8971 0.00775359 25.3179 0.0074054C28.9641 0.0074054 32.6103 0.00589643 36.2567 0.00287882C36.3653 -0.00765169 36.4749 0.0108384 36.5728 0.056199C36.6706 0.10156 36.7527 0.171927 36.8094 0.259141V20.1653Z" fill="#173851"/>
<path d="M14.7151 12.3067C14.7151 14.8928 14.7151 17.4789 14.7151 20.065C14.7151 20.4723 14.638 20.5451 14.2067 20.5451H5.5085C5.07684 20.5451 5.00012 20.4727 5.00012 20.065C5.00012 14.8928 5.00012 9.7206 5.00012 4.54842C5.00012 4.14069 5.07461 4.06897 5.5085 4.06897H14.2075C14.6399 4.06897 14.7158 4.14069 14.7158 4.54842C14.7153 7.13451 14.7151 9.7206 14.7151 12.3067Z" fill="#173851"/>
<path d="M22.7823 11.5964H17.1585C16.773 11.5964 16.3876 11.5995 16.0021 11.5964C15.6382 11.5926 15.4434 11.4477 15.4554 11.1998C15.4662 10.9603 15.6505 10.8321 15.9995 10.8321C18.1693 10.8321 20.339 10.8321 22.5085 10.8321H22.7435C22.7514 10.7082 22.6411 10.6751 22.5774 10.6184C22.1782 10.2639 21.7704 9.91782 21.3711 9.56336C21.3254 9.53331 21.2872 9.49429 21.2593 9.44904C21.2314 9.40379 21.2143 9.35338 21.2094 9.30134C21.2044 9.2493 21.2116 9.19687 21.2306 9.14771C21.2495 9.09856 21.2797 9.05385 21.319 9.01671C21.3498 8.97599 21.3899 8.94205 21.4362 8.91728C21.4825 8.89251 21.5341 8.8775 21.5873 8.87329C21.6405 8.86908 21.6941 8.87578 21.7442 8.89291C21.7943 8.91004 21.8399 8.9372 21.8776 8.97248C22.6585 9.63868 23.4309 10.3134 24.1949 10.9965C24.2392 11.0334 24.2734 11.0795 24.2949 11.1312C24.3163 11.1828 24.3244 11.2385 24.3183 11.2936C24.3123 11.3488 24.2924 11.4018 24.2602 11.4483C24.228 11.4948 24.1844 11.5335 24.1331 11.5612C23.3919 12.1284 22.6434 12.688 21.8985 13.2482C21.8595 13.2857 21.8122 13.3147 21.7599 13.3332C21.7076 13.3516 21.6516 13.359 21.5959 13.355C21.5402 13.3509 21.4861 13.3353 21.4375 13.3095C21.389 13.2836 21.3471 13.2481 21.3149 13.2054C21.2746 13.1655 21.2445 13.1175 21.227 13.0651C21.2095 13.0127 21.205 12.9573 21.2139 12.903C21.2227 12.8487 21.2446 12.7971 21.278 12.7519C21.3114 12.7067 21.3553 12.6693 21.4065 12.6424C21.8367 12.3098 22.272 11.9829 22.7823 11.5964Z" fill="#173851"/>
<path d="M35.9952 10.2103C35.9952 13.2492 35.9915 16.2879 36.0019 19.3268C36.0019 19.5928 35.9435 19.6708 35.6429 19.6698C32.4035 19.6582 29.164 19.6582 25.9246 19.6698C25.6493 19.6698 25.5808 19.6001 25.5808 19.346C25.5888 13.2581 25.5888 7.17003 25.5808 1.0819C25.5808 0.830505 25.6426 0.754948 25.9216 0.755992C29.172 0.765277 32.4225 0.765277 35.6731 0.755992C35.936 0.755992 36.0012 0.82214 36.0008 1.06413C35.9914 4.11261 35.9895 7.16132 35.9952 10.2103Z" fill="#FEFEFE"/>
<path d="M14.0584 12.3116C14.0584 14.7646 14.0547 17.2179 14.0644 19.6708C14.0644 19.8961 13.9984 19.9417 13.7683 19.941C11.1612 19.9331 8.55504 19.9331 5.94973 19.941C5.72627 19.941 5.64955 19.9062 5.65178 19.674C5.65997 14.7595 5.65997 9.84494 5.65178 4.93042C5.65178 4.71872 5.7177 4.67275 5.93409 4.6731C8.54908 4.68007 11.1641 4.67938 13.7791 4.67102C14.0312 4.67102 14.064 4.74622 14.0632 4.95235C14.056 7.40543 14.0544 9.85852 14.0584 12.3116Z" fill="#FEFEFE"/>
<path d="M27.1003 10.1807C27.1003 7.62534 27.1048 5.07001 27.094 2.51502C27.094 2.25075 27.1506 2.16684 27.4523 2.16962C29.6785 2.18309 31.9046 2.18379 34.1308 2.17172C34.3896 2.17172 34.4898 2.21036 34.4891 2.48508C34.4796 7.63683 34.4796 12.7885 34.4891 17.94C34.4891 18.1754 34.4358 18.2534 34.1654 18.2534C31.9172 18.2424 29.6689 18.2424 27.4206 18.2534C27.1495 18.2534 27.0962 18.1747 27.097 17.94C27.1033 15.353 27.1003 12.767 27.1003 10.1807Z" fill="#FF7900"/>
<path d="M6.87753 12.3067C6.87753 10.2357 6.88088 8.16329 6.87231 6.09402C6.87231 5.88058 6.9185 5.81339 7.16207 5.81548C8.95895 5.82615 10.7559 5.82615 12.5531 5.81548C12.7616 5.81548 12.8436 5.84646 12.8432 6.06756C12.8355 10.2261 12.8355 14.3845 12.8432 18.543C12.8432 18.7328 12.8004 18.7976 12.5825 18.7965C10.7677 18.7877 8.95286 18.7877 7.13786 18.7965C6.91999 18.7965 6.87492 18.7339 6.87716 18.5434C6.88014 16.4651 6.87753 14.3861 6.87753 12.3067Z" fill="#45C8A4"/>
<path d="M30.7898 7.84576C30.1194 7.84576 29.449 7.84576 28.7786 7.84576C28.6907 7.84962 28.6026 7.84822 28.5149 7.84159C28.2568 7.81025 28.068 7.69604 28.0859 7.42794C28.1019 7.18003 28.2829 7.07627 28.5328 7.06652C28.6315 7.06269 28.7306 7.06652 28.8308 7.06652H32.7901C32.8672 7.06652 32.9443 7.06408 33.021 7.06652C33.3294 7.07871 33.5182 7.22738 33.503 7.46136C33.5025 7.51626 33.4896 7.57044 33.4651 7.62035C33.4406 7.67025 33.4051 7.71475 33.3609 7.75092C33.3168 7.78709 33.2649 7.81411 33.2088 7.83022C33.1526 7.84632 33.0935 7.85115 33.0352 7.84437C32.2858 7.85099 31.5384 7.84541 30.7898 7.84576Z" fill="white" fill-opacity="0.13"/>
<path d="M30.7763 4.84051C30.0504 4.84051 29.3238 4.8426 28.599 4.84051C28.2489 4.84051 28.0776 4.70715 28.0802 4.4575C28.0828 4.20785 28.2571 4.08738 28.6124 4.08703C30.0639 4.08541 31.5153 4.08541 32.9666 4.08703C33.3215 4.08703 33.4966 4.21099 33.5025 4.45472C33.5088 4.70785 33.3241 4.8405 32.9532 4.84155C32.2277 4.8419 31.5018 4.84051 30.7763 4.84051Z" fill="white" fill-opacity="0.13"/>
<path d="M30.7968 12.8691C31.0066 12.8704 31.2112 12.9301 31.3846 13.0404C31.558 13.1508 31.6923 13.3069 31.7706 13.4888C31.8488 13.6708 31.8674 13.8704 31.8239 14.0622C31.7805 14.2541 31.677 14.4295 31.5266 14.5662C31.3762 14.7029 31.1858 14.7947 30.9794 14.83C30.7731 14.8652 30.5602 14.8422 30.3678 14.764C30.1754 14.6858 30.0123 14.5559 29.8992 14.3907C29.786 14.2256 29.728 14.0327 29.7324 13.8367C29.7376 13.5768 29.8523 13.3293 30.0517 13.1481C30.251 12.9669 30.5188 12.8666 30.7968 12.8691Z" fill="white" fill-opacity="0.13"/>
<path d="M9.88639 9.76569C10.4542 9.76569 11.0221 9.76569 11.5899 9.76569C11.6872 9.75653 11.7855 9.76845 11.8771 9.80051C11.94 9.82288 11.9938 9.8632 12.0309 9.91575C12.068 9.9683 12.0865 10.0304 12.0838 10.0933C12.0837 10.1566 12.0606 10.2179 12.0183 10.2673C11.976 10.3167 11.917 10.3511 11.851 10.3649C11.7658 10.386 11.6783 10.3977 11.5903 10.3997C10.4546 10.4018 9.31892 10.4018 8.18324 10.3997C8.14772 10.4007 8.11216 10.3998 8.07673 10.3973C7.819 10.3715 7.69759 10.258 7.71547 10.0554C7.73483 9.83289 7.89721 9.76709 8.10392 9.76639C8.69721 9.7643 9.29198 9.76604 9.88639 9.76569Z" fill="white" fill-opacity="0.13"/>
<path d="M9.90212 7.36139C10.4798 7.36139 11.0567 7.36139 11.6354 7.36139C11.9334 7.36139 12.0932 7.47246 12.0887 7.67023C12.0842 7.85999 11.9304 7.96793 11.6503 7.96827C10.4769 7.96943 9.30349 7.96943 8.13007 7.96827C7.84479 7.96827 7.70997 7.86382 7.71332 7.65909C7.71667 7.45435 7.85 7.36209 8.14199 7.36139C8.72858 7.3607 9.31702 7.36139 9.90212 7.36139Z" fill="white" fill-opacity="0.13"/>
<path d="M10.7117 15.252C10.7113 15.4107 10.6604 15.5656 10.5655 15.6971C10.4706 15.8286 10.3359 15.9307 10.1787 15.9904C10.0216 16.0501 9.84891 16.0648 9.68279 16.0325C9.51667 16.0001 9.3646 15.9223 9.24594 15.8089C9.12729 15.6955 9.04741 15.5517 9.0165 15.3957C8.98559 15.2397 9.00504 15.0787 9.07236 14.9331C9.13968 14.7875 9.25184 14.6639 9.39455 14.5781C9.53725 14.4923 9.70405 14.4481 9.8737 14.4512C10.0979 14.455 10.3115 14.5411 10.4684 14.6909C10.6252 14.8408 10.7126 15.0424 10.7117 15.252Z" fill="white" fill-opacity="0.13"/>
<path d="M2.76855 26.9219C2.76855 26.8223 2.75293 26.7344 2.72168 26.6582C2.69238 26.5801 2.63965 26.5098 2.56348 26.4473C2.48926 26.3848 2.38574 26.3252 2.25293 26.2686C2.12207 26.2119 1.95605 26.1543 1.75488 26.0957C1.54395 26.0332 1.35352 25.9639 1.18359 25.8877C1.01367 25.8096 0.868164 25.7207 0.74707 25.6211C0.625977 25.5215 0.533203 25.4072 0.46875 25.2783C0.404297 25.1494 0.37207 25.002 0.37207 24.8359C0.37207 24.6699 0.40625 24.5166 0.474609 24.376C0.542969 24.2354 0.640625 24.1133 0.767578 24.0098C0.896484 23.9043 1.0498 23.8223 1.22754 23.7637C1.40527 23.7051 1.60352 23.6758 1.82227 23.6758C2.14258 23.6758 2.41406 23.7373 2.63672 23.8604C2.86133 23.9814 3.03223 24.1406 3.14941 24.3379C3.2666 24.5332 3.3252 24.7422 3.3252 24.9648H2.7627C2.7627 24.8047 2.72852 24.6631 2.66016 24.54C2.5918 24.415 2.48828 24.3174 2.34961 24.2471C2.21094 24.1748 2.03516 24.1387 1.82227 24.1387C1.62109 24.1387 1.45508 24.1689 1.32422 24.2295C1.19336 24.29 1.0957 24.3721 1.03125 24.4756C0.96875 24.5791 0.9375 24.6973 0.9375 24.8301C0.9375 24.9199 0.956055 25.002 0.993164 25.0762C1.03223 25.1484 1.0918 25.2158 1.17188 25.2783C1.25391 25.3408 1.35742 25.3984 1.48242 25.4512C1.60938 25.5039 1.76074 25.5547 1.93652 25.6035C2.17871 25.6719 2.3877 25.748 2.56348 25.832C2.73926 25.916 2.88379 26.0107 2.99707 26.1162C3.1123 26.2197 3.19727 26.3379 3.25195 26.4707C3.30859 26.6016 3.33691 26.75 3.33691 26.916C3.33691 27.0898 3.30176 27.2471 3.23145 27.3877C3.16113 27.5283 3.06055 27.6484 2.92969 27.748C2.79883 27.8477 2.6416 27.9248 2.45801 27.9795C2.27637 28.0322 2.07324 28.0586 1.84863 28.0586C1.65137 28.0586 1.45703 28.0312 1.26562 27.9766C1.07617 27.9219 0.90332 27.8398 0.74707 27.7305C0.592773 27.6211 0.46875 27.4863 0.375 27.3262C0.283203 27.1641 0.237305 26.9766 0.237305 26.7637H0.799805C0.799805 26.9102 0.828125 27.0361 0.884766 27.1416C0.941406 27.2451 1.01855 27.3311 1.11621 27.3994C1.21582 27.4678 1.32812 27.5186 1.45312 27.5518C1.58008 27.583 1.71191 27.5986 1.84863 27.5986C2.0459 27.5986 2.21289 27.5713 2.34961 27.5166C2.48633 27.4619 2.58984 27.3838 2.66016 27.2822C2.73242 27.1807 2.76855 27.0605 2.76855 26.9219ZM5.91504 27.2676V24.8301H6.45996V28H5.94141L5.91504 27.2676ZM6.01758 26.5996L6.24316 26.5938C6.24316 26.8047 6.2207 27 6.17578 27.1797C6.13281 27.3574 6.0625 27.5117 5.96484 27.6426C5.86719 27.7734 5.73926 27.876 5.58105 27.9502C5.42285 28.0225 5.23047 28.0586 5.00391 28.0586C4.84961 28.0586 4.70801 28.0361 4.5791 27.9912C4.45215 27.9463 4.34277 27.877 4.25098 27.7832C4.15918 27.6895 4.08789 27.5674 4.03711 27.417C3.98828 27.2666 3.96387 27.0859 3.96387 26.875V24.8301H4.50586V26.8809C4.50586 27.0234 4.52148 27.1416 4.55273 27.2354C4.58594 27.3271 4.62988 27.4004 4.68457 27.4551C4.74121 27.5078 4.80371 27.5449 4.87207 27.5664C4.94238 27.5879 5.01465 27.5986 5.08887 27.5986C5.31934 27.5986 5.50195 27.5547 5.63672 27.4668C5.77148 27.377 5.86816 27.2568 5.92676 27.1064C5.9873 26.9541 6.01758 26.7852 6.01758 26.5996ZM7.82812 25.3281V28H7.28613V24.8301H7.81348L7.82812 25.3281ZM8.81836 24.8125L8.81543 25.3164C8.77051 25.3066 8.72754 25.3008 8.68652 25.2988C8.64746 25.2949 8.60254 25.293 8.55176 25.293C8.42676 25.293 8.31641 25.3125 8.2207 25.3516C8.125 25.3906 8.04395 25.4453 7.97754 25.5156C7.91113 25.5859 7.8584 25.6699 7.81934 25.7676C7.78223 25.8633 7.75781 25.9688 7.74609 26.084L7.59375 26.1719C7.59375 25.9805 7.6123 25.8008 7.64941 25.6328C7.68848 25.4648 7.74805 25.3164 7.82812 25.1875C7.9082 25.0566 8.00977 24.9551 8.13281 24.8828C8.25781 24.8086 8.40625 24.7715 8.57812 24.7715C8.61719 24.7715 8.66211 24.7764 8.71289 24.7861C8.76367 24.7939 8.79883 24.8027 8.81836 24.8125ZM10.5293 27.6133C10.6582 27.6133 10.7773 27.5869 10.8867 27.5342C10.9961 27.4814 11.0859 27.4092 11.1562 27.3174C11.2266 27.2236 11.2666 27.1172 11.2764 26.998H11.792C11.7822 27.1855 11.7188 27.3604 11.6016 27.5225C11.4863 27.6826 11.335 27.8125 11.1475 27.9121C10.96 28.0098 10.7539 28.0586 10.5293 28.0586C10.291 28.0586 10.083 28.0166 9.90527 27.9326C9.72949 27.8486 9.58301 27.7334 9.46582 27.5869C9.35059 27.4404 9.26367 27.2725 9.20508 27.083C9.14844 26.8916 9.12012 26.6895 9.12012 26.4766V26.3535C9.12012 26.1406 9.14844 25.9395 9.20508 25.75C9.26367 25.5586 9.35059 25.3896 9.46582 25.2432C9.58301 25.0967 9.72949 24.9814 9.90527 24.8975C10.083 24.8135 10.291 24.7715 10.5293 24.7715C10.7773 24.7715 10.9941 24.8223 11.1797 24.9238C11.3652 25.0234 11.5107 25.1602 11.6162 25.334C11.7236 25.5059 11.7822 25.7012 11.792 25.9199H11.2764C11.2666 25.7891 11.2295 25.6709 11.165 25.5654C11.1025 25.46 11.0166 25.376 10.9072 25.3135C10.7998 25.249 10.6738 25.2168 10.5293 25.2168C10.3633 25.2168 10.2236 25.25 10.1104 25.3164C9.99902 25.3809 9.91016 25.4688 9.84375 25.5801C9.7793 25.6895 9.73242 25.8115 9.70312 25.9463C9.67578 26.0791 9.66211 26.2148 9.66211 26.3535V26.4766C9.66211 26.6152 9.67578 26.752 9.70312 26.8867C9.73047 27.0215 9.77637 27.1436 9.84082 27.2529C9.90723 27.3623 9.99609 27.4502 10.1074 27.5166C10.2207 27.5811 10.3613 27.6133 10.5293 27.6133ZM12.9902 23.5V28H12.4453V23.5H12.9902ZM15.7295 27.458V25.8262C15.7295 25.7012 15.7041 25.5928 15.6533 25.501C15.6045 25.4072 15.5303 25.335 15.4307 25.2842C15.3311 25.2334 15.208 25.208 15.0615 25.208C14.9248 25.208 14.8047 25.2314 14.7012 25.2783C14.5996 25.3252 14.5195 25.3867 14.4609 25.4629C14.4043 25.5391 14.376 25.6211 14.376 25.709H13.834C13.834 25.5957 13.8633 25.4834 13.9219 25.3721C13.9805 25.2607 14.0645 25.1602 14.1738 25.0703C14.2852 24.9785 14.418 24.9062 14.5723 24.8535C14.7285 24.7988 14.9023 24.7715 15.0938 24.7715C15.3242 24.7715 15.5273 24.8105 15.7031 24.8887C15.8809 24.9668 16.0195 25.085 16.1191 25.2432C16.2207 25.3994 16.2715 25.5957 16.2715 25.832V27.3086C16.2715 27.4141 16.2803 27.5264 16.2979 27.6455C16.3174 27.7646 16.3457 27.8672 16.3828 27.9531V28H15.8174C15.79 27.9375 15.7686 27.8545 15.7529 27.751C15.7373 27.6455 15.7295 27.5479 15.7295 27.458ZM15.8232 26.0781L15.8291 26.459H15.2812C15.127 26.459 14.9893 26.4717 14.8682 26.4971C14.7471 26.5205 14.6455 26.5566 14.5635 26.6055C14.4814 26.6543 14.4189 26.7158 14.376 26.79C14.333 26.8623 14.3115 26.9473 14.3115 27.0449C14.3115 27.1445 14.334 27.2354 14.3789 27.3174C14.4238 27.3994 14.4912 27.4648 14.5811 27.5137C14.6729 27.5605 14.7852 27.584 14.918 27.584C15.084 27.584 15.2305 27.5488 15.3574 27.4785C15.4844 27.4082 15.585 27.3223 15.6592 27.2207C15.7354 27.1191 15.7764 27.0205 15.7822 26.9248L16.0137 27.1855C16 27.2676 15.9629 27.3584 15.9023 27.458C15.8418 27.5576 15.7607 27.6533 15.6592 27.7451C15.5596 27.835 15.4404 27.9102 15.3018 27.9707C15.165 28.0293 15.0107 28.0586 14.8389 28.0586C14.624 28.0586 14.4355 28.0166 14.2734 27.9326C14.1133 27.8486 13.9883 27.7363 13.8984 27.5957C13.8105 27.4531 13.7666 27.2939 13.7666 27.1182C13.7666 26.9482 13.7998 26.7988 13.8662 26.6699C13.9326 26.5391 14.0283 26.4307 14.1533 26.3447C14.2783 26.2568 14.4287 26.1904 14.6045 26.1455C14.7803 26.1006 14.9766 26.0781 15.1934 26.0781H15.8232ZM18.9697 27.1592C18.9697 27.0811 18.9521 27.0088 18.917 26.9424C18.8838 26.874 18.8145 26.8125 18.709 26.7578C18.6055 26.7012 18.4492 26.6523 18.2402 26.6113C18.0645 26.5742 17.9053 26.5303 17.7627 26.4795C17.6221 26.4287 17.502 26.3672 17.4023 26.2949C17.3047 26.2227 17.2295 26.1377 17.1768 26.04C17.124 25.9424 17.0977 25.8281 17.0977 25.6973C17.0977 25.5723 17.125 25.4541 17.1797 25.3428C17.2363 25.2314 17.3154 25.1328 17.417 25.0469C17.5205 24.9609 17.6445 24.8936 17.7891 24.8447C17.9336 24.7959 18.0947 24.7715 18.2725 24.7715C18.5264 24.7715 18.7432 24.8164 18.9229 24.9062C19.1025 24.9961 19.2402 25.1162 19.3359 25.2666C19.4316 25.415 19.4795 25.5801 19.4795 25.7617H18.9375C18.9375 25.6738 18.9111 25.5889 18.8584 25.5068C18.8076 25.4229 18.7324 25.3535 18.6328 25.2988C18.5352 25.2441 18.415 25.2168 18.2725 25.2168C18.1221 25.2168 18 25.2402 17.9062 25.2871C17.8145 25.332 17.7471 25.3896 17.7041 25.46C17.6631 25.5303 17.6426 25.6045 17.6426 25.6826C17.6426 25.7412 17.6523 25.7939 17.6719 25.8408C17.6934 25.8857 17.7305 25.9277 17.7832 25.9668C17.8359 26.0039 17.9102 26.0391 18.0059 26.0723C18.1016 26.1055 18.2236 26.1387 18.3721 26.1719C18.6318 26.2305 18.8457 26.3008 19.0137 26.3828C19.1816 26.4648 19.3066 26.5654 19.3887 26.6846C19.4707 26.8037 19.5117 26.9482 19.5117 27.1182C19.5117 27.2568 19.4824 27.3838 19.4238 27.499C19.3672 27.6143 19.2842 27.7139 19.1748 27.7979C19.0674 27.8799 18.9385 27.9443 18.7881 27.9912C18.6396 28.0361 18.4727 28.0586 18.2871 28.0586C18.0078 28.0586 17.7715 28.0088 17.5781 27.9092C17.3848 27.8096 17.2383 27.6807 17.1387 27.5225C17.0391 27.3643 16.9893 27.1973 16.9893 27.0215H17.5342C17.542 27.1699 17.585 27.2881 17.6631 27.376C17.7412 27.4619 17.8369 27.5234 17.9502 27.5605C18.0635 27.5957 18.1758 27.6133 18.2871 27.6133C18.4355 27.6133 18.5596 27.5938 18.6592 27.5547C18.7607 27.5156 18.8379 27.4619 18.8906 27.3936C18.9434 27.3252 18.9697 27.2471 18.9697 27.1592ZM22.0693 27.1592C22.0693 27.0811 22.0518 27.0088 22.0166 26.9424C21.9834 26.874 21.9141 26.8125 21.8086 26.7578C21.7051 26.7012 21.5488 26.6523 21.3398 26.6113C21.1641 26.5742 21.0049 26.5303 20.8623 26.4795C20.7217 26.4287 20.6016 26.3672 20.502 26.2949C20.4043 26.2227 20.3291 26.1377 20.2764 26.04C20.2236 25.9424 20.1973 25.8281 20.1973 25.6973C20.1973 25.5723 20.2246 25.4541 20.2793 25.3428C20.3359 25.2314 20.415 25.1328 20.5166 25.0469C20.6201 24.9609 20.7441 24.8936 20.8887 24.8447C21.0332 24.7959 21.1943 24.7715 21.3721 24.7715C21.626 24.7715 21.8428 24.8164 22.0225 24.9062C22.2021 24.9961 22.3398 25.1162 22.4355 25.2666C22.5312 25.415 22.5791 25.5801 22.5791 25.7617H22.0371C22.0371 25.6738 22.0107 25.5889 21.958 25.5068C21.9072 25.4229 21.832 25.3535 21.7324 25.2988C21.6348 25.2441 21.5146 25.2168 21.3721 25.2168C21.2217 25.2168 21.0996 25.2402 21.0059 25.2871C20.9141 25.332 20.8467 25.3896 20.8037 25.46C20.7627 25.5303 20.7422 25.6045 20.7422 25.6826C20.7422 25.7412 20.752 25.7939 20.7715 25.8408C20.793 25.8857 20.8301 25.9277 20.8828 25.9668C20.9355 26.0039 21.0098 26.0391 21.1055 26.0723C21.2012 26.1055 21.3232 26.1387 21.4717 26.1719C21.7314 26.2305 21.9453 26.3008 22.1133 26.3828C22.2812 26.4648 22.4062 26.5654 22.4883 26.6846C22.5703 26.8037 22.6113 26.9482 22.6113 27.1182C22.6113 27.2568 22.582 27.3838 22.5234 27.499C22.4668 27.6143 22.3838 27.7139 22.2744 27.7979C22.167 27.8799 22.0381 27.9443 21.8877 27.9912C21.7393 28.0361 21.5723 28.0586 21.3867 28.0586C21.1074 28.0586 20.8711 28.0088 20.6777 27.9092C20.4844 27.8096 20.3379 27.6807 20.2383 27.5225C20.1387 27.3643 20.0889 27.1973 20.0889 27.0215H20.6338C20.6416 27.1699 20.6846 27.2881 20.7627 27.376C20.8408 27.4619 20.9365 27.5234 21.0498 27.5605C21.1631 27.5957 21.2754 27.6133 21.3867 27.6133C21.5352 27.6133 21.6592 27.5938 21.7588 27.5547C21.8604 27.5156 21.9375 27.4619 21.9902 27.3936C22.043 27.3252 22.0693 27.2471 22.0693 27.1592ZM24.6387 28.0586C24.418 28.0586 24.2178 28.0215 24.0381 27.9473C23.8604 27.8711 23.707 27.7646 23.5781 27.6279C23.4512 27.4912 23.3535 27.3291 23.2852 27.1416C23.2168 26.9541 23.1826 26.749 23.1826 26.5264V26.4033C23.1826 26.1455 23.2207 25.916 23.2969 25.7148C23.373 25.5117 23.4766 25.3398 23.6074 25.1992C23.7383 25.0586 23.8867 24.9521 24.0527 24.8799C24.2188 24.8076 24.3906 24.7715 24.5684 24.7715C24.7949 24.7715 24.9902 24.8105 25.1543 24.8887C25.3203 24.9668 25.4561 25.0762 25.5615 25.2168C25.667 25.3555 25.7451 25.5195 25.7959 25.709C25.8467 25.8965 25.8721 26.1016 25.8721 26.3242V26.5674H23.5049V26.125H25.3301V26.084C25.3223 25.9434 25.293 25.8066 25.2422 25.6738C25.1934 25.541 25.1152 25.4316 25.0078 25.3457C24.9004 25.2598 24.7539 25.2168 24.5684 25.2168C24.4453 25.2168 24.332 25.2432 24.2285 25.2959C24.125 25.3467 24.0361 25.4229 23.9619 25.5244C23.8877 25.626 23.8301 25.75 23.7891 25.8965C23.748 26.043 23.7275 26.2119 23.7275 26.4033V26.5264C23.7275 26.6768 23.748 26.8184 23.7891 26.9512C23.832 27.082 23.8936 27.1973 23.9736 27.2969C24.0557 27.3965 24.1543 27.4746 24.2695 27.5312C24.3867 27.5879 24.5195 27.6162 24.668 27.6162C24.8594 27.6162 25.0215 27.5771 25.1543 27.499C25.2871 27.4209 25.4033 27.3164 25.5029 27.1855L25.8311 27.4463C25.7627 27.5498 25.6758 27.6484 25.5703 27.7422C25.4648 27.8359 25.335 27.9121 25.1807 27.9707C25.0283 28.0293 24.8477 28.0586 24.6387 28.0586ZM27.0439 25.46V28H26.499V24.8301H27.0146L27.0439 25.46ZM26.9326 26.2949L26.6807 26.2861C26.6826 26.0693 26.7109 25.8691 26.7656 25.6855C26.8203 25.5 26.9014 25.3389 27.0088 25.2021C27.1162 25.0654 27.25 24.96 27.4102 24.8857C27.5703 24.8096 27.7559 24.7715 27.9668 24.7715C28.1152 24.7715 28.252 24.793 28.377 24.8359C28.502 24.877 28.6104 24.9424 28.7021 25.0322C28.7939 25.1221 28.8652 25.2373 28.916 25.3779C28.9668 25.5186 28.9922 25.6885 28.9922 25.8877V28H28.4502V25.9141C28.4502 25.748 28.4219 25.6152 28.3652 25.5156C28.3105 25.416 28.2324 25.3438 28.1309 25.2988C28.0293 25.252 27.9102 25.2285 27.7734 25.2285C27.6133 25.2285 27.4795 25.2568 27.3721 25.3135C27.2646 25.3701 27.1787 25.4482 27.1143 25.5479C27.0498 25.6475 27.0029 25.7617 26.9736 25.8906C26.9463 26.0176 26.9326 26.1523 26.9326 26.2949ZM28.9863 25.9961L28.623 26.1074C28.625 25.9336 28.6533 25.7666 28.708 25.6064C28.7646 25.4463 28.8457 25.3037 28.9512 25.1787C29.0586 25.0537 29.1904 24.9551 29.3467 24.8828C29.5029 24.8086 29.6816 24.7715 29.8828 24.7715C30.0527 24.7715 30.2031 24.7939 30.334 24.8389C30.4668 24.8838 30.5781 24.9531 30.668 25.0469C30.7598 25.1387 30.8291 25.2568 30.876 25.4014C30.9229 25.5459 30.9463 25.7178 30.9463 25.917V28H30.4014V25.9111C30.4014 25.7334 30.373 25.5957 30.3164 25.498C30.2617 25.3984 30.1836 25.3291 30.082 25.29C29.9824 25.249 29.8633 25.2285 29.7246 25.2285C29.6055 25.2285 29.5 25.249 29.4082 25.29C29.3164 25.3311 29.2393 25.3877 29.1768 25.46C29.1143 25.5303 29.0664 25.6113 29.0332 25.7031C29.002 25.7949 28.9863 25.8926 28.9863 25.9961ZM33.082 28.0586C32.8613 28.0586 32.6611 28.0215 32.4814 27.9473C32.3037 27.8711 32.1504 27.7646 32.0215 27.6279C31.8945 27.4912 31.7969 27.3291 31.7285 27.1416C31.6602 26.9541 31.626 26.749 31.626 26.5264V26.4033C31.626 26.1455 31.6641 25.916 31.7402 25.7148C31.8164 25.5117 31.9199 25.3398 32.0508 25.1992C32.1816 25.0586 32.3301 24.9521 32.4961 24.8799C32.6621 24.8076 32.834 24.7715 33.0117 24.7715C33.2383 24.7715 33.4336 24.8105 33.5977 24.8887C33.7637 24.9668 33.8994 25.0762 34.0049 25.2168C34.1104 25.3555 34.1885 25.5195 34.2393 25.709C34.29 25.8965 34.3154 26.1016 34.3154 26.3242V26.5674H31.9482V26.125H33.7734V26.084C33.7656 25.9434 33.7363 25.8066 33.6855 25.6738C33.6367 25.541 33.5586 25.4316 33.4512 25.3457C33.3438 25.2598 33.1973 25.2168 33.0117 25.2168C32.8887 25.2168 32.7754 25.2432 32.6719 25.2959C32.5684 25.3467 32.4795 25.4229 32.4053 25.5244C32.3311 25.626 32.2734 25.75 32.2324 25.8965C32.1914 26.043 32.1709 26.2119 32.1709 26.4033V26.5264C32.1709 26.6768 32.1914 26.8184 32.2324 26.9512C32.2754 27.082 32.3369 27.1973 32.417 27.2969C32.499 27.3965 32.5977 27.4746 32.7129 27.5312C32.8301 27.5879 32.9629 27.6162 33.1113 27.6162C33.3027 27.6162 33.4648 27.5771 33.5977 27.499C33.7305 27.4209 33.8467 27.3164 33.9463 27.1855L34.2744 27.4463C34.2061 27.5498 34.1191 27.6484 34.0137 27.7422C33.9082 27.8359 33.7783 27.9121 33.624 27.9707C33.4717 28.0293 33.291 28.0586 33.082 28.0586ZM35.4902 25.5068V28H34.9482V24.8301H35.4609L35.4902 25.5068ZM35.3613 26.2949L35.1357 26.2861C35.1377 26.0693 35.1699 25.8691 35.2324 25.6855C35.2949 25.5 35.3828 25.3389 35.4961 25.2021C35.6094 25.0654 35.7441 24.96 35.9004 24.8857C36.0586 24.8096 36.2334 24.7715 36.4248 24.7715C36.5811 24.7715 36.7217 24.793 36.8467 24.8359C36.9717 24.877 37.0781 24.9434 37.166 25.0352C37.2559 25.127 37.3242 25.2461 37.3711 25.3926C37.418 25.5371 37.4414 25.7139 37.4414 25.9229V28H36.8965V25.917C36.8965 25.751 36.8721 25.6182 36.8232 25.5186C36.7744 25.417 36.7031 25.3438 36.6094 25.2988C36.5156 25.252 36.4004 25.2285 36.2637 25.2285C36.1289 25.2285 36.0059 25.2568 35.8945 25.3135C35.7852 25.3701 35.6904 25.4482 35.6104 25.5479C35.5322 25.6475 35.4707 25.7617 35.4258 25.8906C35.3828 26.0176 35.3613 26.1523 35.3613 26.2949ZM39.5918 24.8301V25.2461H37.8779V24.8301H39.5918ZM38.458 24.0596H39V27.2148C39 27.3223 39.0166 27.4033 39.0498 27.458C39.083 27.5127 39.126 27.5488 39.1787 27.5664C39.2314 27.584 39.2881 27.5928 39.3486 27.5928C39.3936 27.5928 39.4404 27.5889 39.4893 27.5811C39.54 27.5713 39.5781 27.5635 39.6035 27.5576L39.6064 28C39.5635 28.0137 39.5068 28.0264 39.4365 28.0381C39.3682 28.0518 39.2852 28.0586 39.1875 28.0586C39.0547 28.0586 38.9326 28.0322 38.8213 27.9795C38.71 27.9268 38.6211 27.8389 38.5547 27.7158C38.4902 27.5908 38.458 27.4229 38.458 27.2119V24.0596Z" fill="black"/>
</g>
</svg>
