<svg width="7" height="9" viewBox="0 0 7 9" fill="none" xmlns="http://www.w3.org/2000/svg">
<path d="M5.80562 1.93486L4.95442 2.59883L5.26058 3.64612L4.37575 3.02664L3.49091 3.64612L3.79707 2.59883L2.94588 1.93486L4.01912 1.90406L4.37575 0.877304L4.73237 1.90406L5.80562 1.93486ZM6.98315 4.29982L6.43139 4.72763L6.62989 5.40529L6.05795 5.00485L5.486 5.40529L5.6845 4.72763L5.13274 4.29982L5.8258 4.2827L6.05795 3.61531L6.29009 4.2827L6.98315 4.29982ZM6.21607 5.99396C6.49532 5.96658 6.79475 6.37043 6.61643 6.62712C6.50877 6.78114 6.39438 6.92488 6.25308 7.06178C4.9376 8.40683 2.80794 8.40683 1.49583 7.06178C0.180347 5.727 0.180347 3.55713 1.49583 2.22235C1.6304 2.08545 1.77171 1.96224 1.9231 1.85272C2.17543 1.67133 2.57243 1.97593 2.54552 2.26C2.45468 3.23884 2.77766 4.25532 3.51783 5.00485C4.25463 5.75781 5.25049 6.08637 6.21607 5.99396ZM5.66431 6.68531C4.71219 6.63055 3.77016 6.23011 3.04008 5.49769C2.31001 4.74816 1.91974 3.78644 1.86591 2.82129C0.920514 3.89596 0.957522 5.54561 1.9702 6.57921C2.98625 7.60938 4.60789 7.64703 5.66431 6.68531Z" fill="#F97A03"/>
</svg>
