<svg width="49" height="49" viewBox="0 0 49 49" fill="none" xmlns="http://www.w3.org/2000/svg">
<path d="M8.16667 8.16667H20.4167V20.4167H8.16667V8.16667ZM40.8333 8.16667V20.4167H28.5833V8.16667H40.8333ZM28.5833 30.625H32.6667V26.5417H28.5833V22.4583H32.6667V26.5417H36.75V22.4583H40.8333V26.5417H36.75V30.625H40.8333V36.75H36.75V40.8333H32.6667V36.75H26.5417V40.8333H22.4583V32.6667H28.5833V30.625ZM32.6667 30.625V36.75H36.75V30.625H32.6667ZM8.16667 40.8333V28.5833H20.4167V40.8333H8.16667ZM12.25 12.25V16.3333H16.3333V12.25H12.25ZM32.6667 12.25V16.3333H36.75V12.25H32.6667ZM12.25 32.6667V36.75H16.3333V32.6667H12.25ZM8.16667 22.4583H12.25V26.5417H8.16667V22.4583ZM18.375 22.4583H26.5417V30.625H22.4583V26.5417H18.375V22.4583ZM22.4583 12.25H26.5417V20.4167H22.4583V12.25ZM4.08333 4.08333V12.25H0V4.08333C0 3.00037 0.430207 1.96175 1.19598 1.19598C1.96175 0.430207 3.00037 0 4.08333 0L12.25 0V4.08333H4.08333ZM44.9167 0C45.9996 0 47.0382 0.430207 47.804 1.19598C48.5698 1.96175 49 3.00037 49 4.08333V12.25H44.9167V4.08333H36.75V0H44.9167ZM4.08333 36.75V44.9167H12.25V49H4.08333C3.00037 49 1.96175 48.5698 1.19598 47.804C0.430207 47.0382 0 45.9996 0 44.9167V36.75H4.08333ZM44.9167 44.9167V36.75H49V44.9167C49 45.9996 48.5698 47.0382 47.804 47.804C47.0382 48.5698 45.9996 49 44.9167 49H36.75V44.9167H44.9167Z" fill="black"/>
</svg>
