<svg width="32" height="33" viewBox="0 0 32 33" fill="none" xmlns="http://www.w3.org/2000/svg">
<path d="M16.1271 29.8698C23.5764 29.8698 29.6153 23.7032 29.6153 16.0963C29.6153 8.48946 23.5764 2.32288 16.1271 2.32288C8.67779 2.32288 2.63892 8.48946 2.63892 16.0963C2.63892 23.7032 8.67779 29.8698 16.1271 29.8698Z" fill="url(#paint0_linear_2953_7895)"/>
<path d="M28.4783 19.5742C30.3607 12.6081 26.3565 5.40264 19.5346 3.48044C12.7127 1.55824 5.65648 5.64718 3.77409 12.6133C1.8917 19.5795 5.89596 26.7849 12.7178 28.7071C19.5397 30.6293 26.5959 26.5404 28.4783 19.5742Z" fill="url(#paint1_linear_2953_7895)"/>
<path d="M14.3227 4.5373C14.6541 4.52451 14.9845 4.58029 15.2942 4.70128C15.6039 4.82227 15.8864 5.00596 16.1248 5.24132V4.72123C15.6206 4.11049 14.2607 3.82183 12.7939 4.26977C12.3223 4.40807 11.8729 4.61558 11.4598 4.8858C11.9016 4.66546 12.3764 4.52237 12.8646 4.4625C13.3511 4.39949 13.8448 4.42482 14.3227 4.5373ZM7.33518 8.10497C7.70967 7.78155 8.13667 7.52749 8.59687 7.35429C8.86783 7.158 9.17546 7.02076 9.50061 6.95112C9.82575 6.88148 10.1615 6.88092 10.4868 6.94948L10.2128 6.50946C9.46385 6.27273 8.17027 6.79019 7.17402 7.98C6.85109 8.35824 6.58187 8.78099 6.37426 9.23581C6.63219 8.80799 6.95676 8.42603 7.33518 8.10497ZM5.25994 12.9003C5.38424 12.5846 5.57081 12.2985 5.80802 12.0596C6.04523 11.8207 6.32803 11.6341 6.63884 11.5116L6.17863 11.296C5.42455 11.5116 4.60755 12.6653 4.39554 14.2212C4.32371 14.7186 4.32196 15.2238 4.39037 15.7217C4.37806 15.2178 4.44737 14.7153 4.59549 14.2344C4.73947 13.7534 4.9643 13.3026 5.25994 12.9003ZM5.37111 19.4205C5.31062 19.0848 5.31763 18.74 5.39171 18.4072C5.46579 18.0744 5.60539 17.7604 5.80202 17.4844L5.30131 17.5574C4.78422 18.1567 4.69804 19.5815 5.34009 21.0081C5.54089 21.4664 5.80467 21.8931 6.12347 22.2753C5.84858 21.8567 5.64329 21.3946 5.51589 20.9077C5.38458 20.4238 5.33561 19.9213 5.37111 19.4205ZM8.90454 24.8397C8.67657 24.5913 8.50048 24.2981 8.38699 23.978C8.27351 23.6578 8.22499 23.3175 8.24439 22.9776L7.86261 23.3182C7.7411 24.1102 8.42192 25.3546 9.71033 26.1994C10.1205 26.4736 10.5664 26.6875 11.0349 26.8348C10.5845 26.6331 10.1694 26.3575 9.80599 26.019C9.44053 25.6822 9.13547 25.2837 8.90454 24.8397ZM16.105 27.9313C15.6211 27.8498 15.1546 27.6837 14.7261 27.4402C14.4034 27.3581 14.1006 27.2093 13.8365 27.003C13.5724 26.7967 13.3524 26.5373 13.1903 26.2408L13.0481 26.7397C13.3635 27.4754 14.5933 28.1372 16.1205 28.1364C16.6099 28.1365 17.097 28.0666 17.5675 27.9287C17.0825 28.011 16.5876 28.0116 16.1024 27.9304L16.105 27.9313ZM20.9932 26.4009C20.6789 26.511 20.3457 26.5535 20.0146 26.526C19.6834 26.4984 19.3614 26.4013 19.0687 26.2408L19.2109 26.7397C19.8633 27.185 21.2491 27.0636 22.5306 26.2117C22.9448 25.9403 23.3188 25.6099 23.6415 25.2305C23.2777 25.5688 22.8616 25.8432 22.41 26.0428C21.9608 26.2452 21.4804 26.3661 20.9906 26.4001L20.9932 26.4009ZM25.715 22.0412C25.5088 22.3084 25.251 22.5294 24.9576 22.6905C24.6642 22.8516 24.3415 22.9493 24.0095 22.9776L24.3913 23.3182C25.1738 23.3287 26.2752 22.461 26.9069 21.0301C27.1136 20.5739 27.2558 20.09 27.3292 19.593C27.2006 20.0796 26.9945 20.5414 26.719 20.9597C26.4473 21.3775 26.1057 21.7433 25.7099 22.0403L25.715 22.0412ZM27.3912 15.7534C27.3577 16.0918 27.2574 16.4198 27.0964 16.7176C26.9354 17.0154 26.717 17.2768 26.4545 17.4862L26.9552 17.5592C27.6162 17.1324 28.0867 15.7903 27.8644 14.2371C27.798 13.7388 27.6622 13.2528 27.461 12.7938C27.6105 13.2747 27.6804 13.7776 27.6679 14.2819C27.6596 14.785 27.5651 15.2827 27.3887 15.7525L27.3912 15.7534ZM24.9515 8.14193C25.2106 8.56945 25.3951 9.0396 25.497 9.5315C25.6478 9.83551 25.7364 10.1677 25.7573 10.5079C25.7782 10.848 25.731 11.1889 25.6185 11.5098L26.0787 11.2942C26.4131 10.5673 26.0985 9.17773 25.0928 7.99584C24.7744 7.61454 24.4048 7.28122 23.9948 7.0058C24.3713 7.32858 24.6936 7.71206 24.9489 8.14105L24.9515 8.14193ZM20.6252 5.34957C20.9121 5.52238 21.1613 5.75333 21.3575 6.02817C21.5537 6.30301 21.6928 6.61595 21.7662 6.94772L22.0403 6.5077C21.9403 5.71039 20.9458 4.71419 19.4764 4.27681C19.0074 4.13181 18.5203 4.0571 18.0303 4.05504C18.5183 4.11503 18.993 4.2578 19.435 4.47745C19.879 4.6938 20.282 4.98965 20.6252 5.34957ZM14.4977 26.2892C15.1078 26.4891 15.6652 26.8286 16.1274 27.2818V26.7617C15.3563 26.0853 14.4271 25.6239 13.4299 25.4223C13.0249 25.3035 12.637 25.1953 12.2708 25.1152C12.6517 25.2605 13.0241 25.4283 13.386 25.6177C13.7671 25.8209 14.1373 26.0447 14.4951 26.2883L14.4977 26.2892ZM9.31993 23.7441C9.72465 24.2528 10.0142 24.8467 10.168 25.483L10.442 25.043C10.1489 24.0463 9.61105 23.1426 8.87955 22.4179C8.5986 22.094 8.33488 21.7843 8.06341 21.5158C8.30877 21.8503 8.53384 22.1997 8.73735 22.5622C8.95179 22.9445 9.14569 23.3385 9.31821 23.7423L9.31993 23.7441ZM6.42166 16.1599C6.44909 16.5774 6.45254 16.9961 6.432 17.414C6.41209 17.854 6.36893 18.2926 6.30273 18.7279C6.37505 19.3805 6.30621 20.0415 6.10106 20.664L6.56128 20.4475C6.83876 19.4449 6.86159 18.3867 6.62763 17.3726C6.56903 16.9423 6.49147 16.5357 6.41994 16.1591L6.42166 16.1599ZM7.20591 11.8002C6.95717 12.1596 6.68901 12.5045 6.4027 12.8334C6.12261 13.4228 5.71752 13.941 5.21685 14.3506L5.71756 14.4236C6.47859 13.7317 7.05482 12.8534 7.39206 11.8715C7.56442 11.4764 7.72558 11.0989 7.85399 10.7372C7.65827 11.1047 7.44129 11.46 7.20419 11.8011L7.20591 11.8002ZM9.59399 7.92895C9.04769 8.26827 8.43409 8.47875 7.79797 8.54499L8.18062 8.88556C9.18508 8.72818 10.1328 8.309 10.9324 7.66847C11.284 7.4291 11.6218 7.20557 11.9166 6.96444C11.5599 7.16649 11.1912 7.34549 10.8126 7.50038C10.4142 7.66555 10.0074 7.80862 9.59399 7.92895ZM14.8571 5.5775C14.2176 5.55759 13.5906 5.39256 13.0214 5.09436L13.1636 5.59335C14.0891 6.02037 15.1075 6.19444 16.1188 6.09849C16.541 6.10553 16.9426 6.08528 17.3167 6.06152C16.91 6.03183 16.5056 5.97599 16.1058 5.89431C15.684 5.81402 15.2671 5.70913 14.8571 5.58015V5.5775ZM20.5243 6.5165C19.9961 6.14547 19.5547 5.65985 19.2316 5.09436L19.0894 5.59335C19.645 6.4633 20.4084 7.17442 21.3077 7.65966C21.6645 7.89023 22.0041 8.11025 22.3367 8.29066C22.0104 8.04 21.6993 7.76933 21.4051 7.48014C21.0944 7.17723 20.8004 6.85699 20.5243 6.5209V6.5165ZM24.0724 8.88556C24.0818 9.92714 24.3512 10.9491 24.8549 11.8548C25.0359 12.2464 25.1997 12.6204 25.3893 12.9557C25.2465 12.5639 25.1271 12.1636 25.0316 11.7571C24.9304 11.3287 24.8513 10.8951 24.7946 10.4582C24.5453 9.85364 24.4297 9.2004 24.4559 8.54499L24.0724 8.88556ZM25.4961 18.5774C25.5839 18.1691 25.6944 17.7663 25.8271 17.3709C25.9667 16.9541 26.1278 16.5452 26.3097 16.1459C26.4174 15.499 26.6657 14.885 27.0362 14.3488L26.5355 14.4228C25.9918 15.3049 25.6793 16.3149 25.628 17.3559C25.5685 17.7854 25.5237 18.1955 25.4961 18.5774ZM23.5433 22.5314C23.8806 22.2586 24.2325 22.0051 24.5973 21.7719C25.0277 21.2896 25.5575 20.9106 26.1485 20.6622L25.6883 20.4457C24.7676 20.8876 23.9731 21.563 23.3804 22.4073C23.1072 22.7382 22.8469 23.0515 22.6263 23.3639C22.9149 23.0677 23.2211 22.79 23.5433 22.5323V22.5314ZM22.0842 25.4813L21.8102 25.0413C20.8042 24.903 19.7803 25.0312 18.8369 25.4135C18.4344 25.5403 18.0501 25.659 17.6993 25.7972C18.0974 25.7093 18.5003 25.6455 18.9059 25.6063C19.3329 25.5649 19.7618 25.5464 20.1908 25.5508C20.8092 25.3849 21.4559 25.3606 22.0842 25.4813Z" fill="url(#paint2_linear_2953_7895)"/>
<path d="M12.924 4.72988C13.3774 4.5906 13.8495 4.52554 14.3227 4.53715C13.8448 4.42623 13.3515 4.40241 12.8654 4.46676C12.3773 4.52663 11.9024 4.66971 11.4607 4.89004C11.155 5.0588 10.8868 5.29021 10.6728 5.56976C10.4588 5.8493 10.3037 6.17097 10.2171 6.5146L10.4911 6.95461C10.5618 6.17666 11.4908 5.15406 12.924 4.72988ZM6.6328 11.5062C6.28808 10.8171 6.53628 9.43896 7.51874 8.28787C7.82645 7.91927 8.18877 7.60213 8.59255 7.34798C8.13235 7.52118 7.70536 7.77524 7.33087 8.09866C6.95223 8.42052 6.62765 8.80339 6.36995 9.23215C6.20075 9.54299 6.09592 9.88604 6.06197 10.24C6.02802 10.5939 6.06567 10.9512 6.17259 11.2897L6.6328 11.5062ZM4.84626 14.2818C4.91124 13.8002 5.04966 13.3319 5.25649 12.894C4.95981 13.2955 4.73381 13.7466 4.58858 14.2272C4.44047 14.7081 4.37116 15.2106 4.38347 15.7145C4.4049 16.0685 4.4969 16.4143 4.65384 16.7307C4.81077 17.0472 5.02933 17.3275 5.29613 17.5547L5.7977 17.4816C5.15135 17.097 4.63168 15.7999 4.84971 14.2862L4.84626 14.2818ZM5.75547 20.8082C5.55681 20.3669 5.426 19.897 5.36766 19.415C5.33102 19.9166 5.37912 20.4209 5.50986 20.9058C5.63726 21.3927 5.84255 21.8548 6.11744 22.2734C6.32181 22.5596 6.58199 22.7994 6.8816 22.9778C7.18121 23.1562 7.51376 23.2694 7.85829 23.3101L8.24008 22.9695C7.49116 23.01 6.37253 22.2083 5.75892 20.8125L5.75547 20.8082ZM9.9568 25.7936C9.55717 25.5322 9.20008 25.2085 8.8985 24.8343C9.13028 25.2772 9.43592 25.6753 9.80167 26.0109C10.165 26.3494 10.5802 26.625 11.0306 26.8267C11.354 26.9543 11.6998 27.0119 12.0461 26.9956C12.3923 26.9794 12.7315 26.8898 13.0421 26.7326L13.1843 26.2344C12.5733 26.6885 11.209 26.634 9.95853 25.7971L9.9568 25.7936ZM16.1144 27.6566C15.641 27.6561 15.1704 27.5813 14.7192 27.4348C15.1477 27.6782 15.6142 27.8444 16.0981 27.9259C16.5832 28.0076 17.0781 28.0076 17.5631 27.9259C17.9027 27.8539 18.224 27.7109 18.5068 27.506C18.7896 27.3011 19.0279 27.0386 19.2066 26.7352L19.0644 26.2362C18.7852 26.9578 17.608 27.6636 16.1179 27.661L16.1144 27.6566ZM24.006 22.9713C24.1482 23.7325 23.5329 24.983 22.2755 25.805C21.8791 26.0697 21.4447 26.2698 20.988 26.3981C21.477 26.3636 21.9565 26.2424 22.4048 26.04C22.8564 25.8405 23.2725 25.566 23.6363 25.2277C23.8835 24.9778 24.0778 24.6787 24.2072 24.349C24.3366 24.0193 24.3984 23.666 24.3887 23.311L24.006 22.9713ZM26.4484 17.4834C26.9655 18.0431 27.112 19.4379 26.4837 20.8275C26.289 21.2704 26.0272 21.6794 25.7081 22.0393C26.1034 21.7407 26.4441 21.3734 26.7147 20.9542C26.9902 20.5359 27.1963 20.0742 27.3249 19.5875C27.4014 19.2408 27.4075 18.8817 27.3427 18.5325C27.2779 18.1833 27.1437 17.8514 26.9483 17.5573L26.4484 17.4834ZM27.4559 12.7919C27.3387 12.4585 27.1552 12.1535 26.917 11.8961C26.6788 11.6386 26.3911 11.4343 26.0718 11.2958L25.6116 11.5123C26.3441 11.6945 27.1956 12.7893 27.4016 14.3064C27.4704 14.7875 27.4652 15.2765 27.3861 15.7559C27.562 15.2857 27.656 14.7877 27.6636 14.2844C27.677 13.779 27.6077 13.2749 27.4585 12.7928L27.4559 12.7919ZM24.9454 8.13914C24.6895 7.70932 24.3664 7.32524 23.9888 7.00214C23.7142 6.78627 23.3987 6.63093 23.0622 6.54595C22.7258 6.46097 22.3757 6.44819 22.0342 6.50843L21.7602 6.94845C22.4737 6.69588 23.7656 7.1447 24.7369 8.30635C25.0488 8.67234 25.3032 9.0856 25.4909 9.53136C25.3904 9.03907 25.207 8.56832 24.9489 8.14002L24.9454 8.13914ZM19.3436 4.7334C19.7994 4.86774 20.2312 5.07571 20.6226 5.34942C20.2792 4.99045 19.8762 4.69638 19.4324 4.48083C18.9904 4.26117 18.5157 4.1184 18.0277 4.05841C17.6826 4.03153 17.3358 4.07699 17.0085 4.19201C16.6813 4.30703 16.3806 4.48917 16.1248 4.72724V5.24734C16.5945 4.64188 17.9148 4.29514 19.3436 4.7334ZM12.269 25.1124C11.6741 24.9374 11.0462 24.9138 10.4403 25.0438L10.1662 25.4838C11.2261 25.3542 12.3009 25.4898 13.298 25.8789C13.7229 26.0127 14.1271 26.1385 14.4951 26.2899C14.1367 26.0478 13.7659 25.8254 13.3842 25.6237C13.0225 25.4316 12.6501 25.2612 12.269 25.1133V25.1124ZM8.73561 22.5603C8.53211 22.1978 8.30705 21.8483 8.06168 21.5139C7.65374 21.0371 7.13774 20.6694 6.55869 20.4429L6.09848 20.6585C7.06021 21.1374 7.89407 21.847 8.52878 22.7266C8.81663 23.0742 9.0881 23.4069 9.3182 23.7387C9.14499 23.3363 8.9505 22.9438 8.73561 22.5629V22.5603ZM6.16656 17.4376C6.2312 17.8891 6.27429 18.3176 6.29928 18.7269C6.36548 18.2916 6.40864 17.853 6.42855 17.413C6.44909 16.9951 6.44564 16.5764 6.41821 16.1589C6.3267 15.5299 6.08487 14.9335 5.71411 14.4226L5.21857 14.3469C5.77542 15.2834 6.10078 16.3441 6.16656 17.4376ZM6.39925 12.8315C6.68507 12.5014 6.95265 12.1553 7.20073 11.7948C7.43748 11.4542 7.65417 11.0995 7.84967 10.7326C8.10346 10.1527 8.21555 9.51847 8.1763 8.88453L7.79366 8.54396C7.76873 9.63925 7.4852 10.7122 6.96718 11.6716C6.78103 12.087 6.60177 12.4795 6.40097 12.8315H6.39925ZM11.9148 6.96957C12.4335 6.62171 12.8615 6.15024 13.1619 5.59583L13.0197 5.09685C12.4221 6.00335 11.6196 6.74955 10.6799 7.2723C10.3041 7.51607 9.94388 7.744 9.59226 7.93233C10.0057 7.81285 10.4125 7.67067 10.8109 7.5064C11.1901 7.351 11.5594 7.17141 11.9166 6.96869L11.9148 6.96957ZM17.3158 6.06401C17.9353 6.05817 18.544 5.89743 19.0885 5.59583L19.2307 5.09685C18.251 5.53094 17.1816 5.71228 16.117 5.62488C15.6732 5.6328 15.2492 5.60816 14.8553 5.57911C15.2653 5.70869 15.6823 5.81417 16.1041 5.89504C16.5044 5.97708 16.9094 6.03323 17.3167 6.06314L17.3158 6.06401ZM21.4042 7.48352C21.6984 7.7727 22.0095 8.04337 22.3359 8.29403C22.858 8.63427 23.4541 8.83825 24.0715 8.88805L24.4542 8.54748C23.4005 8.36649 22.4059 7.92576 21.5568 7.26351C21.1862 7.01182 20.8337 6.77244 20.5226 6.51899C20.7994 6.85665 21.0943 7.17836 21.406 7.48263L21.4042 7.48352ZM26.5346 14.4235L27.0353 14.3504C26.2456 13.611 25.6414 12.6887 25.2738 11.661C25.0919 11.2448 24.929 10.8461 24.792 10.4624C24.8487 10.8993 24.9278 11.3329 25.029 11.7614C25.1245 12.1679 25.2439 12.5682 25.3867 12.96C25.6474 13.5362 26.0421 14.0386 26.5363 14.4235H26.5346ZM26.0839 17.4235C26.1451 16.9721 26.2218 16.5435 26.3079 16.1475C26.126 16.5468 25.9649 16.9557 25.8253 17.3725C25.6926 17.7679 25.5822 18.1707 25.4944 18.579C25.4116 19.2089 25.479 19.8498 25.6909 20.4473L26.1511 20.6638C25.8754 19.6059 25.8529 18.4957 26.0856 17.427L26.0839 17.4235ZM22.6271 23.3647C22.2246 23.8484 21.9436 24.425 21.8084 25.0446L22.0825 25.4847C22.4059 24.4413 22.9715 23.4933 23.7311 22.7213C24.0259 22.379 24.3077 22.056 24.5929 21.7753C24.2282 22.0085 23.8763 22.262 23.5389 22.5348C23.2186 22.7921 22.9141 23.0692 22.6271 23.3647ZM17.6976 25.7997C17.1025 25.981 16.5612 26.3113 16.1231 26.7607V27.2808C16.9443 26.5814 17.9207 26.098 18.967 25.8728C19.3979 25.746 19.803 25.6369 20.1908 25.5542C19.7618 25.5498 19.3329 25.5683 18.9058 25.6096C18.5006 25.6489 18.098 25.7127 17.7002 25.8006L17.6976 25.7997Z" fill="url(#paint3_linear_2953_7895)"/>
<path d="M16.1266 7.06628C14.3776 7.06611 12.6678 7.59557 11.2135 8.5877C9.75911 9.57983 8.62554 10.9901 7.9561 12.6401C7.28666 14.2901 7.11142 16.1058 7.45253 17.8575C7.79364 19.6092 8.63579 21.2183 9.87248 22.4812C11.1092 23.7442 12.6848 24.6043 14.4003 24.9528C16.1157 25.3013 17.8937 25.1225 19.5096 24.4391C21.1256 23.7557 22.5067 22.5983 23.4784 21.1133C24.4501 19.6283 24.9688 17.8824 24.9688 16.0963C24.9688 13.7016 24.0372 11.4049 22.379 9.71144C20.7208 8.018 18.4718 7.06652 16.1266 7.06628ZM16.1266 22.1149C14.9607 22.1149 13.821 21.7619 12.8517 21.1004C11.8823 20.439 11.1267 19.4989 10.6806 18.399C10.2344 17.2991 10.1177 16.0888 10.3451 14.9211C10.5726 13.7535 11.134 12.6809 11.9584 11.8391C12.7828 10.9972 13.8331 10.4239 14.9766 10.1917C16.1201 9.9594 17.3053 10.0786 18.3825 10.5342C19.4596 10.9898 20.3802 11.7613 21.028 12.7512C21.6757 13.7411 22.0214 14.9049 22.0214 16.0955C22.0215 16.886 21.8691 17.6689 21.5729 18.3993C21.2767 19.1297 20.8426 19.7934 20.2952 20.3524C19.7478 20.9115 19.0979 21.3549 18.3827 21.6575C17.6674 21.9601 16.9008 22.1149 16.1266 22.1149Z" fill="url(#paint4_linear_2953_7895)"/>
<path d="M16.1266 7.2168C14.4067 7.2168 12.7255 7.73757 11.2955 8.71327C9.86553 9.68897 8.75099 11.0758 8.09283 12.6983C7.43468 14.3208 7.26247 16.1062 7.598 17.8287C7.93352 19.5511 8.7617 21.1333 9.97781 22.3752C11.1939 23.617 12.7434 24.4627 14.4301 24.8053C16.1169 25.1479 17.8653 24.9721 19.4543 24.3C21.0432 23.6279 22.4013 22.4898 23.3568 21.0296C24.3123 19.5693 24.8223 17.8526 24.8223 16.0964C24.8223 13.7414 23.9061 11.4828 22.2753 9.81756C20.6446 8.15232 18.4328 7.2168 16.1266 7.2168ZM16.1266 21.9653C14.9899 21.9653 13.8786 21.6211 12.9335 20.9762C11.9883 20.3313 11.2517 19.4147 10.8167 18.3423C10.3817 17.2699 10.2678 16.0899 10.4896 14.9514C10.7114 13.8129 11.2588 12.7672 12.0625 11.9464C12.8663 11.1256 13.8904 10.5666 15.0053 10.3402C16.1202 10.1137 17.2758 10.2299 18.326 10.6741C19.3762 11.1183 20.2738 11.8706 20.9054 12.8357C21.5369 13.8009 21.874 14.9356 21.874 16.0964C21.874 17.6529 21.2685 19.1457 20.1906 20.2463C19.1128 21.347 17.6509 21.9653 16.1266 21.9653Z" fill="url(#paint5_linear_2953_7895)"/>
<path d="M16.1266 7.2168C14.4067 7.2168 12.7255 7.73757 11.2955 8.71327C9.86553 9.68897 8.75099 11.0758 8.09283 12.6983C7.43468 14.3208 7.26247 16.1062 7.598 17.8287C7.93352 19.5511 8.7617 21.1333 9.97781 22.3752C11.1939 23.617 12.7434 24.4627 14.4301 24.8053C16.1169 25.1479 17.8653 24.9721 19.4543 24.3C21.0432 23.6279 22.4013 22.4898 23.3568 21.0296C24.3123 19.5693 24.8223 17.8526 24.8223 16.0964C24.8223 13.7414 23.9061 11.4828 22.2753 9.81756C20.6446 8.15232 18.4328 7.2168 16.1266 7.2168ZM16.1266 22.1158C14.9607 22.1158 13.821 21.7628 12.8516 21.1014C11.8822 20.4399 11.1267 19.4998 10.6805 18.3999C10.2344 17.3 10.1176 16.0897 10.3451 14.922C10.5725 13.7544 11.1339 12.6818 11.9583 11.84C12.7827 10.9981 13.8331 10.4248 14.9766 10.1926C16.12 9.96031 17.3053 10.0795 18.3824 10.5351C19.4596 10.9907 20.3802 11.7622 21.0279 12.7521C21.6756 13.742 22.0214 14.9058 22.0214 16.0964C22.0214 17.6928 21.4003 19.2239 20.2948 20.3528C19.1893 21.4816 17.69 22.1158 16.1266 22.1158Z" fill="url(#paint6_linear_2953_7895)"/>
<defs>
<linearGradient id="paint0_linear_2953_7895" x1="2.63892" y1="16.0963" x2="29.6153" y2="16.0963" gradientUnits="userSpaceOnUse">
<stop stop-color="#DDDAD6"/>
<stop offset="0.063" stop-color="#CECBC8"/>
<stop offset="0.183" stop-color="#A8A4A6"/>
<stop offset="0.264" stop-color="#8B878D"/>
<stop offset="0.522" stop-color="#F3F4F4"/>
<stop offset="0.585" stop-color="#E4E5E5"/>
<stop offset="0.704" stop-color="#BFBEC0"/>
<stop offset="0.867" stop-color="#837F83"/>
<stop offset="0.876" stop-color="#807C80"/>
<stop offset="1" stop-color="#A7A9AC"/>
</linearGradient>
<linearGradient id="paint1_linear_2953_7895" x1="28.4783" y1="19.5742" x2="3.70223" y2="12.8793" gradientUnits="userSpaceOnUse">
<stop stop-color="#DDDAD6"/>
<stop offset="0.063" stop-color="#CECBC8"/>
<stop offset="0.183" stop-color="#A8A4A6"/>
<stop offset="0.264" stop-color="#8B878D"/>
<stop offset="0.522" stop-color="#F3F4F4"/>
<stop offset="0.585" stop-color="#E4E5E5"/>
<stop offset="0.704" stop-color="#BFBEC0"/>
<stop offset="0.867" stop-color="#837F83"/>
<stop offset="0.876" stop-color="#807C80"/>
<stop offset="1" stop-color="#A7A9AC"/>
</linearGradient>
<linearGradient id="paint2_linear_2953_7895" x1="16.1303" y1="28.1364" x2="16.1303" y2="4.052" gradientUnits="userSpaceOnUse">
<stop stop-color="white"/>
<stop offset="1"/>
</linearGradient>
<linearGradient id="paint3_linear_2953_7895" x1="16.0236" y1="4.0509" x2="16.0236" y2="27.9872" gradientUnits="userSpaceOnUse">
<stop stop-color="white"/>
<stop offset="1"/>
</linearGradient>
<linearGradient id="paint4_linear_2953_7895" x1="8.46768" y1="20.6114" x2="23.9424" y2="11.8618" gradientUnits="userSpaceOnUse">
<stop stop-color="#DDDAD6"/>
<stop offset="0.063" stop-color="#CECBC8"/>
<stop offset="0.183" stop-color="#A8A4A6"/>
<stop offset="0.264" stop-color="#8B878D"/>
<stop offset="0.522" stop-color="#F3F4F4"/>
<stop offset="0.585" stop-color="#E4E5E5"/>
<stop offset="0.704" stop-color="#BFBEC0"/>
<stop offset="0.867" stop-color="#837F83"/>
<stop offset="0.876" stop-color="#807C80"/>
<stop offset="1" stop-color="#A7A9AC"/>
</linearGradient>
<linearGradient id="paint5_linear_2953_7895" x1="8.59613" y1="11.6566" x2="23.813" y2="20.2603" gradientUnits="userSpaceOnUse">
<stop stop-color="#DDDAD6"/>
<stop offset="0.063" stop-color="#CECBC8"/>
<stop offset="0.183" stop-color="#A8A4A6"/>
<stop offset="0.264" stop-color="#8B878D"/>
<stop offset="0.522" stop-color="#F3F4F4"/>
<stop offset="0.585" stop-color="#E4E5E5"/>
<stop offset="0.704" stop-color="#BFBEC0"/>
<stop offset="0.867" stop-color="#837F83"/>
<stop offset="0.876" stop-color="#807C80"/>
<stop offset="1" stop-color="#A7A9AC"/>
</linearGradient>
<linearGradient id="paint6_linear_2953_7895" x1="7.43091" y1="16.0964" x2="24.8223" y2="16.0964" gradientUnits="userSpaceOnUse">
<stop stop-color="#DDDAD6"/>
<stop offset="0.063" stop-color="#CECBC8"/>
<stop offset="0.183" stop-color="#A8A4A6"/>
<stop offset="0.264" stop-color="#8B878D"/>
<stop offset="0.522" stop-color="#F3F4F4"/>
<stop offset="0.585" stop-color="#E4E5E5"/>
<stop offset="0.704" stop-color="#BFBEC0"/>
<stop offset="0.867" stop-color="#837F83"/>
<stop offset="0.876" stop-color="#807C80"/>
<stop offset="1" stop-color="#A7A9AC"/>
</linearGradient>
</defs>
</svg>
