<svg width="37" height="38" viewBox="0 0 37 38" fill="none" xmlns="http://www.w3.org/2000/svg">
<path d="M18.2568 32.6148C25.5811 32.6148 31.5186 26.5517 31.5186 19.0725C31.5186 11.5933 25.5811 5.53015 18.2568 5.53015C10.9324 5.53015 4.99487 11.5933 4.99487 19.0725C4.99487 26.5517 10.9324 32.6148 18.2568 32.6148Z" fill="url(#paint0_linear_2601_2051)"/>
<path d="M27.1656 28.1699C32.0859 23.1456 32.0859 14.9997 27.1656 9.97538C22.2454 4.9511 14.2682 4.9511 9.34794 9.97538C4.42771 14.9997 4.42771 23.1456 9.34794 28.1699C14.2682 33.1942 22.2454 33.1942 27.1656 28.1699Z" fill="url(#paint1_linear_2601_2051)"/>
<path d="M16.4818 7.7074C16.808 7.69536 17.1331 7.75087 17.4377 7.87061C17.7423 7.99035 18.02 8.17184 18.2541 8.40411V7.89621C17.7586 7.29579 16.4208 7.01163 14.9795 7.4525C14.5158 7.58829 14.074 7.79213 13.6677 8.05764C14.1021 7.8412 14.5689 7.70078 15.0488 7.64226C15.5265 7.57761 16.0116 7.59966 16.4818 7.7074ZM9.611 11.2136C9.97923 10.8955 10.3991 10.6457 10.8517 10.4753C11.1181 10.2824 11.4206 10.1476 11.7403 10.0792C12.06 10.0108 12.39 10.0104 12.7099 10.0779L12.44 9.64836C11.7004 9.41612 10.432 9.92403 9.45199 11.0937C9.13462 11.4656 8.87006 11.8813 8.66614 12.3285C8.91944 11.907 9.23864 11.5298 9.611 11.2136ZM7.57061 15.9291C7.69257 15.619 7.87564 15.3378 8.10847 15.103C8.3413 14.8682 8.6189 14.6847 8.92406 14.564L8.47107 14.3516C7.73147 14.5631 6.92627 15.6978 6.71456 17.2272C6.64379 17.7162 6.64189 18.2131 6.70898 18.7027C6.69679 18.2073 6.76491 17.7132 6.91053 17.2404C7.05428 16.7674 7.27764 16.3237 7.57061 15.9291ZM7.67968 22.3401C7.62047 22.0106 7.62743 21.6723 7.70005 21.3457C7.77268 21.019 7.90948 20.7108 8.10221 20.4397L7.60943 20.5115C7.09726 21.1015 7.01592 22.5025 7.64735 23.9044C7.84454 24.3552 8.10388 24.7748 8.41746 25.1505C8.14731 24.739 7.94553 24.2848 7.82024 23.8062C7.69135 23.3294 7.64378 22.8334 7.67968 22.3401ZM11.1512 27.6693C10.927 27.4246 10.7541 27.1358 10.6428 26.8206C10.5316 26.5054 10.4844 26.1704 10.5041 25.8359L10.1278 26.1711C10.0085 26.9527 10.6825 28.1734 11.9444 29.0032C12.3474 29.2728 12.7856 29.4832 13.2461 29.6282C12.8032 29.4297 12.3951 29.1586 12.0378 28.8257C11.6788 28.4957 11.3787 28.1044 11.1512 27.6693ZM18.231 30.7091C17.755 30.6288 17.2963 30.4652 16.8748 30.2257C16.5575 30.145 16.2599 29.9988 16.0002 29.796C15.7405 29.5931 15.5244 29.3381 15.3651 29.0466L15.2255 29.5375C15.5361 30.2607 16.7453 30.912 18.2467 30.9111C18.728 30.9113 19.2068 30.8427 19.6695 30.7072C19.1933 30.7879 18.7074 30.7886 18.231 30.7091ZM23.0384 29.2043C22.7293 29.3123 22.4016 29.3541 22.076 29.327C21.7504 29.2998 21.4338 29.2044 21.1459 29.0466L21.2855 29.5366C21.9271 29.9737 23.2889 29.8557 24.5499 29.0136C24.9566 28.7484 25.3242 28.4255 25.6417 28.0544C25.284 28.3871 24.8747 28.657 24.4306 28.8531C23.9897 29.0518 23.5182 29.1706 23.0374 29.2043H23.0384ZM27.6811 24.9174C27.4783 25.1793 27.225 25.3959 26.9368 25.5537C26.6487 25.7116 26.3318 25.8073 26.0059 25.835L26.3813 26.1701C27.1514 26.1805 28.2303 25.3271 28.8544 23.9204C29.0577 23.4709 29.1974 22.9941 29.2694 22.5044C29.1429 22.983 28.9402 23.4372 28.6695 23.8487C28.4037 24.2614 28.0697 24.6232 27.6811 24.9174ZM29.3295 18.7348C29.2955 19.0671 29.1961 19.3889 29.0372 19.6809C28.8784 19.9729 28.6633 20.2291 28.405 20.4341L28.8978 20.5058C29.545 20.0857 30.0072 18.7669 29.7918 17.2394C29.7263 16.7505 29.5928 16.2737 29.3952 15.8234C29.5421 16.2962 29.6109 16.7907 29.5986 17.2866C29.592 17.7817 29.5016 18.2719 29.3295 18.7348ZM26.9304 11.2504C27.1841 11.6709 27.3646 12.1331 27.4639 12.6164C27.6122 12.9155 27.6992 13.2422 27.7197 13.5767C27.7402 13.9113 27.6938 14.2465 27.5832 14.5621L28.0352 14.3497C28.3643 13.6351 28.0556 12.2728 27.0664 11.1069C26.7537 10.7317 26.3904 10.4037 25.9875 10.1327C26.3592 10.4502 26.6783 10.8278 26.9304 11.2504ZM22.6778 8.50512C22.9599 8.67519 23.205 8.90235 23.398 9.17265C23.591 9.44295 23.7278 9.75068 23.8001 10.077L24.0692 9.64741C23.9712 8.86385 22.993 7.88393 21.549 7.45439C21.0878 7.31179 20.6089 7.23834 20.1271 7.23633C20.6069 7.29539 21.0737 7.43576 21.5083 7.6517C21.9438 7.86395 22.3391 8.15319 22.6759 8.50606L22.6778 8.50512ZM16.6473 29.0938C17.2471 29.2904 17.7952 29.6243 18.2495 30.07V29.5583C17.4918 28.8915 16.578 28.4362 15.5971 28.2366C15.1986 28.1196 14.8178 28.0138 14.4572 27.9345C14.8322 28.0792 15.1985 28.2459 15.5545 28.4339C15.9301 28.6338 16.2948 28.8541 16.6473 29.0938ZM11.5626 26.5883C11.9599 27.0886 12.2441 27.6725 12.3946 28.298L12.6637 27.8685C12.3753 26.8884 11.8464 25.9999 11.1271 25.2874C10.8498 24.9693 10.5918 24.6644 10.3256 24.401C10.5666 24.7298 10.7877 25.0735 10.9875 25.43C11.1997 25.8051 11.3917 26.1918 11.5626 26.5883ZM8.71331 19.1304C8.74022 19.5411 8.7436 19.9531 8.72346 20.3642C8.70422 20.797 8.66192 21.2285 8.59679 21.6566C8.66776 22.2979 8.60024 22.9472 8.39895 23.5589L8.85105 23.3465C9.12359 22.3615 9.14616 21.3219 8.91667 20.3255C8.8575 19.9045 8.7891 19.508 8.71145 19.1304H8.71331ZM9.48432 14.8435C9.23983 15.1968 8.97625 15.5359 8.6948 15.8592C8.41948 16.4387 8.02126 16.9482 7.52902 17.3508L8.02174 17.4226C8.7699 16.7425 9.33648 15.8793 9.66827 14.9143C9.83653 14.5253 9.99649 14.159 10.1222 13.7984C9.92957 14.1607 9.71593 14.5109 9.48246 14.8472L9.48432 14.8435ZM11.8344 11.0408C11.2972 11.3743 10.694 11.581 10.0686 11.646L10.4449 11.9811C11.4322 11.8264 12.3639 11.4145 13.15 10.785C13.4957 10.549 13.8267 10.33 14.1179 10.0958C13.7673 10.2944 13.4048 10.4704 13.0325 10.6226C12.6403 10.7856 12.2397 10.9268 11.8325 11.0455L11.8344 11.0408ZM17.0115 8.72886C16.3832 8.71008 15.7668 8.54885 15.2069 8.25684L15.3465 8.74679C16.2566 9.16666 17.2579 9.33778 18.2522 9.24336C18.6673 9.24997 19.063 9.23014 19.43 9.20654C19.0301 9.17744 18.6324 9.12258 18.2393 9.04228C17.823 8.96357 17.4116 8.8605 17.007 8.73358L17.0115 8.72886ZM22.5835 9.65213C22.0644 9.28737 21.6306 8.80993 21.3132 8.254L21.1727 8.74397C21.7193 9.59935 22.4701 10.2985 23.3545 10.7756C23.7058 11.0021 24.0396 11.2183 24.3659 11.3958C24.045 11.1494 23.739 10.8833 23.4498 10.599C23.1426 10.3017 22.8519 9.98713 22.5789 9.65686L22.5835 9.65213ZM26.0725 11.982C26.0815 13.0063 26.3463 14.0113 26.8417 14.902C27.0202 15.2871 27.1838 15.6572 27.3668 15.9839C27.2262 15.5988 27.1086 15.2053 27.0146 14.8057C26.9151 14.3844 26.8374 13.958 26.7816 13.5284C26.5366 12.9338 26.4229 12.2914 26.4488 11.6469L26.0725 11.982ZM27.4639 21.5141C27.5501 21.1125 27.6588 20.7163 27.7893 20.3274C27.9264 19.9176 28.0847 19.5155 28.2636 19.1228C28.3696 18.4866 28.6138 17.8828 28.9782 17.3556L28.4854 17.4282C27.951 18.2957 27.6439 19.2888 27.5933 20.3123C27.5388 20.7352 27.4944 21.1365 27.4639 21.5141ZM25.5437 25.4017C25.8754 25.1335 26.2215 24.8842 26.5801 24.6549C27.0053 24.1812 27.5282 23.8098 28.1111 23.5674L27.659 23.355C26.7536 23.7895 25.9722 24.4535 25.3893 25.2836C25.1212 25.6093 24.8651 25.9171 24.6497 26.2277C24.9321 25.9338 25.2319 25.6579 25.5474 25.4017H25.5437ZM24.1098 28.3018L23.8399 27.8722C22.8509 27.7363 21.8443 27.8621 20.9167 28.2376C20.52 28.3622 20.1428 28.4783 19.798 28.6152C20.1894 28.5284 20.5855 28.4653 20.9841 28.4264C21.4042 28.3857 21.826 28.3674 22.2479 28.3716C22.857 28.2072 23.4943 28.1833 24.1135 28.3018H24.1098Z" fill="url(#paint2_linear_2601_2051)"/>
<path d="M15.1064 7.897C15.5523 7.76023 16.0166 7.69651 16.482 7.7082C16.0121 7.59922 15.527 7.57589 15.0491 7.63928C14.5691 7.69782 14.1022 7.83823 13.6678 8.05467C13.367 8.21996 13.1029 8.4469 12.892 8.72127C12.681 8.99564 12.5278 9.31153 12.442 9.64916L12.711 10.0787C12.8815 9.52883 13.1939 9.03603 13.6154 8.65211C14.0369 8.2682 14.552 8.00734 15.1064 7.897ZM8.92428 14.5639C8.77895 14.0051 8.78312 13.4167 8.9363 12.8601C9.08948 12.3035 9.38607 11.7991 9.79517 11.3994C10.0977 11.0369 10.4539 10.7251 10.8509 10.4752C10.3984 10.6455 9.97852 10.8954 9.61026 11.2134C9.23792 11.53 8.91879 11.9066 8.66545 12.3284C8.49892 12.6339 8.39573 12.9712 8.36233 13.3193C8.32893 13.6673 8.36601 14.0187 8.47129 14.3515L8.92428 14.5639ZM7.16778 17.2931C7.2316 16.8197 7.36758 16.3594 7.57083 15.929C7.27919 16.3239 7.05706 16.7676 6.91442 17.2402C6.76886 17.713 6.70081 18.2071 6.71292 18.7026C6.73404 19.0506 6.82455 19.3905 6.97892 19.7016C7.13328 20.0126 7.34825 20.2882 7.61061 20.5114L8.10333 20.4396C7.68693 20.0479 7.38063 19.5496 7.21614 18.9964C7.05164 18.4432 7.03497 17.8551 7.16778 17.2931ZM8.06084 23.7126C7.86548 23.2787 7.73667 22.8167 7.679 22.3428C7.64317 22.8361 7.69068 23.3321 7.81951 23.8089C7.94478 24.2875 8.14656 24.7417 8.41673 25.1532C8.61771 25.4347 8.8736 25.6706 9.16827 25.8461C9.46295 26.0215 9.79007 26.1328 10.1289 26.1728L10.5042 25.8377C9.9474 25.7399 9.42668 25.4907 8.99685 25.1162C8.56702 24.7417 8.24401 24.2559 8.06175 23.7098L8.06084 23.7126ZM12.1914 28.6141C11.7986 28.3568 11.4477 28.0382 11.1514 27.6701C11.3791 28.1056 11.6795 28.4972 12.0389 28.8275C12.3962 29.1604 12.8043 29.4314 13.2472 29.6299C13.5653 29.7551 13.9053 29.8113 14.2457 29.795C14.5862 29.7788 14.9195 29.6904 15.2247 29.5355L15.3643 29.0455C14.8466 29.2732 14.2782 29.353 13.7195 29.2765C13.1609 29.2001 12.6331 28.9701 12.1924 28.6113L12.1914 28.6141ZM18.246 30.4465C17.7804 30.446 17.3177 30.3725 16.874 30.2284C17.2955 30.468 17.7543 30.6315 18.2303 30.7118C18.7066 30.7919 19.1925 30.7919 19.6688 30.7118C20.0026 30.6409 20.3184 30.5003 20.5965 30.2989C20.8746 30.0974 21.1089 29.8395 21.2848 29.5411L21.1443 29.0503C20.828 29.5264 20.3921 29.9069 19.8824 30.152C19.3727 30.3972 18.8078 30.4979 18.2469 30.4437L18.246 30.4465ZM26.0044 25.8367C25.9909 26.4142 25.826 26.9774 25.5268 27.4675C25.2276 27.9577 24.8051 28.3569 24.3033 28.6235C23.9133 28.8839 23.486 29.0807 23.0367 29.207C23.5184 29.1707 23.9901 29.049 24.4308 28.8473C24.8749 28.6511 25.2842 28.3813 25.6419 28.0486C25.8855 27.8026 26.0769 27.508 26.2041 27.1832C26.3313 26.8583 26.3917 26.5102 26.3815 26.1605L26.0044 25.8367ZM28.408 20.4405C28.7016 20.935 28.8598 21.501 28.866 22.0792C28.8722 22.6575 28.7261 23.2268 28.4432 23.7277C28.2523 24.1631 27.9955 24.5651 27.6823 24.9191C28.0708 24.6255 28.4056 24.2644 28.6715 23.8523C28.9423 23.4408 29.145 22.9867 29.2715 22.508C29.3469 22.1671 29.3529 21.814 29.2893 21.4705C29.2257 21.1271 29.0938 20.8007 28.9017 20.5114L28.408 20.4405ZM29.3991 15.8279C29.2843 15.4995 29.1041 15.1989 28.8699 14.9451C28.6357 14.6913 28.3525 14.4898 28.0382 14.3533L27.5862 14.5658C28.0933 14.8207 28.5239 15.2103 28.833 15.6936C29.142 16.1769 29.3181 16.7362 29.3427 17.3129C29.4105 17.786 29.4055 18.267 29.3279 18.7384C29.5008 18.276 29.5931 17.7862 29.6006 17.2912C29.6132 16.7944 29.5445 16.2988 29.3972 15.8251L29.3991 15.8279ZM26.927 11.2503C26.6751 10.8277 26.3572 10.4501 25.9858 10.1325C25.7159 9.92037 25.4058 9.76771 25.0751 9.68419C24.7445 9.60067 24.4004 9.58809 24.0647 9.64727L23.7957 10.0768C24.3561 10.0094 24.9239 10.0978 25.4391 10.3328C25.9544 10.5678 26.3978 10.9405 26.7227 11.4117C27.0287 11.7717 27.2782 12.1781 27.4623 12.6163C27.3624 12.1328 27.1813 11.6706 26.927 11.2503ZM21.4161 7.90173C21.8641 8.03334 22.2885 8.23732 22.6734 8.50592C22.3356 8.15455 21.9397 7.86692 21.5039 7.65628C21.0693 7.44035 20.6025 7.29996 20.1227 7.2409C19.7832 7.2149 19.442 7.26012 19.1202 7.37377C18.7984 7.48742 18.5028 7.66708 18.2515 7.90173V8.41246C18.6854 8.0439 19.2088 7.80188 19.7663 7.71199C20.3238 7.62209 20.8948 7.68764 21.4188 7.90173H21.4161ZM14.4592 27.9391C13.8742 27.7672 13.2568 27.7442 12.6611 27.8721L12.3921 28.3016C13.4342 28.174 14.4911 28.3072 15.4716 28.6896C15.8895 28.8218 16.2869 28.9445 16.6484 29.0937C16.2959 28.8555 15.9312 28.6368 15.5557 28.4385C15.2009 28.2506 14.8357 28.0839 14.462 27.9391H14.4592ZM10.985 25.4317C10.7851 25.0752 10.5641 24.7316 10.323 24.4027C9.9215 23.9338 9.41368 23.5724 8.84388 23.3501L8.39179 23.5625C9.33717 24.0335 10.1568 24.7312 10.7807 25.596C11.0645 25.9377 11.3298 26.2653 11.5573 26.591C11.3882 26.1943 11.198 25.8073 10.9878 25.4317H10.985ZM8.46113 20.3924C8.52492 20.8361 8.56652 21.2609 8.59148 21.6603C8.65658 21.2321 8.69888 20.8007 8.71816 20.3679C8.73828 19.957 8.73484 19.5454 8.70794 19.1349C8.61797 18.5162 8.38018 17.9297 8.01553 17.4271L7.52276 17.3554C8.07308 18.2745 8.3961 19.3164 8.4639 20.3915L8.46113 20.3924ZM8.6904 15.861C8.97188 15.5377 9.23547 15.1985 9.47992 14.8452C9.71253 14.5103 9.92554 14.1617 10.1178 13.8011C10.3673 13.2305 10.4774 12.6065 10.4386 11.9828L10.0633 11.6477C10.0386 12.7245 9.75989 13.7793 9.25066 14.7225C9.06668 15.1303 8.891 15.5164 8.69316 15.8629L8.6904 15.861ZM14.1125 10.0966C14.6228 9.7547 15.0439 9.29104 15.3394 8.7457L15.1998 8.25574C14.6123 9.14673 13.8233 9.88016 12.8996 10.394C12.5298 10.6338 12.1766 10.8575 11.8309 11.0426C12.2386 10.9251 12.6399 10.7852 13.0328 10.6234C13.404 10.4717 13.7655 10.2964 14.1153 10.0985L14.1125 10.0966ZM19.4229 9.2064C20.0322 9.20079 20.6309 9.0426 21.1664 8.7457L21.306 8.25574C20.3429 8.6828 19.2917 8.86145 18.2451 8.77592C17.8087 8.78442 17.3917 8.75893 17.0044 8.73061C17.4075 8.85797 17.8174 8.96166 18.2321 9.04119C18.626 9.12351 19.0247 9.18027 19.4256 9.21113L19.4229 9.2064ZM23.4426 10.6027C23.7319 10.887 24.0378 11.153 24.3587 11.3994C24.8721 11.7341 25.4582 11.9347 26.0654 11.9838L26.4407 11.6487C25.4049 11.4707 24.4272 11.0375 23.5923 10.3865C23.2281 10.1391 22.8814 9.90406 22.5754 9.65483C22.8482 9.98766 23.1389 10.3047 23.4463 10.6045L23.4426 10.6027ZM28.4875 17.4262L28.9803 17.3545C28.2037 16.6279 27.6094 15.7213 27.2478 14.7111C27.0684 14.3024 26.9048 13.9096 26.7744 13.533C26.8302 13.9626 26.908 14.3889 27.0074 14.8103C27.1014 15.2099 27.2191 15.6033 27.3597 15.9884C27.6164 16.5539 28.0045 17.0469 28.4903 17.4243L28.4875 17.4262ZM28.0447 20.3754C28.1048 19.9317 28.1796 19.5107 28.2647 19.1208C28.0859 19.5135 27.9275 19.9156 27.7904 20.3254C27.6599 20.7143 27.5512 21.1105 27.465 21.512C27.3835 22.1314 27.4499 22.7616 27.6583 23.3492L28.1103 23.5616C27.8395 22.5207 27.818 21.4285 28.0475 20.3773L28.0447 20.3754ZM24.6472 26.2181C24.2512 26.6938 23.9748 27.2608 23.8419 27.8702L24.111 28.2997C24.4289 27.274 24.9848 26.3418 25.7316 25.5828C26.021 25.2467 26.2983 24.9285 26.5812 24.6529C26.2226 24.8821 25.8766 25.1314 25.5449 25.3996C25.2304 25.6542 24.9316 25.9281 24.6499 26.22L24.6472 26.2181ZM19.8001 28.6131C19.2149 28.7911 18.6825 29.1156 18.2515 29.5572V30.0679C19.0584 29.3803 20.0179 28.9048 21.0463 28.683C21.466 28.5584 21.8681 28.4508 22.2481 28.3705C21.8262 28.3663 21.4043 28.3846 20.9843 28.4253C20.5872 28.4644 20.1927 28.5275 19.8028 28.6141L19.8001 28.6131Z" fill="url(#paint3_linear_2601_2051)"/>
<path d="M18.2558 10.1947C16.537 10.1947 14.8569 10.7152 13.4278 11.6902C11.9986 12.6653 10.8848 14.0513 10.2271 15.6728C9.56932 17.2943 9.39722 19.0786 9.73254 20.8C10.0679 22.5214 10.8955 24.1026 12.1109 25.3436C13.3262 26.5847 14.8746 27.4299 16.5604 27.7723C18.2461 28.1147 19.9935 27.9389 21.5814 27.2673C23.1693 26.5956 24.5266 25.4582 25.4815 23.9989C26.4363 22.5396 26.9461 20.8238 26.9461 19.0687C26.9461 16.7152 26.0304 14.458 24.4007 12.7938C22.771 11.1296 20.5606 10.1947 18.2558 10.1947ZM18.2558 24.9917C17.1093 24.9917 15.9886 24.6445 15.0354 23.9941C14.0822 23.3437 13.3392 22.4193 12.9004 21.3377C12.4617 20.2561 12.3469 19.0659 12.5706 17.9177C12.7942 16.7695 13.3463 15.7148 14.157 14.887C14.9677 14.0592 16.0005 13.4955 17.1249 13.2671C18.2494 13.0387 19.4148 13.1559 20.474 13.6039C21.5332 14.0519 22.4385 14.8106 23.0755 15.784C23.7124 16.7574 24.0524 17.9018 24.0524 19.0725C24.0525 19.8499 23.9027 20.6197 23.6114 21.338C23.3202 22.0562 22.8932 22.7089 22.3549 23.2586C21.8166 23.8084 21.1776 24.2444 20.4743 24.542C19.7709 24.8395 19.0171 24.9926 18.2558 24.9926V24.9917Z" fill="url(#paint4_linear_2601_2051)"/>
<path d="M18.2531 10.343C16.5621 10.343 14.9091 10.855 13.5031 11.8144C12.0971 12.7737 11.0013 14.1372 10.3542 15.7325C9.70706 17.3278 9.53777 19.0832 9.86766 20.7768C10.1976 22.4703 11.0118 24.026 12.2075 25.247C13.4032 26.468 14.9267 27.2995 16.5851 27.6363C18.2436 27.9732 19.9626 27.8003 21.5249 27.1395C23.0872 26.4787 24.4225 25.3597 25.3619 23.924C26.3014 22.4882 26.8028 20.8003 26.8028 19.0736C26.8028 17.927 26.5817 16.7918 26.152 15.7325C25.7223 14.6733 25.0926 13.7108 24.2987 12.9001C23.5048 12.0894 22.5622 11.4463 21.5249 11.0076C20.4876 10.5688 19.3759 10.343 18.2531 10.343ZM18.2531 24.8445C17.1354 24.8445 16.0427 24.506 15.1133 23.8719C14.1839 23.2378 13.4596 22.3365 13.0318 21.282C12.6041 20.2275 12.4922 19.0671 12.7103 17.9477C12.9283 16.8282 13.4666 15.7999 14.2569 14.9929C15.0473 14.1858 16.0543 13.6362 17.1505 13.4135C18.2468 13.1908 19.3831 13.3051 20.4158 13.7419C21.4484 14.1787 22.3311 14.9183 22.9521 15.8674C23.5731 16.8164 23.9045 17.9322 23.9045 19.0736C23.9045 20.6041 23.3091 22.072 22.2493 23.1542C21.1894 24.2365 19.752 24.8445 18.2531 24.8445Z" fill="url(#paint5_linear_2601_2051)"/>
<path d="M18.2531 10.343C16.5621 10.343 14.9091 10.855 13.5031 11.8144C12.0971 12.7737 11.0013 14.1372 10.3542 15.7325C9.70706 17.3278 9.53777 19.0832 9.86766 20.7768C10.1976 22.4703 11.0118 24.026 12.2075 25.247C13.4032 26.468 14.9267 27.2995 16.5851 27.6363C18.2436 27.9732 19.9626 27.8003 21.5249 27.1395C23.0872 26.4787 24.4225 25.3597 25.3619 23.924C26.3014 22.4882 26.8028 20.8003 26.8028 19.0736C26.8028 17.927 26.5817 16.7918 26.152 15.7325C25.7223 14.6733 25.0926 13.7108 24.2987 12.9001C23.5048 12.0894 22.5622 11.4463 21.5249 11.0076C20.4876 10.5688 19.3759 10.343 18.2531 10.343ZM18.2531 24.9918C17.1067 24.9918 15.9859 24.6446 15.0327 23.9942C14.0794 23.3438 13.3365 22.4194 12.8978 21.3378C12.459 20.2562 12.3442 19.066 12.5679 17.9178C12.7916 16.7696 13.3436 15.7149 14.1543 14.8871C14.9649 14.0593 15.9978 13.4956 17.1222 13.2672C18.2466 13.0388 19.4122 13.156 20.4714 13.604C21.5305 14.052 22.4359 14.8107 23.0728 15.7841C23.7097 16.7575 24.0497 17.9019 24.0497 19.0726C24.0497 20.6425 23.439 22.148 22.3519 23.2581C21.2648 24.3682 19.7905 24.9918 18.2531 24.9918Z" fill="url(#paint6_linear_2601_2051)"/>
<defs>
<linearGradient id="paint0_linear_2601_2051" x1="4.99487" y1="19.0725" x2="31.5186" y2="19.0725" gradientUnits="userSpaceOnUse">
<stop offset="0.006" stop-color="#541513"/>
<stop offset="0.084" stop-color="#8D5027"/>
<stop offset="0.382" stop-color="#CB9552"/>
<stop offset="0.562" stop-color="#FFF2DB"/>
<stop offset="0.803" stop-color="#D7B18A"/>
<stop offset="0.915" stop-color="#AB6C2E"/>
<stop offset="0.955" stop-color="#9C530D"/>
</linearGradient>
<linearGradient id="paint1_linear_2601_2051" x1="27.1656" y1="28.1699" x2="8.97511" y2="10.3561" gradientUnits="userSpaceOnUse">
<stop offset="0.006" stop-color="#541513"/>
<stop offset="0.084" stop-color="#8D5027"/>
<stop offset="0.382" stop-color="#CB9552"/>
<stop offset="0.562" stop-color="#FFF2DB"/>
<stop offset="0.803" stop-color="#D7B18A"/>
<stop offset="0.915" stop-color="#AB6C2E"/>
<stop offset="0.955" stop-color="#9C530D"/>
</linearGradient>
<linearGradient id="paint2_linear_2601_2051" x1="18.2527" y1="30.9111" x2="18.2527" y2="7.23633" gradientUnits="userSpaceOnUse">
<stop offset="0.006" stop-color="#EBC27D"/>
<stop offset="0.185" stop-color="#DFB87C"/>
<stop offset="0.596" stop-color="#BF8329"/>
<stop offset="0.871" stop-color="#EBBF81"/>
<stop offset="1" stop-color="#EEDCC3"/>
</linearGradient>
<linearGradient id="paint3_linear_2601_2051" x1="18.1568" y1="7.23376" x2="18.1568" y2="30.7718" gradientUnits="userSpaceOnUse">
<stop offset="0.006" stop-color="#EBC27D"/>
<stop offset="0.185" stop-color="#DFB87C"/>
<stop offset="0.596" stop-color="#BF8329"/>
<stop offset="0.871" stop-color="#EBBF81"/>
<stop offset="1" stop-color="#EEDCC3"/>
</linearGradient>
<linearGradient id="paint4_linear_2601_2051" x1="10.73" y1="23.5058" x2="25.9374" y2="14.9074" gradientUnits="userSpaceOnUse">
<stop offset="0.006" stop-color="#541513"/>
<stop offset="0.084" stop-color="#8D5027"/>
<stop offset="0.382" stop-color="#CB9552"/>
<stop offset="0.562" stop-color="#FFF2DB"/>
<stop offset="0.803" stop-color="#D7B18A"/>
<stop offset="0.915" stop-color="#AB6C2E"/>
<stop offset="0.955" stop-color="#9C530D"/>
</linearGradient>
<linearGradient id="paint5_linear_2601_2051" x1="10.849" y1="14.7083" x2="25.8105" y2="23.1676" gradientUnits="userSpaceOnUse">
<stop offset="0.006" stop-color="#541513"/>
<stop offset="0.084" stop-color="#8D5027"/>
<stop offset="0.382" stop-color="#CB9552"/>
<stop offset="0.562" stop-color="#FFF2DB"/>
<stop offset="0.803" stop-color="#D7B18A"/>
<stop offset="0.915" stop-color="#AB6C2E"/>
<stop offset="0.955" stop-color="#9C530D"/>
</linearGradient>
<linearGradient id="paint6_linear_2601_2051" x1="9.70337" y1="19.0736" x2="26.8028" y2="19.0736" gradientUnits="userSpaceOnUse">
<stop offset="0.006" stop-color="#541513"/>
<stop offset="0.084" stop-color="#8D5027"/>
<stop offset="0.382" stop-color="#CB9552"/>
<stop offset="0.562" stop-color="#FFF2DB"/>
<stop offset="0.803" stop-color="#D7B18A"/>
<stop offset="0.915" stop-color="#AB6C2E"/>
<stop offset="0.955" stop-color="#9C530D"/>
</linearGradient>
</defs>
</svg>
