<svg width="22" height="22" viewBox="0 0 22 22" fill="none" xmlns="http://www.w3.org/2000/svg">
<path fill-rule="evenodd" clip-rule="evenodd" d="M0.687445 11.6891V20.6249C0.687445 20.9895 0.8323 21.3391 1.09014 21.5969C1.34798 21.8547 1.69769 21.9996 2.06233 21.9996H10.3121V11.6891H0.687445ZM11.6874 11.6891V22H19.9372C20.3019 22 20.6516 21.8552 20.9094 21.5974C21.1673 21.3396 21.3121 20.9899 21.3121 20.6253V11.6891H11.6874ZM20.6247 5.50272H15.2074C15.6565 5.47809 16.0945 5.35422 16.4899 5.14002C17.1207 4.77687 17.5817 4.17849 17.772 3.47604C17.9622 2.77359 17.8661 2.02438 17.5048 1.39264C17.1435 0.760892 16.5464 0.298155 15.8444 0.105855C15.1424 -0.0864455 14.3928 0.007381 13.7598 0.366766C13.3362 0.599802 12.9862 0.946699 12.7495 1.36823L10.9991 4.33938L9.24879 1.36823C9.01204 0.946699 8.66205 0.599802 8.23841 0.366766C7.92487 0.186257 7.57879 0.0693843 7.22 0.0228468C6.86122 -0.0236908 6.49677 0.00102218 6.14755 0.0955674C5.79833 0.190113 5.4712 0.352632 5.18492 0.573813C4.89863 0.794993 4.65882 1.07049 4.47921 1.3845C4.29961 1.69852 4.18375 2.04489 4.13827 2.40375C4.09279 2.76262 4.1186 3.12693 4.2142 3.47581C4.3098 3.82469 4.47332 4.15128 4.69539 4.43686C4.91746 4.72243 5.19371 4.96139 5.50831 5.14002C5.90378 5.35419 6.3418 5.47806 6.79087 5.50272H1.37358C1.00909 5.50307 0.659647 5.64811 0.402076 5.90597C0.144506 6.16383 -0.000116103 6.51339 6.99357e-08 6.87782V10.3149H10.3126V5.50797H11.6874V10.3145H22V6.87739C21.9999 6.69686 21.9643 6.51812 21.8952 6.35136C21.826 6.1846 21.7247 6.03309 21.597 5.90548C21.4693 5.77787 21.3177 5.67666 21.1509 5.60763C20.984 5.5386 20.8052 5.50267 20.6247 5.50272ZM5.6816 2.07088C5.80242 1.86058 5.97654 1.68583 6.18642 1.56424C6.39629 1.44265 6.63452 1.37852 6.87708 1.37829C7.11584 1.37793 7.35044 1.44072 7.55708 1.5603C7.76441 1.67032 7.93598 1.8373 8.05156 2.04156L8.05856 2.05381L8.06556 2.06607L9.28248 4.13287H6.96766C6.69821 4.13264 6.43264 4.06862 6.1927 3.94605C5.87676 3.76476 5.64557 3.46565 5.54977 3.11426C5.45397 2.76286 5.50138 2.38739 5.6816 2.07088ZM13.934 2.06607L13.941 2.05381L13.948 2.04156C14.0635 1.83726 14.2351 1.67026 14.4425 1.5603C14.6491 1.44074 14.8837 1.37795 15.1225 1.37829C15.4259 1.3778 15.7209 1.47765 15.9616 1.66227C16.2023 1.8469 16.3752 2.10594 16.4533 2.39904C16.5314 2.69214 16.5103 3.00284 16.3934 3.28273C16.2765 3.56262 16.0703 3.796 15.8069 3.94649C15.567 4.06899 15.3016 4.13301 15.0323 4.13331H12.7175L13.934 2.06607ZM16.486 5.81336C16.5042 5.81336 16.5217 5.80612 16.5346 5.79324C16.5475 5.78036 16.5547 5.76288 16.5547 5.74467C16.5547 5.72645 16.5475 5.70898 16.5346 5.6961C16.5217 5.68322 16.5042 5.67598 16.486 5.67598C16.4678 5.67598 16.4503 5.68322 16.4374 5.6961C16.4245 5.70898 16.4173 5.72645 16.4173 5.74467C16.4173 5.76288 16.4245 5.78036 16.4374 5.79324C16.4503 5.80612 16.4678 5.81336 16.486 5.81336Z" fill="#FFB400"/>
</svg>
