<svg width="25" height="28" viewBox="0 0 25 28" fill="none" xmlns="http://www.w3.org/2000/svg">
<path d="M8.71021 11.4846L12.0033 24.0408L15.2964 11.4846H8.71021Z" fill="#4BB4E6"/>
<path d="M12.0035 5.78601L9.17139 10.1434H14.8355L12.0035 5.78601Z" fill="#4BB4E6"/>
<path d="M7.32345 11.4846H0.899902L10.7941 24.7184L7.32345 11.4846Z" fill="#085EBD"/>
<path d="M16.6831 11.4846L13.2115 24.7184L23.1057 11.4846H16.6831Z" fill="#085EBD"/>
<path d="M4.12896 5.34912L0.634155 10.1396H7.57449L10.6854 5.34912H4.12896Z" fill="#085EBD"/>
<path d="M19.8779 5.34912H13.3214L16.4342 10.1396H23.3727L19.8779 5.34912Z" fill="#085EBD"/>
<path d="M24.8681 5.68833C19.8146 6.03409 19.5311 6.31758 19.1826 11.372C18.8349 6.31758 18.5505 6.03316 13.4979 5.68833C18.5505 5.33606 18.8349 5.05444 19.1826 0C19.5357 5.05444 19.8146 5.33606 24.8681 5.68833Z" fill="white"/>
<path d="M14.4006 23.2915C10.9718 23.5257 10.7756 23.7181 10.5423 27.1478C10.3063 23.7181 10.1139 23.5229 6.68506 23.2915C10.1129 23.0526 10.31 22.8611 10.5423 19.4314C10.7831 22.8611 10.9755 23.0526 14.4006 23.2915Z" fill="white"/>
</svg>
