<svg width="22" height="27" viewBox="0 0 22 27" fill="none" xmlns="http://www.w3.org/2000/svg">
<path d="M1.3645 13.2088V3.01482C1.49626 2.87664 1.60335 2.68418 1.76423 2.61016C2.13663 2.45082 2.5181 2.31356 2.90665 2.19909C4.82045 1.59967 6.79813 1.22748 8.7989 1.09021C10.7547 0.937666 12.7207 0.978661 14.6684 1.2126C16.582 1.42771 18.4622 1.87515 20.2676 2.54502C20.3856 2.57729 20.4945 2.63633 20.586 2.71755C20.6775 2.79877 20.7491 2.89999 20.7951 3.01334V13.2073C20.7808 13.306 20.7596 13.4087 20.7536 13.5098C20.7001 14.4471 20.5359 15.3747 20.2646 16.2734C19.3597 19.4085 17.275 22.071 14.4483 23.7013C13.3883 24.3281 12.2992 24.9064 11.2234 25.507H10.9382C10.0137 24.9944 9.08923 24.4819 8.16476 23.9693C7.19055 23.4423 6.28591 22.7957 5.4718 22.0447C3.32264 20.0639 1.92397 17.4013 1.51255 14.5077C1.44544 14.0773 1.41385 13.6421 1.3645 13.2088Z" stroke="#67B3E1" stroke-miterlimit="10"/>
<path d="M1.4469 12.1385C1.48011 12.07 1.5317 12.012 1.59593 11.9712C1.66016 11.9303 1.73448 11.9081 1.8106 11.907C2.58686 11.8083 3.36213 11.6978 4.13789 11.5917C4.33173 11.5284 4.54264 11.5433 4.72558 11.6334C4.90852 11.7235 5.04899 11.8816 5.11697 12.0738L6.35069 11.2842C6.64678 11.0962 6.94288 10.9116 7.23354 10.7202C7.64587 10.4431 8.13987 10.3139 8.63504 10.3535C9.26029 10.3999 9.88505 10.4522 10.5103 10.5016C10.6583 10.5134 10.7941 10.5741 10.797 10.7256C10.7868 10.8339 10.736 10.9344 10.6549 11.0069C10.6055 11.0518 10.4911 11.0419 10.4081 11.036C9.80116 10.9906 9.19515 10.9373 8.58816 10.8914C8.24785 10.859 7.90635 10.9397 7.61648 11.1209C6.83973 11.6117 6.0666 12.1072 5.29709 12.6073C5.26893 12.6291 5.24614 12.6571 5.23049 12.6891C5.21483 12.7211 5.20672 12.7562 5.20678 12.7919C5.35483 13.9229 5.51127 15.053 5.66672 16.1831C5.67328 16.2131 5.68152 16.2428 5.69139 16.2719C6.06003 16.1594 6.43162 16.0701 6.78249 15.9334C7.38501 15.7068 8.04504 15.6832 8.66219 15.8663C10.1806 16.2611 11.707 16.6292 13.2279 17.0141C13.3667 17.0546 13.5129 17.0634 13.6555 17.0398C13.7981 17.0162 13.9337 16.9609 14.0521 16.8779C15.7217 15.7508 17.3923 14.6253 19.0639 13.5015C19.1437 13.4629 19.2083 13.3989 19.2477 13.3196C19.2871 13.2403 19.299 13.1501 19.2816 13.0633C19.2677 12.9877 19.229 12.9189 19.1716 12.8678C19.1142 12.8166 19.0414 12.7861 18.9647 12.781C18.8805 12.7754 18.7961 12.7893 18.718 12.8215C17.4089 13.3219 16.1012 13.8249 14.7948 14.3305C14.6014 14.4118 14.3838 14.4141 14.1888 14.337C13.2018 13.9698 12.2099 13.6174 11.2254 13.2459C11.0922 13.1953 10.9808 13.1 10.91 12.9764C10.7906 12.7297 10.9673 12.4775 11.2639 12.4267C12.0233 12.2969 12.7833 12.1715 13.5428 12.0417C13.6523 12.0252 13.7601 11.9991 13.865 11.9638C13.9426 11.9443 14.0104 11.8972 14.0557 11.8312C14.101 11.7653 14.1206 11.6851 14.1109 11.6057C14.1012 11.5263 14.0628 11.4532 14.003 11.4001C13.9432 11.347 13.8661 11.3175 13.7861 11.3173C13.1939 11.265 12.5978 11.2186 12.0036 11.1693C11.9542 11.1653 11.9049 11.1614 11.8555 11.1559C11.6522 11.1342 11.5368 11.0276 11.5471 10.8712C11.558 10.7024 11.6952 10.6037 11.9039 10.62C12.2898 10.6501 12.6757 10.6822 13.0621 10.7138C13.3133 10.734 13.5645 10.7533 13.8157 10.7755C14.0304 10.7832 14.235 10.8686 14.3916 11.0157C14.5482 11.1627 14.6462 11.3616 14.6674 11.5754C14.6862 11.7843 14.6277 11.9928 14.503 12.1614C14.3783 12.33 14.1961 12.4471 13.9909 12.4903C13.4273 12.6196 12.8524 12.7015 12.2824 12.8012C12.1457 12.8249 12.007 12.8397 11.8694 12.8585L11.8644 12.9078C12.0959 12.9932 12.3362 13.0613 12.5553 13.1689C12.6982 13.2414 12.8566 13.2784 13.0168 13.2765C13.1771 13.2746 13.3345 13.2339 13.4757 13.158C14.2583 12.8042 15.0622 12.4948 15.8538 12.1587C15.9456 12.115 16.0235 12.0467 16.0788 11.9613C16.3418 11.5601 16.5792 11.1431 16.8526 10.7493C16.9466 10.6128 17.0743 10.5028 17.2232 10.43C17.3721 10.3572 17.5372 10.324 17.7027 10.3337C17.8682 10.3433 18.0284 10.3954 18.1678 10.485C18.3073 10.5745 18.4213 10.6986 18.4989 10.845C18.5673 10.9731 18.6035 11.1159 18.6042 11.261C18.6049 11.4062 18.5701 11.5494 18.5028 11.678C18.3834 11.9277 18.2586 12.175 18.1159 12.4647C18.2961 12.4 18.4362 12.3487 18.5764 12.2993C18.7865 12.2189 19.0183 12.2156 19.2306 12.29C19.4429 12.3643 19.622 12.5115 19.7361 12.7055C19.848 12.9026 19.881 13.1348 19.8284 13.3553C19.7757 13.5758 19.6413 13.7681 19.4523 13.8933C18.8601 14.3059 18.2566 14.7046 17.6575 15.1083C16.6166 15.81 15.5751 16.5108 14.5332 17.2105C14.3358 17.3418 14.1207 17.4464 13.9134 17.5629L13.4737 17.6231C13.3498 17.5959 13.227 17.5737 13.1016 17.5417C12.0074 17.2693 10.9135 16.9964 9.81991 16.723C9.33234 16.6011 8.84379 16.4826 8.35771 16.3563C7.94586 16.244 7.50941 16.2612 7.1077 16.4057C6.66356 16.5626 6.20906 16.6899 5.7664 16.8276C5.77768 16.9301 5.76744 17.0338 5.73632 17.132C5.70521 17.2303 5.65391 17.321 5.58571 17.3983C5.51751 17.4756 5.43392 17.5378 5.34028 17.5809C5.24665 17.6241 5.14504 17.6472 5.04196 17.6487C4.24251 17.7583 3.44207 17.8644 2.64312 17.9799C2.56948 17.999 2.49198 17.9974 2.41918 17.9753C2.34639 17.9532 2.28111 17.9114 2.23056 17.8545L2.20638 17.6759C2.23693 17.6061 2.28702 17.5467 2.35059 17.5048C2.41415 17.4628 2.48849 17.4402 2.56465 17.4395C3.36459 17.3364 4.16355 17.2239 4.963 17.1138C5.19346 17.0822 5.22455 17.0432 5.19395 16.8177C4.99031 15.3261 4.78617 13.8346 4.58154 12.3433C4.55094 12.1187 4.51146 12.0901 4.28002 12.1217C3.48057 12.2303 2.68111 12.3368 1.88265 12.4523C1.80914 12.4722 1.73145 12.4704 1.65895 12.4471C1.58645 12.4238 1.52224 12.38 1.47404 12.3211L1.4469 12.1385ZM13.7787 13.6066C14.0047 13.69 14.1779 13.7645 14.3585 13.8163C14.4443 13.8418 14.5358 13.8408 14.6211 13.8134C15.4942 13.4844 16.365 13.149 17.2336 12.8071C17.2991 12.7801 17.3538 12.732 17.389 12.6705C17.5963 12.2673 17.8021 11.8631 17.9911 11.4515C18.033 11.3476 18.0404 11.2329 18.0123 11.1243C17.9916 11.0532 17.9487 10.9905 17.89 10.9454C17.8313 10.9002 17.7597 10.8749 17.6856 10.8732C17.6057 10.863 17.5246 10.8769 17.4527 10.9131C17.3808 10.9493 17.3213 11.0062 17.2819 11.0765C17.049 11.4456 16.8082 11.8103 16.5911 12.1873C16.4513 12.4252 16.2325 12.6065 15.9727 12.6996C15.2547 12.9868 14.5436 13.2878 13.7787 13.6066Z" fill="#1FAAED"/>
<path d="M17.8499 6.70559C17.834 6.74962 17.8051 6.78777 17.7671 6.81501C17.729 6.84224 17.6835 6.85726 17.6367 6.85808C17.4033 6.88522 17.1709 6.92174 16.9375 6.95184C16.8072 6.96862 16.7233 6.9168 16.7065 6.81564C16.6897 6.71447 16.7608 6.63008 16.8936 6.61084C17.1299 6.57679 17.3668 6.53682 17.6047 6.51807C17.6851 6.52828 17.7629 6.55338 17.8341 6.59209L17.8499 6.70559Z" fill="#1FAAED"/>
<path d="M13.4846 3.38C13.5275 3.40114 13.5639 3.43348 13.59 3.47361C13.616 3.51374 13.6308 3.56017 13.6326 3.60799C13.6578 3.83154 13.6953 4.05214 13.7214 4.27766C13.7397 4.43706 13.6055 4.54957 13.4781 4.47801C13.4235 4.43983 13.3861 4.38168 13.374 4.31615C13.334 4.09111 13.3118 3.86214 13.2753 3.63612C13.2638 3.59134 13.2666 3.54407 13.2833 3.50096C13.3 3.45785 13.3298 3.42107 13.3686 3.3958L13.4846 3.38Z" fill="#1FAAED"/>
<path d="M15.5394 6.98441C15.2986 6.89558 15.0499 6.80726 14.8041 6.71201C14.7813 6.70621 14.7601 6.69564 14.7417 6.68099C14.7233 6.66634 14.7082 6.64796 14.6975 6.62705C14.6868 6.60615 14.6806 6.5832 14.6794 6.55973C14.6782 6.53626 14.682 6.51281 14.6906 6.49092C14.6981 6.46624 14.7111 6.4436 14.7287 6.4247C14.7463 6.40581 14.7679 6.39117 14.792 6.3819C14.8161 6.37262 14.8419 6.36895 14.8676 6.37117C14.8933 6.37338 14.9182 6.38143 14.9403 6.3947C15.224 6.53807 15.534 6.62203 15.8513 6.64144C15.9184 6.64582 15.9819 6.67348 16.0307 6.71966C16.0796 6.76583 16.1109 6.82762 16.119 6.89436C16.1272 6.9611 16.1119 7.02861 16.0756 7.08523C16.0393 7.14185 15.9844 7.18405 15.9204 7.20451C15.5706 7.32372 15.2567 7.52948 15.0079 7.80262C14.7053 8.13799 14.5236 8.56499 14.4917 9.01561C14.4928 9.06682 14.4806 9.11745 14.4563 9.16253C14.4319 9.20762 14.3963 9.24562 14.3529 9.27282C14.3095 9.30002 14.2598 9.3155 14.2086 9.31773C14.1574 9.31996 14.1065 9.30886 14.0609 9.28554C13.9957 9.25232 13.9435 9.19809 13.9129 9.13158C13.7759 8.73546 13.5222 8.39006 13.1852 8.14087C12.8482 7.89168 12.4437 7.75036 12.0248 7.7355C11.9761 7.73439 11.9284 7.72057 11.8867 7.6954C11.8449 7.67022 11.8105 7.63458 11.7868 7.59199C11.763 7.54941 11.7508 7.50136 11.7514 7.45261C11.7519 7.40386 11.7652 7.3561 11.7899 7.31406C11.8351 7.24708 11.8997 7.19545 11.9749 7.16602C12.3622 7.03994 12.7029 6.80117 12.9537 6.48028C13.2044 6.1594 13.3537 5.771 13.3824 5.36479C13.3815 5.28993 13.409 5.21751 13.4594 5.16211C13.5097 5.10672 13.5792 5.07246 13.6538 5.06623C13.8063 5.04896 13.9065 5.13137 13.9839 5.28632C14.0895 5.49754 14.2109 5.70233 14.3368 5.90318C14.4088 6.01718 14.4187 6.11193 14.3333 6.17855C14.2479 6.24517 14.1458 6.22789 14.0599 6.12179C13.9948 6.04086 13.9316 5.95746 13.8754 5.8711C13.8191 5.78474 13.7767 5.70036 13.7179 5.59673C13.6479 5.99265 13.4817 6.36535 13.2341 6.68214C12.9865 6.99893 12.665 7.25014 12.2977 7.41374C12.6961 7.47349 13.0737 7.63003 13.3976 7.86964C13.7214 8.10925 13.9815 8.42461 14.1552 8.78811C14.2218 8.39756 14.3827 8.02916 14.6239 7.71485C14.8651 7.40055 15.1794 7.14982 15.5394 6.98441Z" fill="#1FAAED"/>
<path d="M10.6273 7.81544C10.4985 7.83321 10.3702 7.85345 10.2409 7.86726C10.218 7.87217 10.1943 7.87233 10.1714 7.86772C10.1484 7.86311 10.1266 7.85383 10.1074 7.84046C10.0881 7.82709 10.0718 7.80991 10.0595 7.78999C10.0471 7.77007 10.039 7.74783 10.0356 7.72465C10.0323 7.70117 10.0339 7.67725 10.0401 7.65439C10.0464 7.63153 10.0573 7.61019 10.0722 7.5917C10.087 7.5732 10.1055 7.55795 10.1264 7.54686C10.1474 7.53578 10.1704 7.52911 10.194 7.52725C10.4507 7.4881 10.7081 7.45289 10.9663 7.42164C10.9894 7.41689 11.0132 7.41691 11.0363 7.4217C11.0594 7.42649 11.0812 7.43596 11.1005 7.4495C11.1197 7.46304 11.136 7.48039 11.1484 7.50046C11.1607 7.52054 11.1688 7.54291 11.1721 7.56623C11.186 7.66493 11.1228 7.74291 11.0019 7.76364C10.881 7.78436 10.7522 7.79817 10.6278 7.81544H10.6273Z" fill="#1FAAED"/>
<path d="M11.6645 10.3071C11.6152 10.2785 11.5422 10.2578 11.5165 10.2129C11.5015 10.186 11.4929 10.156 11.4915 10.1252C11.4902 10.0945 11.496 10.0638 11.5086 10.0357C11.6685 9.81266 11.8392 9.59652 12.0134 9.38383C12.027 9.36671 12.044 9.3526 12.0633 9.34239C12.0827 9.33217 12.1039 9.32609 12.1257 9.32451C12.1475 9.32293 12.1694 9.32589 12.19 9.33321C12.2106 9.34054 12.2295 9.35205 12.2454 9.36704C12.2629 9.37762 12.2781 9.39175 12.2899 9.4085C12.3017 9.42525 12.3099 9.44425 12.314 9.46434C12.3181 9.48443 12.318 9.50515 12.3136 9.52518C12.3093 9.54522 12.3008 9.56413 12.2888 9.58073C12.123 9.80477 11.9493 10.0249 11.7756 10.2405C11.7419 10.2679 11.7045 10.2904 11.6645 10.3071Z" fill="#1FAAED"/>
<path d="M11.6231 5.6377C11.565 5.62164 11.5087 5.5993 11.4554 5.57108C11.258 5.42896 11.0606 5.28288 10.8632 5.13532C10.8408 5.12355 10.8213 5.10689 10.8063 5.08656C10.7912 5.06623 10.7809 5.04277 10.7762 5.01792C10.7714 4.99308 10.7724 4.96748 10.7789 4.94304C10.7854 4.91859 10.7973 4.89593 10.8138 4.87674C10.8296 4.85791 10.8491 4.84246 10.871 4.83134C10.8929 4.82022 10.9169 4.81365 10.9414 4.81204C10.9659 4.81042 10.9905 4.8138 11.0137 4.82195C11.0369 4.8301 11.0582 4.84286 11.0764 4.85947C11.2777 5.00752 11.4815 5.14914 11.6735 5.30361C11.6975 5.32803 11.716 5.35732 11.7277 5.3895C11.7395 5.42168 11.7442 5.45599 11.7416 5.49015C11.7371 5.54246 11.6685 5.58588 11.6231 5.6377Z" fill="#1FAAED"/>
<path d="M16.4183 4.22332C16.3996 4.27978 16.3751 4.33419 16.3453 4.38568C16.1973 4.58308 16.0492 4.77306 15.8947 4.96454C15.8814 4.98507 15.8641 5.00274 15.8438 5.01655C15.8236 5.03035 15.8008 5.04001 15.7768 5.04497C15.7528 5.04992 15.7281 5.05007 15.704 5.04542C15.68 5.04076 15.6571 5.03139 15.6366 5.01783C15.6171 5.00361 15.6008 4.98544 15.5888 4.96448C15.5768 4.94353 15.5693 4.92029 15.5669 4.89625C15.5645 4.87222 15.5672 4.84795 15.5748 4.82502C15.5824 4.80209 15.5947 4.78103 15.611 4.7632C15.764 4.56284 15.9155 4.36051 16.0803 4.17102C16.1063 4.14739 16.1369 4.12936 16.1702 4.11807C16.2035 4.10678 16.2387 4.10246 16.2737 4.10538C16.3251 4.10932 16.369 4.17792 16.4183 4.22332Z" fill="#1FAAED"/>
<path d="M17.2952 9.35469C17.2217 9.33144 17.1506 9.30104 17.083 9.2639C16.8274 9.08131 16.5747 8.89428 16.3241 8.70528C16.2967 8.68955 16.2729 8.66823 16.2543 8.6427C16.2357 8.61718 16.2227 8.58803 16.2162 8.55714C16.2096 8.52626 16.2097 8.49433 16.2163 8.46346C16.2229 8.43258 16.236 8.40346 16.2546 8.37798C16.2733 8.35249 16.2971 8.33123 16.3245 8.31557C16.3519 8.29991 16.3823 8.29021 16.4137 8.2871C16.4452 8.28399 16.4769 8.28754 16.5068 8.29752C16.5368 8.3075 16.5643 8.32369 16.5876 8.34502C16.8511 8.53403 17.1156 8.72253 17.3663 8.92684C17.3972 8.95848 17.421 8.9964 17.436 9.03804C17.451 9.07968 17.4568 9.12406 17.4531 9.16816C17.4457 9.23182 17.3554 9.28758 17.2952 9.35469Z" fill="#1FAAED"/>
<path d="M3.7381 12.1013L0.829224 12.5361C0.371256 12.6045 0.0554913 13.0313 0.123943 13.4893L0.640215 16.9433C0.708667 17.4013 1.13541 17.717 1.59338 17.6486L4.50226 17.2138C4.96022 17.1453 5.27599 16.7186 5.20754 16.2606L4.69126 12.8066C4.62281 12.3486 4.19607 12.0329 3.7381 12.1013Z" fill="white"/>
</svg>
