<svg width="24" height="28" viewBox="0 0 24 28" fill="none" xmlns="http://www.w3.org/2000/svg">
<path d="M22.7408 27.0747H0.677868C0.454329 27.0045 0.263843 26.8556 0.141761 26.6556C0.0196792 26.4556 -0.0257096 26.2181 0.0140134 25.9872C0.0323027 24.054 0.0199483 22.1208 0.0219255 20.188C0.00989204 20.071 0.024107 19.9528 0.0635451 19.842C0.102983 19.7311 0.166649 19.6305 0.249898 19.5474C0.333148 19.4643 0.433889 19.4008 0.544781 19.3615C0.655672 19.3223 0.77392 19.3083 0.890915 19.3205C1.11138 19.3205 1.33134 19.3205 1.55526 19.3205V17.7338C1.31997 17.7338 1.09803 17.7338 0.876086 17.7338C0.761258 17.7434 0.645722 17.7278 0.537562 17.688C0.429403 17.6483 0.331234 17.5854 0.249921 17.5038C0.168608 17.4221 0.106116 17.3237 0.0668186 17.2154C0.0275214 17.107 0.0123661 16.9915 0.0224158 16.8767C0.0204385 14.8665 0.0204385 12.8563 0.0224158 10.8461C0.0131435 10.7332 0.0284816 10.6196 0.0673692 10.5132C0.106257 10.4068 0.167767 10.3102 0.247658 10.2298C0.327549 10.1495 0.423919 10.0875 0.53011 10.0481C0.636302 10.0086 0.749786 9.99268 0.862736 10.0014C8.07764 9.99773 15.2925 9.99575 22.5074 9.99542C22.6135 9.98953 22.7196 10.0061 22.8189 10.0441C22.9181 10.0821 23.0081 10.1406 23.0831 10.2159C23.1581 10.2911 23.2164 10.3814 23.2541 10.4807C23.2918 10.58 23.308 10.6862 23.3018 10.7922C23.3038 12.8463 23.3038 14.9003 23.3018 16.9543C23.3061 17.0581 23.289 17.1617 23.2515 17.2586C23.214 17.3555 23.1569 17.4437 23.0838 17.5175C23.0107 17.5914 22.9231 17.6493 22.8266 17.6878C22.7301 17.7263 22.6266 17.7445 22.5228 17.7412C22.2756 17.7447 22.0285 17.7412 21.7734 17.7412V19.3166H22.4392C22.5557 19.3018 22.674 19.3138 22.7851 19.3517C22.8963 19.3895 22.9973 19.4522 23.0805 19.535C23.1637 19.6178 23.227 19.7185 23.2654 19.8295C23.3038 19.9404 23.3165 20.0586 23.3023 20.1752C23.3023 22.1168 23.2904 24.0589 23.3112 26.0006C23.3436 26.2171 23.3057 26.4383 23.203 26.6316C23.1003 26.825 22.9383 26.9803 22.7408 27.0747ZM4.67137 23.1904C4.67136 23.0358 4.62559 22.8846 4.53983 22.756C4.45406 22.6273 4.33214 22.5269 4.18941 22.4673C4.04668 22.4078 3.88953 22.3919 3.73776 22.4215C3.58598 22.4512 3.44637 22.525 3.33651 22.6339C3.22665 22.7427 3.15145 22.8816 3.12039 23.0331C3.08932 23.1846 3.10379 23.3419 3.16195 23.4852C3.22012 23.6284 3.31938 23.7513 3.44724 23.8383C3.5751 23.9253 3.72585 23.9725 3.88048 23.9739C3.98393 23.9745 4.08647 23.9547 4.18224 23.9156C4.27801 23.8765 4.36512 23.8189 4.43859 23.746C4.51205 23.6732 4.57043 23.5866 4.61037 23.4912C4.65032 23.3958 4.67105 23.2934 4.67137 23.1899V23.1904ZM7.00005 22.407C6.84537 22.4061 6.6939 22.4511 6.56472 22.5361C6.43555 22.6212 6.33444 22.7426 6.27416 22.8851C6.21387 23.0275 6.1971 23.1846 6.22596 23.3366C6.25481 23.4886 6.328 23.6286 6.43631 23.739C6.54461 23.8495 6.68318 23.9254 6.83456 23.9572C6.98593 23.989 7.14333 23.9753 7.28693 23.9178C7.43052 23.8603 7.55388 23.7615 7.64146 23.6341C7.72905 23.5066 7.77693 23.356 7.77908 23.2013C7.78025 23.0979 7.76102 22.9953 7.72248 22.8994C7.68394 22.8035 7.62686 22.7161 7.55449 22.6423C7.48213 22.5684 7.3959 22.5096 7.30076 22.4691C7.20562 22.4287 7.10343 22.4074 7.00005 22.4065V22.407ZM10.8868 23.1944C10.8876 23.0397 10.8425 22.8883 10.7574 22.7592C10.6722 22.6301 10.5508 22.5291 10.4083 22.4689C10.2659 22.4086 10.1088 22.3919 9.95685 22.4209C9.80492 22.4498 9.66495 22.523 9.55456 22.6313C9.44418 22.7396 9.36832 22.8782 9.33655 23.0296C9.30478 23.1809 9.31852 23.3383 9.37603 23.4819C9.43355 23.6255 9.53227 23.7488 9.65975 23.8363C9.78724 23.9239 9.93779 23.9718 10.0924 23.9739C10.1958 23.9748 10.2983 23.9554 10.3941 23.9167C10.4899 23.878 10.5772 23.8208 10.6509 23.7483C10.7246 23.6759 10.7834 23.5897 10.8238 23.4945C10.8641 23.3994 10.8854 23.2972 10.8863 23.1939L10.8868 23.1944ZM13.213 14.6399C13.3654 14.6395 13.5143 14.594 13.6409 14.5091C13.7676 14.4243 13.8662 14.3038 13.9245 14.1629C13.9827 14.0221 13.998 13.8671 13.9684 13.7176C13.9387 13.5681 13.8654 13.4307 13.7578 13.3227C13.6502 13.2148 13.5131 13.1411 13.3636 13.111C13.2142 13.0808 13.0592 13.0956 12.9182 13.1534C12.7771 13.2112 12.6563 13.3095 12.5711 13.4358C12.4858 13.5622 12.4398 13.7109 12.4389 13.8634C12.4416 14.0679 12.5239 14.2634 12.6683 14.4083C12.8127 14.5532 13.0079 14.6361 13.2125 14.6394L13.213 14.6399ZM16.3083 13.0957C16.1559 13.0977 16.0075 13.1447 15.8818 13.2309C15.756 13.317 15.6586 13.4385 15.6018 13.5799C15.545 13.7214 15.5313 13.8765 15.5625 14.0257C15.5936 14.1749 15.6683 14.3116 15.777 14.4184C15.8857 14.5253 16.0236 14.5975 16.1733 14.6261C16.3231 14.6547 16.4779 14.6384 16.6183 14.5792C16.7588 14.5199 16.8786 14.4204 16.9626 14.2932C17.0465 14.166 17.091 14.0168 17.0903 13.8644C17.086 13.6595 17.0018 13.4645 16.8557 13.3208C16.7096 13.1771 16.5132 13.0962 16.3083 13.0952V13.0957ZM19.4225 13.0957C19.27 13.0961 19.1211 13.1416 18.9945 13.2265C18.8679 13.3114 18.7692 13.4318 18.711 13.5727C18.6527 13.7136 18.6375 13.8685 18.6671 14.018C18.6968 14.1676 18.77 14.305 18.8776 14.4129C18.9853 14.5209 19.1224 14.5946 19.2718 14.6247C19.4213 14.6548 19.5763 14.64 19.7173 14.5822C19.8584 14.5244 19.9791 14.4261 20.0644 14.2998C20.1497 14.1735 20.1957 14.0247 20.1966 13.8723C20.1944 13.6676 20.1124 13.4719 19.9681 13.3268C19.8238 13.1816 19.6286 13.0986 19.424 13.0952L19.4225 13.0957Z" fill="#DBE1E9"/>
<path d="M4.6734 23.19C4.67378 23.3447 4.62834 23.4961 4.54281 23.625C4.45729 23.7539 4.3355 23.8546 4.1928 23.9145C4.05011 23.9743 3.89289 23.9905 3.74099 23.9611C3.58909 23.9317 3.4493 23.858 3.33924 23.7492C3.22918 23.6405 3.15379 23.5015 3.12256 23.35C3.09134 23.1985 3.10569 23.0411 3.16379 22.8977C3.2219 22.7543 3.32116 22.6313 3.44906 22.5442C3.57697 22.4572 3.72779 22.4099 3.8825 22.4085C4.09092 22.4075 4.2912 22.4893 4.43945 22.6358C4.5877 22.7822 4.67183 22.9815 4.6734 23.19Z" fill="#686868"/>
<path d="M7.00008 22.4084C7.15478 22.4093 7.30576 22.456 7.43399 22.5426C7.56221 22.6291 7.66194 22.7517 7.7206 22.8948C7.77926 23.038 7.79423 23.1953 7.76362 23.3469C7.73301 23.4986 7.65819 23.6378 7.54859 23.747C7.43899 23.8562 7.29952 23.9304 7.14776 23.9605C6.996 23.9905 6.83874 23.9749 6.69581 23.9157C6.55289 23.8565 6.43068 23.7564 6.34461 23.6278C6.25854 23.4993 6.21245 23.3481 6.21216 23.1934C6.21235 23.0901 6.23289 22.9879 6.27259 22.8926C6.31229 22.7972 6.37038 22.7106 6.44355 22.6377C6.51671 22.5649 6.60352 22.5071 6.69901 22.4678C6.7945 22.4284 6.8968 22.4083 7.00008 22.4084Z" fill="#686868"/>
<path d="M10.8863 23.1939C10.8855 23.3486 10.8389 23.4996 10.7525 23.6279C10.666 23.7562 10.5435 23.856 10.4003 23.9147C10.2572 23.9735 10.0999 23.9886 9.94827 23.9581C9.79661 23.9275 9.65737 23.8528 9.54811 23.7433C9.43886 23.6337 9.36448 23.4943 9.33434 23.3426C9.30421 23.1908 9.31967 23.0336 9.37878 22.8906C9.43789 22.7476 9.53801 22.6254 9.6665 22.5392C9.795 22.4531 9.94613 22.4069 10.1008 22.4065C10.3093 22.407 10.5091 22.4902 10.6563 22.6378C10.8036 22.7854 10.8863 22.9854 10.8863 23.1939Z" fill="#686868"/>
<path d="M13.2125 14.6394C13.0601 14.6398 12.911 14.5951 12.784 14.5108C12.6569 14.4266 12.5577 14.3067 12.4987 14.1662C12.4397 14.0257 12.4236 13.8708 12.4524 13.7211C12.4813 13.5715 12.5538 13.4337 12.6608 13.3252C12.7678 13.2167 12.9046 13.1423 13.0538 13.1113C13.203 13.0804 13.3581 13.0943 13.4994 13.1513C13.6408 13.2083 13.7621 13.3059 13.8481 13.4317C13.9341 13.5575 13.9809 13.706 13.9827 13.8584C13.9813 14.0633 13.9 14.2595 13.7562 14.4053C13.6124 14.5512 13.4173 14.6352 13.2125 14.6394Z" fill="#F2BB0C"/>
<path d="M16.3079 13.0947C16.4603 13.0927 16.6099 13.136 16.7377 13.2189C16.8656 13.3019 16.9661 13.4208 17.0265 13.5608C17.0869 13.7007 17.1045 13.8554 17.0772 14.0053C17.0498 14.1553 16.9787 14.2938 16.8727 14.4034C16.7668 14.513 16.6307 14.5887 16.4818 14.6212C16.3329 14.6536 16.1777 14.6412 16.0358 14.5856C15.8939 14.5299 15.7716 14.4335 15.6844 14.3085C15.5972 14.1835 15.5489 14.0355 15.5457 13.8831C15.5448 13.6782 15.624 13.4811 15.7664 13.3338C15.9088 13.1866 16.1031 13.1007 16.3079 13.0947Z" fill="#F2BB0C"/>
<path d="M19.4234 13.0952C19.5759 13.0948 19.725 13.1396 19.8521 13.2238C19.9791 13.3081 20.0784 13.428 20.1373 13.5686C20.1963 13.7091 20.2124 13.864 20.1835 14.0137C20.1546 14.1633 20.082 14.3011 19.975 14.4096C19.8679 14.5181 19.7311 14.5925 19.5819 14.6234C19.4326 14.6543 19.2775 14.6403 19.1362 14.5832C18.9948 14.5261 18.8736 14.4285 18.7876 14.3026C18.7017 14.1767 18.655 14.0282 18.6533 13.8757C18.6547 13.6709 18.736 13.4748 18.8798 13.329C19.0236 13.1832 19.2187 13.0993 19.4234 13.0952Z" fill="#F2BB0C"/>
<path d="M17.289 3.02501C17.2503 3.23194 17.1344 3.41642 16.9647 3.54106C16.8266 3.63615 16.6605 3.68205 16.4931 3.67138C16.3257 3.66071 16.1668 3.5941 16.0418 3.48224C15.7393 3.20593 15.4536 2.90736 15.1288 2.65972C14.3352 2.04802 13.3895 1.66497 12.3938 1.55198C11.5684 1.44166 10.7288 1.51248 9.93342 1.75952C9.13808 2.00657 8.4061 2.4239 7.78839 2.9825C7.6144 3.13079 7.46264 3.30923 7.29409 3.46642C7.15355 3.60584 6.96338 3.68373 6.76542 3.68294C6.56746 3.68215 6.37792 3.60275 6.23849 3.46222C6.09907 3.32168 6.02119 3.13152 6.02198 2.93355C6.02277 2.73559 6.10216 2.54605 6.2427 2.40663C7.31741 1.19956 8.77161 0.395042 10.3652 0.125896C11.5248 -0.0939643 12.7207 -0.0250832 13.8474 0.326459C14.9741 0.678002 15.997 1.3014 16.8258 2.14168C16.9389 2.24598 17.0422 2.36048 17.1343 2.48374C17.1957 2.5859 17.2476 2.69344 17.2895 2.80504L17.289 3.02501Z" fill="#F2BB0C"/>
<path d="M11.6075 2.80353C12.3276 2.79968 13.0383 2.96736 13.6807 3.29271C14.3232 3.61806 14.8789 4.0917 15.3019 4.67447C15.3831 4.77632 15.4359 4.89774 15.4552 5.02651C15.4745 5.15527 15.4595 5.28684 15.4118 5.40799C15.3641 5.52915 15.2854 5.6356 15.1835 5.71665C15.0816 5.7977 14.9601 5.85049 14.8314 5.8697C14.7006 5.89476 14.5655 5.88272 14.4413 5.83493C14.3171 5.78714 14.2087 5.70552 14.1285 5.59932C13.9404 5.35115 13.7222 5.12733 13.4789 4.933C12.8626 4.46254 12.0879 4.24908 11.3176 4.33736C10.5472 4.42565 9.84099 4.80884 9.34703 5.40655C9.24066 5.54989 9.11277 5.67594 8.9679 5.78023C8.82213 5.86827 8.64984 5.90169 8.48173 5.87453C8.31361 5.84737 8.1606 5.7614 8.04997 5.63195C7.93474 5.50417 7.86753 5.3403 7.85987 5.16841C7.8522 4.99653 7.90456 4.82732 8.00796 4.6898C8.35382 4.20332 8.79426 3.79163 9.30293 3.47933C9.81159 3.16702 10.378 2.96053 10.9684 2.87223C11.1957 2.83367 11.4266 2.82182 11.6075 2.80353Z" fill="#F2BB0C"/>
<path d="M11.6656 8.99423C11.332 8.99531 11.0056 8.89737 10.7276 8.71285C10.4497 8.52832 10.2327 8.2655 10.1042 7.95762C9.97571 7.64974 9.94143 7.31064 10.0057 6.98327C10.07 6.6559 10.23 6.35496 10.4653 6.11854C10.7007 5.88211 11.001 5.72083 11.3281 5.65511C11.6551 5.58939 11.9944 5.62218 12.3028 5.74933C12.6112 5.87648 12.875 6.09227 13.0608 6.3694C13.2465 6.64653 13.3459 6.97255 13.3463 7.30617C13.3459 7.75247 13.1689 8.18048 12.8541 8.49676C12.5392 8.81303 12.1119 8.99188 11.6656 8.99423Z" fill="#F2BB0C"/>
</svg>
