<svg width="8" height="11" viewBox="0 0 8 11" fill="none" xmlns="http://www.w3.org/2000/svg">
<path d="M3.97922 10.9991C2.98252 10.9991 1.98604 10.9981 0.989339 11C0.779064 11.0004 0.583989 10.9567 0.410237 10.8323C0.173994 10.6634 0.0384552 10.4315 0.00446486 10.1393C-0.00292434 10.0763 0.00108694 10.0119 0.00108694 9.9481C0.00108694 9.04275 0.00108694 8.1374 0.00108694 7.23205C0.00108694 6.72927 -0.000602023 6.22627 0.00150918 5.72349C0.00319814 5.33536 0.18075 5.0524 0.506508 4.86253C0.55021 4.8371 0.598767 4.81965 0.645636 4.80004C0.65957 4.79422 0.664004 4.78668 0.663792 4.77224C0.663159 4.72289 0.66337 4.67353 0.663581 4.62418C0.664637 4.1798 0.663159 3.73521 0.667593 3.29083C0.670337 3.01218 0.720795 2.74042 0.794264 2.47212C0.858445 2.23786 0.946482 2.01351 1.06006 1.80081C1.26063 1.42453 1.51925 1.09523 1.83825 0.815934C2.13424 0.556677 2.46422 0.35647 2.82777 0.214019C3.03108 0.134281 3.24136 0.0797574 3.45543 0.0392419C3.6617 1.93322e-05 3.87007 0.000881366 4.07887 1.93324e-05C4.47978 -0.00148923 4.86318 0.0853606 5.23391 0.235785C5.42961 0.315308 5.61878 0.408623 5.79464 0.528661C5.94665 0.632321 6.09232 0.744385 6.22934 0.868087C6.40837 1.02993 6.56417 1.21312 6.70457 1.41031C6.82448 1.57905 6.93279 1.75555 7.01639 1.94563C7.0812 2.09325 7.13926 2.24475 7.18993 2.39798C7.24271 2.55746 7.27966 2.72254 7.30098 2.88977C7.31829 3.02489 7.33708 3.16088 7.33856 3.29665C7.34426 3.78866 7.3432 4.28066 7.34384 4.77267C7.34384 4.79293 7.35059 4.80025 7.36791 4.80715C7.69366 4.93495 7.8974 5.17351 7.97656 5.5207C7.99219 5.58901 7.9981 5.66099 7.9981 5.73146C7.99937 7.16912 8.00232 8.60678 7.99662 10.0442C7.99514 10.4227 7.8159 10.708 7.49036 10.8909C7.35756 10.9657 7.21358 10.9985 7.06115 10.9985C6.03384 10.9976 5.00653 10.9981 3.97922 10.9981V10.9989V10.9991ZM1.99744 4.75133C2.01749 4.75133 2.03312 4.75133 2.04874 4.75133C2.58118 4.75133 3.11384 4.75133 3.64628 4.75133C4.42532 4.75133 5.20435 4.7509 5.98338 4.75198C6.02033 4.75198 6.01188 4.73043 6.01188 4.71082C6.01188 4.28885 6.01209 3.86689 6.01167 3.44492C6.01167 3.37941 6.01167 3.31368 6.00682 3.24838C5.98908 3.0055 5.92891 2.77404 5.8299 2.55228C5.69225 2.24346 5.48746 1.98938 5.22842 1.78163C4.91511 1.53056 4.55811 1.39069 4.16078 1.35923C3.99653 1.34608 3.83312 1.35255 3.67077 1.38057C3.25276 1.45298 2.89364 1.64435 2.59195 1.948C2.41524 2.12579 2.27569 2.33117 2.17246 2.5622C2.065 2.80271 2.00124 3.05464 1.9987 3.31863C1.99406 3.78629 1.99744 4.25415 1.99744 4.72202V4.75155V4.75133ZM3.58738 8.5904H3.5878C3.5878 8.65052 3.58611 8.71087 3.58844 8.77078C3.58991 8.81086 3.59181 8.85203 3.60174 8.8906C3.65578 9.09749 3.85191 9.22766 4.06029 9.19748C4.23805 9.17184 4.3928 9.01193 4.40336 8.82832C4.41202 8.67789 4.40737 8.52682 4.40653 8.37597C4.40653 8.35118 4.41392 8.33955 4.43439 8.32856C4.53805 8.27274 4.63031 8.20033 4.70378 8.10787C4.92419 7.8303 4.97803 7.51824 4.86677 7.18054C4.75255 6.834 4.41117 6.54221 3.97711 6.55492C3.65705 6.56419 3.4073 6.71073 3.22784 6.97904C3.09188 7.18227 3.04881 7.41071 3.08766 7.65207C3.13706 7.95745 3.30005 8.18352 3.565 8.33243C3.58063 8.34127 3.58823 8.35054 3.5878 8.36972C3.58675 8.44342 3.58738 8.51691 3.58738 8.59061V8.5904Z" fill="#066795"/>
</svg>
