<svg width="11" height="14" viewBox="0 0 11 14" fill="none" xmlns="http://www.w3.org/2000/svg">
<path d="M0 12.3273C0 10.6373 0 8.94725 0 7.25758C0.0144917 7.22342 0.0324339 7.19064 0.0427851 7.15545C0.141812 6.81041 0.356428 6.56163 0.679386 6.4112C0.759781 6.37393 0.782898 6.33287 0.782208 6.24799C0.778758 5.58103 0.778413 4.91372 0.781173 4.24675C0.783589 3.66432 0.903663 3.10467 1.14174 2.57365C1.59616 1.55957 2.33144 0.819803 3.3469 0.368144C4.18638 -0.00588021 5.06279 -0.0924856 5.96059 0.0972871C6.72968 0.259801 7.40734 0.610363 7.98322 1.14897C8.76267 1.87804 9.22157 2.77377 9.3306 3.83477C9.37166 4.23399 9.3551 4.63941 9.35959 5.04173C9.36269 5.30568 9.20432 5.46268 8.94278 5.46302C8.44454 5.46406 7.9463 5.46371 7.44806 5.46302C7.17582 5.46268 7.02435 5.30913 7.02021 5.03828C7.01538 4.71359 7.02745 4.38718 6.99537 4.06492C6.87391 2.8414 5.58691 2.03918 4.43171 2.45564C3.62604 2.74617 3.12435 3.4642 3.12055 4.34026C3.11779 4.95547 3.11986 5.57033 3.12055 6.18554C3.12055 6.21866 3.12435 6.25213 3.12711 6.29526C3.18611 6.29526 3.23718 6.29526 3.28824 6.29526C5.17286 6.29526 7.05747 6.29423 8.94209 6.29595C9.60974 6.2963 10.1356 6.79178 10.1383 7.44149C10.1449 9.01833 10.1428 10.5952 10.1383 12.1717C10.1373 12.5236 9.99757 12.8293 9.7136 13.037C9.54798 13.1585 9.3413 13.224 9.15291 13.3148H0.988198C0.964735 13.3058 0.942308 13.2944 0.918155 13.2889C0.625905 13.2182 0.379545 13.0695 0.218411 12.8162C0.12318 12.6675 0.0714235 12.4912 0 12.3273ZM4.68048 10.7729C4.68048 10.9547 4.67324 11.1372 4.68359 11.3184C4.68842 11.4057 4.7105 11.5002 4.75294 11.5758C4.83506 11.7224 5.00827 11.78 5.16837 11.7355C5.34745 11.6858 5.45752 11.5426 5.45959 11.3391C5.46304 10.9754 5.46476 10.6114 5.45786 10.2477C5.45614 10.1497 5.48891 10.1059 5.57552 10.0655C6.17106 9.78846 6.40431 9.06111 6.09895 8.48144C5.90849 8.12018 5.45476 7.80033 4.90649 7.8759C4.30059 7.95974 3.85446 8.5125 3.91242 9.1246C3.95521 9.57626 4.19812 9.89128 4.6025 10.0904C4.63977 10.1087 4.67496 10.1708 4.67669 10.2142C4.68497 10.4002 4.68014 10.5865 4.68014 10.7729H4.68048Z" fill="#DA9A00"/>
</svg>
