<svg width="17" height="25" viewBox="0 0 17 25" fill="none" xmlns="http://www.w3.org/2000/svg">
<path fill-rule="evenodd" clip-rule="evenodd" d="M8.92521 13.8887C8.92521 13.5204 9.07448 13.1671 9.34017 12.9066C9.60586 12.6461 9.96621 12.4998 10.342 12.4998H14.9208C14.2798 11.2373 13.2236 10.2232 11.9228 9.62118C10.7698 10.5825 9.30565 11.1104 7.7921 11.1104C6.27855 11.1104 4.81436 10.5825 3.66141 9.62118C2.56652 10.1262 1.64084 10.9263 0.992488 11.9279C0.344141 12.9296 -9.52264e-05 14.0914 1.97598e-08 15.2777V20.8336C1.97598e-08 21.5703 0.298528 22.2769 0.829911 22.7979C1.36129 23.3188 2.082 23.6115 2.83349 23.6115H8.92521V13.8887ZM12.7516 4.86092C12.7516 5.82224 12.4609 6.76198 11.9162 7.56131C11.3714 8.36064 10.5972 8.98368 9.69133 9.35165C8.78546 9.71961 7.78864 9.81598 6.82691 9.62857C5.86517 9.44116 4.98171 8.97838 4.28823 8.29876C3.59475 7.61913 3.12239 6.75317 2.93087 5.81037C2.73934 4.86756 2.83726 3.89025 3.21224 3.002C3.58722 2.11375 4.22243 1.35445 5.03754 0.820106C5.85266 0.285761 6.81108 0.000363933 7.79163 3.47701e-07C8.4429 -0.000241142 9.08784 0.125312 9.6896 0.369488C10.2914 0.613664 10.8382 0.971679 11.2988 1.42308C11.7594 1.87448 12.1248 2.41043 12.374 3.0003C12.6233 3.59018 12.7516 4.22242 12.7516 4.86092ZM16.294 13.1943H10.341C10.2481 13.1943 10.156 13.2123 10.0702 13.2473C9.98429 13.2822 9.90628 13.3334 9.84059 13.3979C9.7749 13.4623 9.72281 13.5389 9.68729 13.6231C9.65177 13.7073 9.63352 13.7976 9.63358 13.8887V24.3055C9.63352 24.3967 9.65177 24.4869 9.68729 24.5711C9.72281 24.6554 9.7749 24.7319 9.84059 24.7964C9.90628 24.8609 9.98429 24.9121 10.0702 24.947C10.156 24.9819 10.2481 24.9999 10.341 25H16.2926C16.3855 24.9999 16.4776 24.9819 16.5634 24.947C16.6493 24.9121 16.7273 24.8609 16.793 24.7964C16.8587 24.7319 16.9108 24.6554 16.9463 24.5711C16.9818 24.4869 17.0001 24.3967 17 24.3055V13.8887C17.0001 13.7976 16.9818 13.7073 16.9463 13.6231C16.9108 13.5389 16.8587 13.4623 16.793 13.3979C16.7273 13.3334 16.6493 13.2822 16.5634 13.2473C16.4776 13.2123 16.3855 13.1943 16.2926 13.1943H16.294ZM13.3184 24.4443C13.2063 24.4443 13.0968 24.4117 13.0035 24.3507C12.9103 24.2896 12.8377 24.2028 12.7948 24.1013C12.7519 23.9998 12.7407 23.888 12.7625 23.7802C12.7844 23.6724 12.8384 23.5734 12.9177 23.4957C12.9969 23.418 13.0979 23.3651 13.2079 23.3436C13.3178 23.3222 13.4318 23.3332 13.5353 23.3753C13.6389 23.4173 13.7274 23.4885 13.7897 23.5799C13.852 23.6713 13.8852 23.7787 13.8852 23.8886C13.8852 23.9618 13.8705 24.0342 13.8419 24.1017C13.8133 24.1693 13.7714 24.2306 13.7186 24.2822C13.6657 24.3338 13.603 24.3747 13.534 24.4026C13.4651 24.4304 13.3911 24.4446 13.3166 24.4443H13.3184ZM15.8683 22.7777H10.7667V14.4444H15.8669L15.8683 22.7777Z" fill="#FF7900"/>
</svg>
