<svg width="32" height="27" viewBox="0 0 32 27" fill="none" xmlns="http://www.w3.org/2000/svg">
<path d="M28.1751 20.7884L26.8966 18.3138L21.5011 9.19119L19.0545 5.05447C18.8124 4.68487 19.2025 4.32849 19.4968 4.22938L23.3229 3.22227C23.3378 3.21715 23.3528 3.21289 23.3679 3.20906C23.3242 3.18817 23.278 3.17176 23.2308 3.16025C23.1061 3.12998 22.9724 3.1336 22.8439 3.17666L19.0178 4.18377L19.005 4.18675C18.6018 4.28373 18.1788 4.25901 17.7897 4.11577L12.8767 2.3066C12.7985 2.27782 12.8102 2.16422 12.8927 2.15186L12.5822 2.19811C12.3919 2.22646 12.3658 2.48969 12.5467 2.55449L17.297 4.74924L18.7517 5.30704L18.8175 5.4183L21.0219 9.14557L26.4174 18.2682L27.9331 20.9129C27.9869 21.0037 28.0644 21.07 28.1526 21.1094L28.1578 21.1118C28.1646 21.1147 28.1712 21.1175 28.178 21.1201C28.3438 21.1836 28.5406 21.1559 28.6841 21.0246L28.6871 21.0197C28.5101 21.168 28.2844 20.9736 28.1748 20.7884H28.1751Z" fill="url(#paint0_linear_2953_7827)"/>
<path d="M17.2969 4.74939L18.7817 5.43529L18.8173 5.41845L18.7515 5.30719L17.2969 4.74939Z" fill="url(#paint1_linear_2953_7827)"/>
<path d="M12.8765 2.30679L17.7895 4.11597C18.1786 4.2592 18.6017 4.28393 19.0048 4.18695L19.0176 4.18396L22.8437 3.17685C22.9723 3.13358 23.106 3.13017 23.2307 3.16044H23.2309C23.204 3.15447 19.94 2.29763 18.4357 1.86111C18.0719 1.75539 17.6894 1.72917 17.3144 1.78395L12.8927 2.15205C12.8105 2.1642 12.7988 2.27802 12.8767 2.30679H12.8765Z" fill="url(#paint2_linear_2953_7827)"/>
<path d="M19.0543 5.05445L19.17 5.25012L22.9039 3.31604L19.4965 4.22937C19.2023 4.32827 18.8121 4.68486 19.0543 5.05445Z" fill="url(#paint3_linear_2953_7827)"/>
<path d="M27.933 20.9129L26.4173 18.2682L21.0218 9.14556L18.8174 5.41829L18.8142 5.41296C18.5086 4.89608 18.1065 4.54695 17.543 4.33743C15.9087 3.72975 12.4471 2.47369 12.4463 2.4707C12.4452 2.46772 18.4668 14.0042 20.157 17.011C20.381 17.4096 20.5027 17.5978 21.3691 18.0569L28.1528 21.1096C28.0648 21.07 27.9871 21.0039 27.9332 20.9131L27.933 20.9129Z" fill="url(#paint4_linear_2953_7827)"/>
<path d="M28.1591 21.1125L28.1526 21.1095C28.1548 21.1106 28.1569 21.1114 28.1591 21.1125Z" fill="url(#paint5_linear_2953_7827)"/>
<path d="M28.1786 21.1208L28.178 21.12C28.1712 21.1174 28.1643 21.1147 28.1577 21.1117L28.1786 21.1211V21.1208Z" fill="url(#paint6_linear_2953_7827)"/>
<path d="M22.399 12.3024L27.1047 20.6363L21.3689 18.0571L22.399 12.3024Z" fill="url(#paint7_linear_2953_7827)"/>
<path d="M15.4226 19.8705L20.7015 18.2937L20.884 18.4295L15.4226 19.8705Z" fill="url(#paint8_linear_2953_7827)"/>
<path d="M23.4236 5.20115C22.8722 5.99341 22.808 7.02525 22.9297 7.9535C23.0591 8.94078 23.3805 9.90612 23.733 10.8339C24.4772 12.7921 25.4779 14.6531 26.4713 16.494C27.2386 17.9161 28.0385 19.3216 28.884 20.6992C29.4298 19.8101 30.9248 17.3752 30.9539 17.3234C31.0724 17.1119 31.0747 16.8476 30.946 16.6298L24.2513 4.53955C23.9118 4.65465 23.6288 4.90659 23.4236 5.20115Z" fill="url(#paint9_linear_2953_7827)"/>
<path d="M23.3677 3.20911C23.3527 3.21316 23.3376 3.21742 23.3226 3.22232L19.4965 4.22943C19.2023 4.32833 18.8121 4.68492 19.0543 5.05452L21.5009 9.19124L26.8963 18.3139L28.1748 20.7885C28.2844 20.9737 28.4932 21.1983 28.6871 21.0197C28.6871 21.0197 28.7619 20.898 28.884 20.6992C28.0386 19.3216 27.2386 17.9161 26.4714 16.494C25.4779 14.6531 24.4773 12.7921 23.7331 10.8339C23.3805 9.90613 23.0591 8.94101 22.9297 7.9535C22.808 7.02526 22.8723 5.99342 23.4236 5.20116C23.6286 4.90659 23.9118 4.65466 24.2513 4.53956L23.666 3.48236C23.5938 3.36023 23.4888 3.26708 23.3675 3.20911H23.3677Z" fill="url(#paint10_linear_2953_7827)"/>
<path d="M30.626 16.5729L24.8955 6.3905L29.248 16.4981C29.4071 16.8576 29.44 17.2605 29.3415 17.6412L28.8897 20.0934C29.4355 19.2044 30.6049 17.3182 30.6339 17.2667C30.7524 17.0552 30.7548 16.7909 30.626 16.5731V16.5729Z" fill="url(#paint11_linear_2953_7827)"/>
<path d="M21.8004 19.1116L9.65304 10.0715C9.39743 9.87923 9.07326 9.80144 8.75786 9.85728L2.32715 11.1033L14.1826 21.157L21.8001 19.1118L21.8004 19.1116Z" fill="url(#paint12_linear_2953_7827)"/>
<path d="M3.19873 11.3682L13.4429 19.5794C13.9356 19.9743 14.5713 20.1455 15.1964 20.0515L21.0063 19.0499L13.9422 20.9733L3.19873 11.3682Z" fill="url(#paint13_linear_2953_7827)"/>
<path d="M13.5 20.2079L2.97605 11.1769C2.83276 11.0539 2.45287 11.0352 2.24231 11.1354C2.19939 11.2042 2.14878 11.2669 2.09411 11.3265L1.52886 14.477C1.42272 14.8507 1.53099 15.2522 1.81031 15.5225L12.6586 26.3313C12.8639 26.53 13.2809 27.1185 13.9882 26.9437L14.2617 26.2563C14.2733 26.2525 14.5622 26.0634 14.5735 26.0589L14.1323 26.8908L22.1832 24.2625C22.6654 24.0709 22.9163 23.5391 22.7572 23.0461L22.0106 19.733C21.988 19.6629 21.9316 19.2752 21.8928 19.2167C21.7693 19.0194 21.4819 18.9307 21.2718 18.9876C21.2598 18.9908 21.2479 18.9942 21.2359 18.997L14.6213 20.5886C14.3213 20.6574 14.0061 20.59 13.7605 20.4044L13.5002 20.2079H13.5Z" fill="url(#paint14_linear_2953_7827)"/>
<path d="M14.4909 26.7942C14.8627 26.5651 20.1129 24.3981 20.2799 21.9731C20.4347 19.7251 16.1956 20.6326 15.5103 20.7833L15.3978 20.8093L14.4556 21.0048C14.1671 21.0962 13.9579 21.346 13.9188 21.6455L13.4633 26.3763C13.415 26.7441 13.704 26.9912 14.0488 26.9375C14.0879 26.9313 14.1261 26.9198 14.1629 26.9053L14.4712 26.8077C14.4727 26.8066 14.4746 26.8051 14.4768 26.8036C14.4808 26.8008 14.4853 26.7979 14.4909 26.7947V26.7942Z" fill="url(#paint15_linear_2953_7827)"/>
<path d="M14.4712 26.8083C14.4734 26.8066 14.4758 26.8047 14.4783 26.8031C14.4755 26.805 14.4728 26.8069 14.4712 26.8083Z" fill="url(#paint16_linear_2953_7827)"/>
<path d="M15.3977 20.8093L15.5106 20.7832C15.4382 20.799 15.3979 20.8091 15.3977 20.8093Z" fill="url(#paint17_linear_2953_7827)"/>
<path d="M23.0651 23.3534C23.0651 23.3534 22.1018 19.5925 21.9231 19.2813C21.8039 19.0737 21.5304 19.1596 21.319 19.2265L15.5105 20.7831C16.1958 20.6324 20.4349 19.7249 20.2801 21.9729C20.1131 24.3978 14.8629 26.5649 14.4911 26.794C14.4853 26.7976 14.4806 26.8006 14.477 26.803C14.4751 26.8045 14.4729 26.8057 14.4714 26.807L22.4914 24.3876C22.9735 24.196 23.2245 23.8464 23.0654 23.3532L23.0651 23.3534Z" fill="url(#paint18_linear_2953_7827)"/>
<path d="M14.4712 26.8083C14.4734 26.8066 14.4758 26.8047 14.4783 26.8031C14.4755 26.805 14.4728 26.8069 14.4712 26.8083Z" fill="url(#paint19_linear_2953_7827)"/>
<path d="M22.8261 23.4511L22.8212 23.434C22.4949 22.16 22.0191 20.3784 21.8021 19.695C21.7549 19.5463 21.5958 19.464 21.4468 19.5113C21.4461 19.5113 21.4455 19.5117 21.4449 19.5119L21.4297 19.5162L20.2624 19.8178C20.6357 19.9728 21.025 20.1912 21.2018 20.3434C21.5901 20.6772 21.7662 21.1431 21.7261 21.7282C21.6575 22.7234 20.9304 23.7403 19.5648 24.7502C19.3775 24.8887 19.1868 25.0207 18.9963 25.146L22.4329 24.122C22.9719 23.9027 22.8662 23.5751 22.8263 23.4511H22.8261Z" fill="url(#paint20_linear_2953_7827)"/>
<path d="M22.8261 23.4511L22.8212 23.434C22.4949 22.16 22.0191 20.3784 21.8021 19.695C21.7549 19.5463 21.5958 19.464 21.4468 19.5113C21.4461 19.5113 21.4455 19.5117 21.4449 19.5119L21.4297 19.5162L20.2624 19.8178C20.6357 19.9728 21.025 20.1912 21.2018 20.3434C21.5901 20.6772 21.7662 21.1431 21.7261 21.7282C21.6575 22.7234 20.9304 23.7403 19.5648 24.7502C19.3775 24.8887 19.1868 25.0207 18.9963 25.146L22.4329 24.122C22.9719 23.9027 22.8662 23.5751 22.8263 23.4511H22.8261Z" fill="url(#paint21_linear_2953_7827)"/>
<path d="M12.8772 26.5569L1.46805 15.5223C1.18852 15.2521 1.08047 14.8505 1.1866 14.4769L2.07602 11.344C2.14478 11.1017 2.44225 11.0124 2.6338 11.1765L13.1578 20.2077C13.4909 20.4935 13.6639 20.9232 13.6218 21.3595L13.1289 26.4644C13.117 26.5882 12.9668 26.6434 12.8774 26.5569H12.8772Z" fill="url(#paint22_linear_2953_7827)"/>
<path d="M8.42528 21.1918C6.97659 19.4267 5.60776 17.5926 4.38821 15.6617C4.10803 15.218 3.82509 14.7765 3.58634 14.3089C3.32603 13.7984 3.08899 13.2743 2.88677 12.7382C2.80306 12.5163 2.60766 12.0067 2.52267 11.5193L2.47185 11.4779L2.4695 11.4758C2.43939 11.45 2.40757 11.4542 2.39134 11.4591C2.37511 11.464 2.34607 11.4779 2.33539 11.5161L1.44598 14.6489C1.36632 14.9298 1.44683 15.2303 1.65653 15.4339L11.4292 24.6588C10.4023 23.5255 9.39563 22.3739 8.42528 21.1918Z" fill="url(#paint23_linear_2953_7827)"/>
<path d="M14.0141 19.3513L4.77395 10.6292L4.40771 10.7001L14.0141 19.3513Z" fill="url(#paint24_linear_2953_7827)"/>
<path d="M23.7782 16.5251C23.7782 16.5251 22.605 12.6313 22.4262 12.3202C22.4222 12.3133 22.4181 12.3067 22.4138 12.3005C22.4076 12.2799 22.4014 12.2641 22.3957 12.2556C22.3528 12.1869 22.2902 12.1317 22.218 12.0908L11.7255 4.79101C11.4698 4.59875 11.1457 4.52117 10.8303 4.5768L5.22043 5.56771C5.1679 5.5724 5.11665 5.58114 5.06967 5.59393C5.06668 5.59457 5.0639 5.59521 5.06091 5.59585H5.06049C5.03315 5.60245 5.00689 5.61226 4.9819 5.62526C4.97977 5.62633 4.97763 5.62718 4.97549 5.62803C4.97549 5.62846 4.97507 5.62867 4.97485 5.6291C4.89798 5.67109 4.83605 5.74228 4.80914 5.83713L3.91973 8.96993C3.81359 9.34358 3.92186 9.74514 4.20118 10.0154L14.2195 19.4722C14.4563 19.7148 14.8255 20.0211 15.3619 19.8885C15.3818 19.8874 15.4021 19.8853 15.4226 19.8821C15.4616 19.8759 15.4999 19.8644 15.5366 19.8499L15.845 19.7523L23.2037 17.5595C23.6859 17.3679 23.9368 17.0183 23.7778 16.5251H23.7782Z" fill="url(#paint25_linear_2953_7827)"/>
<path d="M22.2766 12.1326L11.4885 4.6405C11.2329 4.44824 10.9087 4.37066 10.5933 4.42629L4.82373 5.44555L15.3199 13.9511L22.2764 12.1328L22.2766 12.1326Z" fill="url(#paint26_linear_2953_7827)"/>
<path d="M7.79835 5.93424C9.36577 6.39975 10.9197 6.91087 12.4511 7.48402C14.2976 8.17525 16.1123 8.95557 17.8747 9.83948L11.2693 4.92372L11.2685 4.92308C11.0993 4.79583 10.8828 4.74404 10.6744 4.78091L6.38403 5.53885C6.85768 5.66227 7.32919 5.79484 7.79813 5.93424H7.79835Z" fill="url(#paint27_linear_2953_7827)"/>
<path d="M5.69507 5.71021L14.5798 12.3733C15.0725 12.7683 15.7084 12.9394 16.3333 12.8455L21.4823 12.0705L15.0793 13.7671L5.69507 5.71021Z" fill="url(#paint28_linear_2953_7827)"/>
<path d="M14.6369 13.0021L5.47239 5.51896C5.3291 5.39597 4.94921 5.37721 4.73865 5.47739C4.69573 5.54624 4.64512 5.6089 4.59045 5.66858L4.02519 8.81908C3.91906 9.19273 4.02733 9.59429 4.30665 9.86456L13.7955 19.1253C14.0008 19.3237 14.4178 19.9124 15.1251 19.7374L15.3986 19.05C15.4102 19.0462 15.6993 18.8572 15.7104 18.8527L15.2692 19.6846L22.659 17.2831C23.1411 17.0915 23.3921 16.5597 23.233 16.0667L22.4864 12.7535C22.4638 12.6834 22.4074 12.2957 22.3685 12.2373C22.2451 12.0399 21.9577 11.9513 21.7475 12.0082C21.7356 12.0114 21.7236 12.0148 21.7117 12.0175L15.758 13.3823C15.458 13.4512 15.1428 13.3838 14.8972 13.1981L14.6369 13.0016V13.0021Z" fill="url(#paint29_linear_2953_7827)"/>
<path d="M15.6278 19.5884C15.9996 19.3592 20.5889 17.4188 20.7559 14.9938C20.9107 12.7458 17.3325 13.4268 16.6473 13.5772L16.5347 13.6032L15.5926 13.7987C15.3041 13.8901 15.0948 14.1399 15.0555 14.4394L14.6 19.1702C14.5518 19.5381 14.8407 19.7851 15.1856 19.7314C15.2246 19.7252 15.2629 19.7137 15.2996 19.6992L15.608 19.6016C15.6094 19.6005 15.6114 19.599 15.6135 19.5975C15.6176 19.5948 15.622 19.5918 15.6276 19.5886L15.6278 19.5884Z" fill="url(#paint30_linear_2953_7827)"/>
<path d="M15.6079 19.6025C15.6098 19.6008 15.6125 19.5989 15.615 19.5973C15.6123 19.5992 15.6095 19.6011 15.6079 19.6025Z" fill="url(#paint31_linear_2953_7827)"/>
<path d="M16.5347 13.6035L16.6476 13.5774C16.5752 13.5932 16.5349 13.6033 16.5347 13.6035Z" fill="url(#paint32_linear_2953_7827)"/>
<path d="M23.5409 16.3744C23.5409 16.3744 22.5776 12.6135 22.3989 12.3023C22.2795 12.0947 22.0062 12.1806 21.7948 12.2475L16.6473 13.5775C17.3325 13.4268 20.9105 12.7461 20.7559 14.9941C20.5889 17.4191 15.9996 19.3593 15.6278 19.5887C15.622 19.5923 15.6173 19.5953 15.6137 19.5976C15.6118 19.5989 15.6096 19.6004 15.6082 19.6017L22.9669 17.4088C23.4491 17.2172 23.7 16.8676 23.5409 16.3744Z" fill="url(#paint33_linear_2953_7827)"/>
<path d="M14.0141 19.3511L3.96439 9.86465C3.68486 9.59438 3.57681 9.19282 3.68294 8.81917L4.57236 5.68658C4.64112 5.44423 4.93859 5.35493 5.13014 5.51905L14.2949 13.0021C14.628 13.288 14.801 13.7177 14.7589 14.154L14.266 19.2588C14.2541 19.3826 14.104 19.4378 14.0145 19.3513L14.0141 19.3511Z" fill="url(#paint34_linear_2953_7827)"/>
<path d="M10.9492 15.3518C9.50052 13.5867 8.13169 11.7528 6.91213 9.82173C6.63175 9.37796 6.34901 8.93654 6.11027 8.4689C5.84996 7.95841 5.61292 7.43429 5.41069 6.89823C5.32698 6.67635 5.13159 6.16672 5.0466 5.67925L4.99577 5.63769L4.99343 5.63556C4.96332 5.60977 4.9315 5.61403 4.91527 5.61893C4.89904 5.62384 4.87 5.63769 4.85932 5.67584L3.9699 8.80865C3.89025 9.08958 3.97076 9.39011 4.18046 9.59366L13.9532 18.8186C12.9262 17.6853 11.9196 16.5337 10.9492 15.3516V15.3518Z" fill="url(#paint35_linear_2953_7827)"/>
<path d="M23.245 16.3903L23.2401 16.3732C22.9138 15.0993 22.4382 13.3176 22.2211 12.6342C22.1739 12.4855 22.0148 12.4032 21.8657 12.4505C21.8651 12.4505 21.8644 12.4509 21.8638 12.4511L21.8486 12.4554L20.6814 12.757C21.0547 12.912 21.444 13.1304 21.6208 13.2826C22.009 13.6164 22.1852 14.0823 22.145 14.6674C22.0765 15.6626 21.3494 16.6795 19.9837 17.6894C19.7965 17.8279 19.6058 17.9599 19.4153 18.0852L22.8519 17.0613C23.3909 16.8419 23.2852 16.5141 23.2452 16.3903H23.245Z" fill="url(#paint36_linear_2953_7827)"/>
<path d="M26.366 3.53809C23.8186 3.71483 23.6756 3.86188 23.4998 6.46385C23.3246 3.86224 23.1813 3.71589 20.6343 3.53809C23.1813 3.35676 23.3243 3.21183 23.4998 0.609863C23.676 3.21324 23.8179 3.35676 26.366 3.53809Z" fill="white"/>
<path d="M5.73195 11.5624C3.18456 11.7391 3.0416 11.8862 2.86575 14.4881C2.6906 11.8865 2.54729 11.7402 0.000244141 11.5624C2.54729 11.381 2.69025 11.2361 2.86575 8.63416C3.04195 11.2375 3.18387 11.381 5.73195 11.5624Z" fill="white"/>
<path d="M20.037 13.0142C16.2267 13.2785 16.0128 13.4985 15.7498 17.3905C15.4878 13.499 15.2734 13.2801 11.4636 13.0142C15.2734 12.7429 15.4873 12.5261 15.7498 8.63416C16.0134 12.5283 16.2256 12.7429 20.037 13.0142Z" fill="white"/>
<defs>
<linearGradient id="paint0_linear_2953_7827" x1="24.3716" y1="4.90121" x2="19.8284" y2="12.9974" gradientUnits="userSpaceOnUse">
<stop stop-color="#D7B232"/>
<stop offset="1" stop-color="#EEE67C"/>
</linearGradient>
<linearGradient id="paint1_linear_2953_7827" x1="21.3274" y1="8.15808" x2="13.1887" y2="0.421548" gradientUnits="userSpaceOnUse">
<stop stop-color="#DAA92E"/>
<stop offset="0.15" stop-color="#E3BA30"/>
<stop offset="1" stop-color="#F3E87C"/>
</linearGradient>
<linearGradient id="paint2_linear_2953_7827" x1="22.3881" y1="6.84461" x2="14.3573" y2="-0.789213" gradientUnits="userSpaceOnUse">
<stop stop-color="#DAA92E"/>
<stop offset="0.15" stop-color="#E3BA30"/>
<stop offset="1" stop-color="#F3E87C"/>
</linearGradient>
<linearGradient id="paint3_linear_2953_7827" x1="22.9661" y1="6.11177" x2="15.2651" y2="-1.20866" gradientUnits="userSpaceOnUse">
<stop stop-color="#DAA92E"/>
<stop offset="0.15" stop-color="#E3BA30"/>
<stop offset="1" stop-color="#F3E87C"/>
</linearGradient>
<linearGradient id="paint4_linear_2953_7827" x1="21.0499" y1="11.2844" x2="18.3611" y2="13.1031" gradientUnits="userSpaceOnUse">
<stop stop-color="#98620A"/>
<stop offset="1" stop-color="#BF901C"/>
</linearGradient>
<linearGradient id="paint5_linear_2953_7827" x1="31.0434" y1="18.8179" x2="15.4478" y2="31.2387" gradientUnits="userSpaceOnUse">
<stop stop-color="#D7B232"/>
<stop offset="1" stop-color="#EEE67C"/>
</linearGradient>
<linearGradient id="paint6_linear_2953_7827" x1="27.8493" y1="21.3314" x2="25.1682" y2="23.1448" gradientUnits="userSpaceOnUse">
<stop stop-color="#98620A"/>
<stop offset="1" stop-color="#BF901C"/>
</linearGradient>
<linearGradient id="paint7_linear_2953_7827" x1="23.7877" y1="19.0156" x2="25.6484" y2="14.0832" gradientUnits="userSpaceOnUse">
<stop stop-color="#824E0A"/>
<stop offset="1" stop-color="#97630D"/>
</linearGradient>
<linearGradient id="paint8_linear_2953_7827" x1="20.3461" y1="18.4875" x2="15.8337" y2="19.7644" gradientUnits="userSpaceOnUse">
<stop stop-color="#98620A"/>
<stop offset="1" stop-color="#BF901C"/>
</linearGradient>
<linearGradient id="paint9_linear_2953_7827" x1="22.4073" y1="17.8272" x2="29.7617" y2="8.21364" gradientUnits="userSpaceOnUse">
<stop stop-color="#BB8612"/>
<stop offset="1" stop-color="#D9AD28"/>
</linearGradient>
<linearGradient id="paint10_linear_2953_7827" x1="21.6617" y1="15.7192" x2="27.9681" y2="7.33509" gradientUnits="userSpaceOnUse">
<stop offset="0.01" stop-color="#B48312"/>
<stop offset="0.09" stop-color="#BB8612"/>
<stop offset="0.37" stop-color="#BF8B14"/>
<stop offset="0.71" stop-color="#CA9A1D"/>
<stop offset="1" stop-color="#D9AD28"/>
</linearGradient>
<linearGradient id="paint11_linear_2953_7827" x1="23.4389" y1="17.7396" x2="29.6753" y2="9.58768" gradientUnits="userSpaceOnUse">
<stop stop-color="#B1780A"/>
<stop offset="1" stop-color="#C9981C"/>
</linearGradient>
<linearGradient id="paint12_linear_2953_7827" x1="15.3096" y1="20.7147" x2="9.52946" y2="10.6915" gradientUnits="userSpaceOnUse">
<stop stop-color="#D59F2D"/>
<stop offset="0.45" stop-color="#E3BA30"/>
<stop offset="1" stop-color="#EEDE68"/>
</linearGradient>
<linearGradient id="paint13_linear_2953_7827" x1="12.4581" y1="12.9329" x2="11.7547" y2="17.4496" gradientUnits="userSpaceOnUse">
<stop stop-color="#CE9F20"/>
<stop offset="1" stop-color="#D9AD28"/>
</linearGradient>
<linearGradient id="paint14_linear_2953_7827" x1="12.1468" y1="11.4947" x2="12.1468" y2="18.2614" gradientUnits="userSpaceOnUse">
<stop stop-color="#D7B232"/>
<stop offset="1" stop-color="#EEE67C"/>
</linearGradient>
<linearGradient id="paint15_linear_2953_7827" x1="21.1292" y1="24.8305" x2="15.7661" y2="23.5935" gradientUnits="userSpaceOnUse">
<stop stop-color="#B1780A"/>
<stop offset="1" stop-color="#DFBD28"/>
</linearGradient>
<linearGradient id="paint16_linear_2953_7827" x1="21.5808" y1="28.4391" x2="15.9547" y2="27.1418" gradientUnits="userSpaceOnUse">
<stop stop-color="#B1780A"/>
<stop offset="1" stop-color="#D9AD28"/>
</linearGradient>
<linearGradient id="paint17_linear_2953_7827" x1="20.2802" y1="21.9054" x2="14.7074" y2="20.62" gradientUnits="userSpaceOnUse">
<stop stop-color="#B1780A"/>
<stop offset="1" stop-color="#D9AD28"/>
</linearGradient>
<linearGradient id="paint18_linear_2953_7827" x1="22.9176" y1="24.446" x2="14.9762" y2="22.0179" gradientUnits="userSpaceOnUse">
<stop stop-color="#B1780A"/>
<stop offset="1" stop-color="#C9981C"/>
</linearGradient>
<linearGradient id="paint19_linear_2953_7827" x1="21.5639" y1="28.4353" x2="15.9444" y2="27.1394" gradientUnits="userSpaceOnUse">
<stop stop-color="#B1780A"/>
<stop offset="1" stop-color="#C9981C"/>
</linearGradient>
<linearGradient id="paint20_linear_2953_7827" x1="23.0388" y1="23.1608" x2="18.3926" y2="21.7402" gradientUnits="userSpaceOnUse">
<stop stop-color="#B1780A"/>
<stop offset="1" stop-color="#C9981C"/>
</linearGradient>
<linearGradient id="paint21_linear_2953_7827" x1="23.9694" y1="23.4442" x2="19.3231" y2="22.0235" gradientUnits="userSpaceOnUse">
<stop stop-color="#B1780A"/>
<stop offset="1" stop-color="#C9981C"/>
</linearGradient>
<linearGradient id="paint22_linear_2953_7827" x1="9.91164" y1="17.0589" x2="5.17527" y2="20.8328" gradientUnits="userSpaceOnUse">
<stop stop-color="#B1780A"/>
<stop offset="1" stop-color="#D9AD28"/>
</linearGradient>
<linearGradient id="paint23_linear_2953_7827" x1="8.7298" y1="17.5459" x2="3.13753" y2="19.1283" gradientUnits="userSpaceOnUse">
<stop stop-color="#C28F17"/>
<stop offset="1" stop-color="#D9AD28"/>
</linearGradient>
<linearGradient id="paint24_linear_2953_7827" x1="11.8997" y1="14.2678" x2="6.39564" y2="15.8251" gradientUnits="userSpaceOnUse">
<stop stop-color="#98620A"/>
<stop offset="1" stop-color="#BF901C"/>
</linearGradient>
<linearGradient id="paint25_linear_2953_7827" x1="14.7426" y1="5.51975" x2="14.2784" y2="9.44993" gradientUnits="userSpaceOnUse">
<stop stop-color="#D7B232"/>
<stop offset="1" stop-color="#EEE67C"/>
</linearGradient>
<linearGradient id="paint26_linear_2953_7827" x1="16.3765" y1="13.6717" x2="11.3434" y2="4.94393" gradientUnits="userSpaceOnUse">
<stop stop-color="#DAA92E"/>
<stop offset="0.15" stop-color="#E3BA30"/>
<stop offset="1" stop-color="#F3E87C"/>
</linearGradient>
<linearGradient id="paint27_linear_2953_7827" x1="13.4351" y1="9.94478" x2="6.80377" y2="-1.5541" gradientUnits="userSpaceOnUse">
<stop stop-color="#E3BA30"/>
<stop offset="0.76" stop-color="#F3E87C"/>
</linearGradient>
<linearGradient id="paint28_linear_2953_7827" x1="13.8709" y1="7.08542" x2="13.286" y2="10.8412" gradientUnits="userSpaceOnUse">
<stop stop-color="#E9BA3B"/>
<stop offset="1" stop-color="#D9AD28"/>
</linearGradient>
<linearGradient id="paint29_linear_2953_7827" x1="13.633" y1="5.79562" x2="13.633" y2="11.9037" gradientUnits="userSpaceOnUse">
<stop stop-color="#D7B232"/>
<stop offset="1" stop-color="#EEE67C"/>
</linearGradient>
<linearGradient id="paint30_linear_2953_7827" x1="22.0993" y1="17.7683" x2="15.8777" y2="16.2605" gradientUnits="userSpaceOnUse">
<stop stop-color="#B1780A"/>
<stop offset="1" stop-color="#DFBD28"/>
</linearGradient>
<linearGradient id="paint31_linear_2953_7827" x1="22.693" y1="21.2276" x2="17.0865" y2="19.9346" gradientUnits="userSpaceOnUse">
<stop stop-color="#B1780A"/>
<stop offset="1" stop-color="#D9AD28"/>
</linearGradient>
<linearGradient id="paint32_linear_2953_7827" x1="21.418" y1="14.6998" x2="15.8444" y2="13.4142" gradientUnits="userSpaceOnUse">
<stop stop-color="#B1780A"/>
<stop offset="1" stop-color="#D9AD28"/>
</linearGradient>
<linearGradient id="paint33_linear_2953_7827" x1="23.6095" y1="17.023" x2="16.7725" y2="15.3661" gradientUnits="userSpaceOnUse">
<stop stop-color="#B1780A"/>
<stop offset="0.24" stop-color="#B8820E"/>
<stop offset="0.65" stop-color="#CB9F1B"/>
<stop offset="1" stop-color="#DFBD28"/>
</linearGradient>
<linearGradient id="paint34_linear_2953_7827" x1="11.6971" y1="10.6518" x2="7.03514" y2="14.3665" gradientUnits="userSpaceOnUse">
<stop stop-color="#BB8612"/>
<stop offset="1" stop-color="#D9AD28"/>
</linearGradient>
<linearGradient id="paint35_linear_2953_7827" x1="11.2537" y1="11.7061" x2="5.66124" y2="13.2885" gradientUnits="userSpaceOnUse">
<stop stop-color="#C28F17"/>
<stop offset="1" stop-color="#D9AD28"/>
</linearGradient>
<linearGradient id="paint36_linear_2953_7827" x1="24.3883" y1="16.3832" x2="19.7422" y2="14.9627" gradientUnits="userSpaceOnUse">
<stop stop-color="#B1780A"/>
<stop offset="1" stop-color="#C9981C"/>
</linearGradient>
</defs>
</svg>
