<svg width="45" height="45" viewBox="0 0 45 45" fill="none" xmlns="http://www.w3.org/2000/svg">
<path d="M17.5923 6.8066C13.4149 8.0046 9.8845 10.813 7.77769 14.6139C5.67087 18.4149 5.16023 22.8971 6.35811 27.0745C7.66273 31.6266 10.9224 35.9497 14.8176 35.7057C14.9927 35.6959 15.166 35.6651 15.3337 35.614L34.7987 30.0325C34.9594 29.9868 35.1145 29.9233 35.2612 29.8432C38.6942 27.9862 39.1656 22.5927 37.861 18.0406C37.2677 15.9721 36.2729 14.0407 34.9333 12.3567C33.5936 10.6727 31.9354 9.26897 30.0533 8.2258C28.1712 7.18262 26.102 6.52037 23.964 6.27687C21.8259 6.03336 19.6608 6.21336 17.5923 6.8066Z" fill="url(#paint0_linear_2601_3007)"/>
<path style="mix-blend-mode:multiply" d="M18.3646 6.7438C18.1324 6.81231 17.9051 6.88593 17.6794 6.95985L35.7081 29.6686C38.6947 27.5528 39.2034 22.4553 38.1112 18.1133C37.606 16.044 36.6861 14.0986 35.4073 12.3951C34.1285 10.6915 32.5173 9.26513 30.6713 8.20224C28.8253 7.13936 26.7828 6.46208 24.6675 6.2114C22.5521 5.96071 20.4079 6.14184 18.3646 6.7438Z" fill="url(#paint1_linear_2601_3007)"/>
<path d="M17.5027 6.96846C13.3253 8.16647 9.7949 10.9748 7.68809 14.7758C5.58127 18.5767 5.07064 23.0589 6.26851 27.2364C7.57313 31.7885 10.8328 36.1116 14.728 35.8675C14.9031 35.8577 15.0764 35.827 15.2441 35.7759L34.7091 30.1944C34.8698 30.1486 35.0249 30.0851 35.1716 30.005C38.6046 28.148 39.076 22.7546 37.7714 18.2025C37.1781 16.134 36.1833 14.2026 34.8437 12.5185C33.504 10.8345 31.8458 9.43084 29.9637 8.38766C28.0816 7.34449 26.0124 6.68224 23.8744 6.43873C21.7363 6.19523 19.5712 6.37523 17.5027 6.96846Z" fill="#4BB4E6"/>
<path d="M17.5414 7.10374C21.7109 5.90813 26.1845 6.41462 29.9812 8.51215C33.7779 10.6097 36.588 14.1271 37.7953 18.2933C37.7873 18.2638 37.7797 18.2334 37.7712 18.2036C36.5631 14.0379 33.7528 10.5211 29.9561 8.42403C26.1595 6.32693 21.6863 5.82062 17.517 7.01608C13.3477 8.21154 9.82243 11.0112 7.71387 14.8015C5.60532 18.5918 5.0855 23.0634 6.26836 27.2363L6.29558 27.3259C5.11175 23.1531 5.63076 18.6812 7.73883 14.8905C9.8469 11.0997 13.372 8.29954 17.5414 7.10374Z" fill="white"/>
<path style="mix-blend-mode:multiply" d="M25.4091 28.2864C18.834 30.1715 19.2684 34.1221 17.4832 34.6414L33.9639 30.2116C31.9459 30.709 32.3686 26.2903 25.4091 28.2864Z" fill="url(#paint2_linear_2601_3007)"/>
<path d="M23.8073 28.9544C17.1092 30.8755 17.4856 35.0824 15.2435 35.7744L34.6809 30.2008C32.4144 30.7971 30.5021 27.0349 23.8073 28.9544Z" fill="#B5E8F7"/>
<path d="M11.6439 20.1575L9.84609 14.6244L12.0615 13.9046C12.4685 13.7723 12.8277 13.7223 13.1388 13.7546C13.45 13.7869 13.7089 13.888 13.9154 14.0579C14.1213 14.2259 14.2694 14.4487 14.3595 14.726C14.4297 14.9422 14.4482 15.1462 14.4151 15.3382C14.3813 15.5284 14.3057 15.7003 14.1883 15.8539C14.0722 16.0052 13.9248 16.1337 13.7461 16.2396L13.7637 16.2936C13.9773 16.2341 14.1939 16.2295 14.4133 16.2797C14.6345 16.3293 14.8349 16.4344 15.0146 16.5951C15.1937 16.7539 15.3274 16.9694 15.4157 17.2413C15.5111 17.5349 15.5233 17.8207 15.4524 18.0986C15.3826 18.3742 15.228 18.6246 14.9885 18.8497C14.749 19.0749 14.4222 19.2548 14.0079 19.3894L11.6439 20.1575ZM12.503 18.821L13.4567 18.5111C13.7827 18.4052 14.0003 18.2658 14.1094 18.0929C14.2179 17.9183 14.2382 17.7265 14.1703 17.5176C14.1206 17.3645 14.0398 17.2414 13.9279 17.1483C13.816 17.0552 13.6808 16.9976 13.5222 16.9754C13.3655 16.9527 13.1935 16.9717 13.0062 17.0326L12.0254 17.3512L12.503 18.821ZM11.7682 16.5596L12.6355 16.2779C12.7958 16.2258 12.929 16.1516 13.0351 16.0554C13.1425 15.9568 13.2152 15.8436 13.2533 15.7157C13.2932 15.5872 13.2895 15.4501 13.2421 15.3042C13.1771 15.1042 13.0536 14.9662 12.8715 14.8899C12.6912 14.8131 12.4714 14.8168 12.212 14.9011L11.3232 15.1899L11.7682 16.5596ZM20.8595 14.1045C21.0556 14.7079 21.108 15.2584 21.0168 15.756C20.9273 16.253 20.7226 16.6769 20.4025 17.0279C20.0836 17.3764 19.6802 17.63 19.1921 17.7886C18.7003 17.9483 18.2228 17.98 17.7594 17.8837C17.296 17.7873 16.882 17.5644 16.5175 17.2149C16.1531 16.8654 15.8731 16.3898 15.6776 15.7882C15.4816 15.1848 15.4283 14.6346 15.5177 14.1376C15.6071 13.6406 15.8112 13.2179 16.1301 12.8693C16.4484 12.519 16.8534 12.2639 17.3451 12.1042C17.8332 11.9456 18.3089 11.9145 18.7724 12.0108C19.237 12.1048 19.6515 12.3265 20.016 12.676C20.3823 13.025 20.6634 13.5011 20.8595 14.1045ZM19.6735 14.4899C19.5465 14.099 19.3808 13.7885 19.1766 13.5581C18.9741 13.3272 18.7449 13.1766 18.4892 13.1064C18.2334 13.0362 17.9641 13.047 17.6813 13.1389C17.3985 13.2308 17.1743 13.3803 17.0086 13.5875C16.8429 13.7946 16.7452 14.0514 16.7153 14.3578C16.6872 14.6637 16.7367 15.012 16.8637 15.4028C16.9907 15.7937 17.1554 16.1046 17.3579 16.3355C17.5622 16.5658 17.7922 16.7161 18.048 16.7863C18.3038 16.8565 18.5731 16.8457 18.8558 16.7538C19.1386 16.6619 19.3628 16.5124 19.5285 16.3053C19.6942 16.0981 19.7911 15.8416 19.8191 15.5358C19.849 15.2294 19.8004 14.8807 19.6735 14.4899ZM25.4552 9.55267L27.253 15.0858L26.2426 15.4141L22.7038 12.7137L22.6633 12.7269L23.7948 16.2094L22.625 16.5895L20.8272 11.0564L21.8538 10.7228L25.3728 13.4266L25.4214 13.4108L24.2907 9.93102L25.4552 9.55267ZM14.4249 28.7165L12.6271 23.1834L14.8101 22.4741C15.2297 22.3377 15.6133 22.3017 15.9608 22.366C16.3077 22.4286 16.6045 22.5761 16.8513 22.8085C17.0993 23.0386 17.2829 23.3373 17.4023 23.7047C17.5217 24.0722 17.5478 24.4221 17.4806 24.7546C17.4134 25.0871 17.2549 25.3805 17.005 25.635C16.7569 25.8888 16.4203 26.0848 15.9953 26.2229L14.6039 26.675L14.2993 25.7375L15.5015 25.3469C15.7267 25.2737 15.8996 25.1747 16.0203 25.0499C16.1423 24.9226 16.2168 24.778 16.2437 24.6159C16.2719 24.4514 16.2565 24.2782 16.1974 24.0963C16.1377 23.9125 16.0487 23.7642 15.9303 23.6513C15.8132 23.5361 15.6686 23.4646 15.4963 23.4369C15.3234 23.4075 15.1235 23.4296 14.8966 23.5034L14.1077 23.7597L15.5947 28.3364L14.4249 28.7165ZM19.3508 27.116L17.553 21.5829L18.7228 21.2028L20.2072 25.7713L22.5793 25.0006L22.8927 25.9651L19.3508 27.116ZM24.7623 25.3576L23.5087 25.765L23.621 19.6112L25.1285 19.1214L28.8338 24.0347L27.5802 24.4421L24.8072 20.6237L24.764 20.6377L24.7623 25.3576ZM23.9773 23.2082L26.9384 22.2461L27.2351 23.1593L24.274 24.1214L23.9773 23.2082ZM32.3299 16.7815L34.1278 22.3146L33.1173 22.6429L29.5786 19.9426L29.538 19.9557L30.6696 23.4382L29.4997 23.8183L27.7019 18.2853L28.7286 17.9517L32.2475 20.6555L32.2962 20.6397L31.1655 17.1599L32.3299 16.7815Z" fill="white"/>
<defs>
<linearGradient id="paint0_linear_2601_3007" x1="66.9391" y1="-87.8639" x2="54.2929" y2="-65.0485" gradientUnits="userSpaceOnUse">
<stop stop-color="#EDEEF0"/>
<stop offset="0.615" stop-color="#FCFDFF"/>
<stop offset="1" stop-color="#B8C0CF"/>
</linearGradient>
<linearGradient id="paint1_linear_2601_3007" x1="65.9844" y1="-75.6218" x2="74.2879" y2="-79.1177" gradientUnits="userSpaceOnUse">
<stop stop-color="#FCFDFF"/>
<stop offset="1" stop-color="#B8C0CF"/>
</linearGradient>
<linearGradient id="paint2_linear_2601_3007" x1="48.5223" y1="-70.6733" x2="53.9769" y2="-70.7463" gradientUnits="userSpaceOnUse">
<stop stop-color="#DDDEE0"/>
<stop offset="1" stop-color="#B8C0CF"/>
</linearGradient>
</defs>
</svg>
