<svg width="32" height="21" viewBox="0 0 32 21" fill="none" xmlns="http://www.w3.org/2000/svg">
<path d="M31.8094 20.1653C31.7524 20.2523 31.6703 20.3226 31.5724 20.368C31.4746 20.4133 31.365 20.4319 31.2563 20.4215C27.6102 20.4155 23.9639 20.4139 20.3175 20.4166C19.8974 20.4166 19.7742 20.2986 19.7742 19.8975C19.7742 13.4403 19.7742 6.98318 19.7742 0.526198C19.7742 0.124741 19.8971 0.00775359 20.3179 0.0074054C23.9641 0.0074054 27.6103 0.00589643 31.2567 0.00287882C31.3653 -0.00765169 31.4749 0.0108384 31.5728 0.056199C31.6706 0.10156 31.7527 0.171927 31.8094 0.259141V20.1653Z" fill="#173851"/>
<path d="M9.7151 12.3067C9.7151 14.8928 9.7151 17.4789 9.7151 20.065C9.7151 20.4723 9.63801 20.5451 9.20673 20.5451H0.508496C0.076843 20.5451 0.00012207 20.4727 0.00012207 20.065C0.00012207 14.8928 0.00012207 9.7206 0.00012207 4.54842C0.00012207 4.14069 0.0746084 4.06897 0.508496 4.06897H9.20747C9.63987 4.06897 9.71584 4.14069 9.71584 4.54842C9.71535 7.13451 9.7151 9.7206 9.7151 12.3067Z" fill="#173851"/>
<path d="M17.7823 11.5964H12.1585C11.773 11.5964 11.3876 11.5995 11.0021 11.5964C10.6382 11.5926 10.4434 11.4477 10.4554 11.1998C10.4662 10.9603 10.6505 10.8321 10.9995 10.8321C13.1693 10.8321 15.339 10.8321 17.5085 10.8321H17.7435C17.7514 10.7082 17.6411 10.6751 17.5774 10.6184C17.1782 10.2639 16.7704 9.91782 16.3711 9.56336C16.3254 9.53331 16.2872 9.49429 16.2593 9.44904C16.2314 9.40379 16.2143 9.35338 16.2094 9.30134C16.2044 9.2493 16.2116 9.19687 16.2306 9.14771C16.2495 9.09856 16.2797 9.05385 16.319 9.01671C16.3498 8.97599 16.3899 8.94205 16.4362 8.91728C16.4825 8.89251 16.5341 8.8775 16.5873 8.87329C16.6405 8.86908 16.6941 8.87578 16.7442 8.89291C16.7943 8.91004 16.8399 8.9372 16.8776 8.97248C17.6585 9.63868 18.4309 10.3134 19.1949 10.9965C19.2392 11.0334 19.2734 11.0795 19.2949 11.1312C19.3163 11.1828 19.3244 11.2385 19.3183 11.2936C19.3123 11.3488 19.2924 11.4018 19.2602 11.4483C19.228 11.4948 19.1844 11.5335 19.1331 11.5612C18.3919 12.1284 17.6434 12.688 16.8985 13.2482C16.8595 13.2857 16.8122 13.3147 16.7599 13.3332C16.7076 13.3516 16.6516 13.359 16.5959 13.355C16.5402 13.3509 16.4861 13.3353 16.4375 13.3095C16.389 13.2836 16.3471 13.2481 16.3149 13.2054C16.2746 13.1655 16.2445 13.1175 16.227 13.0651C16.2095 13.0127 16.205 12.9573 16.2139 12.903C16.2227 12.8487 16.2446 12.7971 16.278 12.7519C16.3114 12.7067 16.3553 12.6693 16.4065 12.6424C16.8367 12.3098 17.272 11.9829 17.7823 11.5964Z" fill="#173851"/>
<path d="M30.9952 10.2103C30.9952 13.2492 30.9915 16.2879 31.0019 19.3268C31.0019 19.5928 30.9435 19.6708 30.6429 19.6698C27.4035 19.6582 24.164 19.6582 20.9246 19.6698C20.6493 19.6698 20.5808 19.6001 20.5808 19.346C20.5888 13.2581 20.5888 7.17003 20.5808 1.0819C20.5808 0.830505 20.6426 0.754948 20.9216 0.755992C24.172 0.765277 27.4225 0.765277 30.6731 0.755992C30.936 0.755992 31.0012 0.82214 31.0008 1.06413C30.9914 4.11261 30.9895 7.16132 30.9952 10.2103Z" fill="#FEFEFE"/>
<path d="M9.05839 12.3116C9.05839 14.7646 9.05467 17.2179 9.06435 19.6708C9.06435 19.8961 8.99843 19.9417 8.76827 19.941C6.16122 19.9331 3.55504 19.9331 0.94973 19.941C0.726269 19.941 0.649546 19.9062 0.651781 19.674C0.659974 14.7595 0.659974 9.84494 0.651781 4.93042C0.651781 4.71872 0.717703 4.67275 0.934088 4.6731C3.54908 4.68007 6.16407 4.67938 8.77907 4.67102C9.03121 4.67102 9.06398 4.74622 9.06323 4.95235C9.05603 7.40543 9.05442 9.85852 9.05839 12.3116Z" fill="#FEFEFE"/>
<path d="M22.1003 10.1807C22.1003 7.62534 22.1048 5.07001 22.094 2.51502C22.094 2.25075 22.1506 2.16684 22.4523 2.16962C24.6785 2.18309 26.9046 2.18379 29.1308 2.17172C29.3896 2.17172 29.4898 2.21036 29.4891 2.48508C29.4796 7.63683 29.4796 12.7885 29.4891 17.94C29.4891 18.1754 29.4358 18.2534 29.1654 18.2534C26.9172 18.2424 24.6689 18.2424 22.4206 18.2534C22.1495 18.2534 22.0962 18.1747 22.097 17.94C22.1033 15.353 22.1003 12.767 22.1003 10.1807Z" fill="#FF7900"/>
<path d="M1.87753 12.3067C1.87753 10.2357 1.88088 8.16329 1.87231 6.09402C1.87231 5.88058 1.9185 5.81339 2.16207 5.81548C3.95895 5.82615 5.75595 5.82615 7.55307 5.81548C7.76164 5.81548 7.84357 5.84646 7.8432 6.06756C7.8355 10.2261 7.8355 14.3845 7.8432 18.543C7.8432 18.7328 7.80037 18.7976 7.5825 18.7965C5.76774 18.7877 3.95286 18.7877 2.13786 18.7965C1.91999 18.7965 1.87492 18.7339 1.87716 18.5434C1.88014 16.4651 1.87753 14.3861 1.87753 12.3067Z" fill="#45C8A4"/>
<path d="M25.7898 7.84576C25.1194 7.84576 24.449 7.84576 23.7786 7.84576C23.6907 7.84962 23.6026 7.84822 23.5149 7.84159C23.2568 7.81025 23.068 7.69604 23.0859 7.42794C23.1019 7.18003 23.2829 7.07627 23.5328 7.06652C23.6315 7.06269 23.7306 7.06652 23.8308 7.06652H27.7901C27.8672 7.06652 27.9443 7.06408 28.021 7.06652C28.3294 7.07871 28.5182 7.22738 28.503 7.46136C28.5025 7.51626 28.4896 7.57044 28.4651 7.62035C28.4406 7.67025 28.4051 7.71475 28.3609 7.75092C28.3168 7.78709 28.2649 7.81411 28.2088 7.83022C28.1526 7.84632 28.0935 7.85115 28.0352 7.84437C27.2858 7.85099 26.5384 7.84541 25.7898 7.84576Z" fill="white" fill-opacity="0.13"/>
<path d="M25.7763 4.84051C25.0504 4.84051 24.3238 4.8426 23.599 4.84051C23.2489 4.84051 23.0776 4.70715 23.0802 4.4575C23.0828 4.20785 23.2571 4.08738 23.6124 4.08703C25.0639 4.08541 26.5153 4.08541 27.9666 4.08703C28.3215 4.08703 28.4966 4.21099 28.5025 4.45472C28.5088 4.70785 28.3241 4.8405 27.9532 4.84155C27.2277 4.8419 26.5018 4.84051 25.7763 4.84051Z" fill="white" fill-opacity="0.13"/>
<path d="M25.7968 12.8691C26.0066 12.8704 26.2112 12.9301 26.3846 13.0404C26.558 13.1508 26.6923 13.3069 26.7706 13.4888C26.8488 13.6708 26.8674 13.8704 26.8239 14.0622C26.7805 14.2541 26.677 14.4295 26.5266 14.5662C26.3762 14.7029 26.1858 14.7947 25.9794 14.83C25.7731 14.8652 25.5602 14.8422 25.3678 14.764C25.1754 14.6858 25.0123 14.5559 24.8992 14.3907C24.786 14.2256 24.728 14.0327 24.7324 13.8367C24.7376 13.5768 24.8523 13.3293 25.0517 13.1481C25.251 12.9669 25.5188 12.8666 25.7968 12.8691Z" fill="white" fill-opacity="0.13"/>
<path d="M4.88639 9.76569C5.45423 9.76569 6.02207 9.76569 6.58991 9.76569C6.68722 9.75653 6.78547 9.76845 6.87706 9.80051C6.94001 9.82288 6.99385 9.8632 7.03094 9.91575C7.06804 9.9683 7.08651 10.0304 7.08376 10.0933C7.08371 10.1566 7.06063 10.2179 7.01833 10.2673C6.97602 10.3167 6.91701 10.3511 6.85099 10.3649C6.76585 10.386 6.67835 10.3977 6.59028 10.3997C5.4546 10.4018 4.31892 10.4018 3.18324 10.3997C3.14772 10.4007 3.11216 10.3998 3.07673 10.3973C2.819 10.3715 2.69759 10.258 2.71547 10.0554C2.73483 9.83289 2.89721 9.76709 3.10392 9.76639C3.69721 9.7643 4.29198 9.76604 4.88639 9.76569Z" fill="white" fill-opacity="0.13"/>
<path d="M4.90212 7.36139C5.47977 7.36139 6.05667 7.36139 6.63543 7.36139C6.93338 7.36139 7.09316 7.47246 7.08869 7.67023C7.08422 7.85999 6.9304 7.96793 6.65033 7.96827C5.47691 7.96943 4.30349 7.96943 3.13007 7.96827C2.84479 7.96827 2.70997 7.86382 2.71332 7.65909C2.71667 7.45435 2.85 7.36209 3.14199 7.36139C3.72858 7.3607 4.31702 7.36139 4.90212 7.36139Z" fill="white" fill-opacity="0.13"/>
<path d="M5.71167 15.252C5.71127 15.4107 5.66038 15.5656 5.56547 15.6971C5.47056 15.8286 5.33594 15.9307 5.17875 15.9904C5.02156 16.0501 4.84891 16.0648 4.68279 16.0325C4.51667 16.0001 4.3646 15.9223 4.24594 15.8089C4.12729 15.6955 4.04741 15.5517 4.0165 15.3957C3.98559 15.2397 4.00504 15.0787 4.07236 14.9331C4.13968 14.7875 4.25184 14.6639 4.39455 14.5781C4.53725 14.4923 4.70405 14.4481 4.8737 14.4512C5.09792 14.455 5.31155 14.5411 5.46837 14.6909C5.62519 14.8408 5.71259 15.0424 5.71167 15.252Z" fill="white" fill-opacity="0.13"/>
</svg>
