<svg width="25" height="24" viewBox="0 0 25 24" fill="none" xmlns="http://www.w3.org/2000/svg">
<path d="M5.49702 0.00749107C5.75758 0.075165 6.00173 0.194927 6.21473 0.359557C6.44163 0.553606 6.60126 0.814526 6.67073 1.1049C6.74019 1.39527 6.71592 1.70018 6.60139 1.9759C6.56879 2.03317 6.55921 2.10071 6.57458 2.16479C6.58994 2.22887 6.62912 2.28471 6.68415 2.32096C6.90998 2.52528 7.12459 2.74176 7.34294 2.95543C7.57064 3.17799 7.60477 3.39026 7.44159 3.56325C7.27841 3.73625 7.05586 3.70633 6.83377 3.49125C6.6042 3.26683 6.37696 3.04006 6.14459 2.81844C6.08708 2.76327 6.04266 2.65666 5.92904 2.72492C5.83553 2.78197 5.87574 2.86987 5.8879 2.94281C6.01414 3.72425 6.14288 4.50523 6.2741 5.28574C6.46113 6.41349 6.65657 7.5403 6.83517 8.66945C6.86182 8.83777 6.92447 8.87564 7.08064 8.87518C10.5798 8.87175 14.0789 8.87175 17.5778 8.87518C17.7713 8.87518 17.8115 8.80597 17.8382 8.63064C18.1463 6.73703 18.4661 4.84343 18.7803 2.95217C18.7939 2.87128 18.8378 2.77169 18.7303 2.71839C18.6227 2.66509 18.5732 2.76935 18.5161 2.82499C17.581 3.73828 16.6459 4.65298 15.7108 5.56908C15.6355 5.67528 15.5332 5.75942 15.4145 5.81274C15.2957 5.86607 15.1649 5.88664 15.0355 5.87233C14.9061 5.85802 14.7829 5.80934 14.6787 5.73135C14.5745 5.65336 14.493 5.5489 14.4428 5.42881C13.9261 4.61994 13.4062 3.81246 12.897 2.99751C12.8101 2.85725 12.7217 2.80768 12.5698 2.85958C12.4485 2.9068 12.3149 2.91241 12.1901 2.87549C11.9507 2.78899 11.8399 2.88764 11.7183 3.08448C11.2307 3.87418 10.7252 4.65314 10.2245 5.43489C10.1739 5.55252 10.0931 5.65467 9.99027 5.73094C9.88743 5.80721 9.76622 5.8549 9.63897 5.86915C9.51173 5.8834 9.38298 5.86369 9.26582 5.81206C9.14865 5.76042 9.04725 5.67868 8.97191 5.57515C8.71943 5.32828 8.46726 5.0811 8.2154 4.83361C7.97554 4.59983 7.94562 4.41281 8.11628 4.23327C8.28694 4.05373 8.49453 4.06962 8.73486 4.32116C8.99482 4.59328 9.23982 4.88223 9.51194 5.18381C10.116 4.23887 10.6635 3.37624 11.219 2.51874C11.2966 2.39905 11.2152 2.3476 11.1643 2.27513C11.0342 2.09386 10.9481 1.88475 10.913 1.66442C10.8778 1.44408 10.8945 1.21858 10.9617 1.00582C11.0289 0.793053 11.1448 0.598883 11.3002 0.438734C11.4555 0.278585 11.6461 0.156865 11.8567 0.0832294C11.9353 0.0542408 12.0363 0.086508 12.0943 0.0014126H12.5758C12.8222 0.0338775 13.056 0.129106 13.2549 0.277969C13.4538 0.426831 13.6111 0.624333 13.7117 0.851499C13.8123 1.07867 13.8528 1.32787 13.8294 1.57521C13.8059 1.82254 13.7193 2.0597 13.5778 2.26392C13.5361 2.31233 13.5134 2.37424 13.5139 2.43814C13.5144 2.50203 13.5381 2.56358 13.5806 2.61132C14.051 3.32824 14.5137 4.05138 14.9688 4.78077C15.1137 5.01455 15.1409 5.0225 15.3405 4.82753C15.9221 4.26272 16.493 3.68715 17.0616 3.10972C17.3155 2.8521 17.6011 2.63048 17.8564 2.37426C17.9269 2.31716 17.977 2.23886 17.9993 2.15099C18.0216 2.06312 18.015 1.97038 17.9803 1.88659C17.8674 1.54778 17.882 1.17939 18.0215 0.8506C18.1609 0.521813 18.4157 0.255253 18.7378 0.100994C18.8814 0.057511 19.0277 0.0237686 19.1759 0H19.4648C19.5373 0.0598473 19.6345 -0.00888073 19.7075 0.0467585C20.0273 0.113414 20.3145 0.288096 20.5208 0.541469C20.7271 0.794842 20.8399 1.11148 20.8404 1.43821C20.8396 1.7611 20.7302 2.07433 20.5298 2.3275C20.3294 2.58066 20.0496 2.75902 19.7355 2.83386C19.5719 2.868 19.5251 2.92737 19.4985 3.09149C19.1876 5.01782 18.8654 6.9423 18.5456 8.86723C18.5231 9.06836 18.4268 9.254 18.2755 9.38835C18.1241 9.5227 17.9284 9.59624 17.726 9.59475C17.6792 9.59755 17.6297 9.59802 17.5815 9.59802C14.0817 9.59802 10.582 9.59802 7.08251 9.59802C6.47469 9.59802 6.21846 9.37733 6.1156 8.76577C5.79548 6.8572 5.47832 4.94817 5.16412 3.03866C5.14542 2.92505 5.11176 2.87314 4.99955 2.84555C4.67813 2.78613 4.3868 2.61836 4.17409 2.37017C3.96139 2.12199 3.84018 1.80841 3.83065 1.48169C3.82385 1.16283 3.92204 0.85058 4.1101 0.592993C4.29816 0.335406 4.56566 0.146774 4.87143 0.0561188C4.90697 0.0439623 4.95372 0.0533081 4.96494 0.000941735L5.49702 0.00749107Z" fill="#FFB400"/>
<path d="M24.67 15.616C24.6002 15.8152 24.5465 16.0197 24.5092 16.2275C24.2759 17.0289 23.8138 17.7448 23.1795 18.2873C22.5452 18.8299 21.7664 19.1754 20.9385 19.2816C20.468 19.3357 19.9936 19.3481 19.5208 19.3185C19.2988 19.3185 19.2235 19.3564 19.2286 19.5991C19.2458 20.3933 19.2458 21.1882 19.2286 21.9836C19.2309 22.1893 19.1926 22.3934 19.116 22.5843C19.0394 22.7752 18.9259 22.9492 18.7821 23.0962C18.6383 23.2433 18.4669 23.3606 18.2777 23.4414C18.0885 23.5222 17.8853 23.565 17.6796 23.5672C17.4739 23.5695 17.2698 23.5312 17.0789 23.4546C16.888 23.378 16.714 23.2646 16.567 23.1207C16.4199 22.9769 16.3026 22.8055 16.2218 22.6163C16.141 22.4271 16.0983 22.2239 16.096 22.0182C16.0898 18.759 16.0898 15.4997 16.096 12.2402C16.1105 11.8517 16.2712 11.4831 16.5458 11.2079C16.8204 10.9328 17.1888 10.7715 17.5772 10.7562C18.5726 10.7431 19.5685 10.7398 20.5635 10.759C21.1496 10.7771 21.7245 10.9248 22.2467 11.1915C22.2998 11.2059 22.3492 11.2318 22.3911 11.2675C22.4331 11.3031 22.4667 11.3476 22.4895 11.3977C22.5123 11.4479 22.5237 11.5024 22.523 11.5575C22.5222 11.6125 22.5094 11.6668 22.4853 11.7163C22.4611 11.7658 22.4264 11.8094 22.3835 11.8439C22.3406 11.8784 22.2906 11.9031 22.2371 11.916C22.1836 11.929 22.1279 11.93 22.0739 11.919C22.02 11.9079 21.9691 11.8851 21.925 11.8521C21.3729 11.5915 20.7676 11.4634 20.1572 11.4781C19.3703 11.4781 18.5839 11.4781 17.797 11.4781C17.6645 11.4606 17.5298 11.4736 17.4032 11.5163C17.2766 11.5589 17.1615 11.63 17.0667 11.7241C16.9719 11.8182 16.8999 11.9328 16.8563 12.0591C16.8127 12.1853 16.7986 12.3199 16.8151 12.4525C16.8151 15.5913 16.8151 18.7302 16.8151 21.8691C16.8036 22.0343 16.8409 22.1992 16.9222 22.3434C17.0036 22.4876 17.1255 22.6047 17.2728 22.6803C17.4065 22.7559 17.5593 22.7912 17.7127 22.7818C17.866 22.7724 18.0134 22.7188 18.1369 22.6274C18.2545 22.5497 18.3501 22.4429 18.4144 22.3175C18.4787 22.192 18.5095 22.052 18.5039 21.9112C18.5039 20.972 18.5039 20.0327 18.5039 19.0932C18.5039 18.7191 18.6175 18.6074 18.9855 18.6004C19.5933 18.5887 20.2039 18.6195 20.8136 18.5602C21.592 18.4551 22.3149 18.0994 22.8731 17.5468C23.4312 16.9943 23.7942 16.2749 23.907 15.4977C23.9665 15.0363 23.9342 14.5678 23.8121 14.1189C23.69 13.6701 23.4804 13.2498 23.1954 12.8822C23.0186 12.6484 23.0261 12.4249 23.2061 12.2893C23.3931 12.149 23.5942 12.1958 23.7789 12.4371C24.2483 13.0302 24.5424 13.7428 24.628 14.4943C24.6691 14.5743 24.6111 14.6701 24.6677 14.7477L24.67 15.616Z" fill="#FFB400"/>
<path d="M19.7106 0.0548705C19.6691 0.0661639 19.6256 0.067804 19.5834 0.0596686C19.5412 0.0515332 19.5014 0.0338356 19.467 0.00793457H19.7088L19.7106 0.0548705Z" fill="#FFB400"/>
<path d="M24.6702 14.7491C24.6431 14.7133 24.6252 14.6713 24.6183 14.627C24.6113 14.5826 24.6155 14.5372 24.6303 14.4948L24.6702 14.5074V14.7491Z" fill="#FFB400"/>
<path d="M5.03863 17.4834C5.36125 16.5142 5.67124 15.5856 5.97936 14.657C6.28748 13.7285 6.58718 12.8107 6.89764 11.8891C7.0006 11.5574 7.20859 11.2682 7.49027 11.065C7.77195 10.8618 8.11205 10.7558 8.45928 10.7628C8.81051 10.7757 9.14741 10.9054 9.41663 11.1313C9.68585 11.3572 9.87201 11.6665 9.94565 12.0102C10.0108 12.2929 9.99464 12.5882 9.89889 12.8621C9.11059 15.231 8.32322 17.6 7.53679 19.969C7.43253 20.2818 7.23896 20.3921 7.00565 20.2836C6.8074 20.1901 6.7513 20.0218 6.8406 19.752C7.4584 17.8818 8.07713 16.0133 8.6968 14.1465C8.85717 13.6625 9.01988 13.1791 9.17932 12.6947C9.22781 12.5864 9.25299 12.4691 9.25325 12.3504C9.25351 12.2317 9.22882 12.1143 9.18081 12.0058C9.13279 11.8973 9.06251 11.8 8.97451 11.7204C8.88651 11.6408 8.78277 11.5805 8.67 11.5435C8.55723 11.5066 8.43795 11.4937 8.31988 11.5058C8.20182 11.5178 8.08761 11.5546 7.98465 11.6136C7.88169 11.6726 7.79229 11.7526 7.72222 11.8484C7.65216 11.9442 7.603 12.0536 7.57793 12.1696C6.86787 14.3048 6.15875 16.44 5.45055 18.5752C5.43559 18.6219 5.41969 18.6659 5.40379 18.7112C5.38637 18.7901 5.34244 18.8607 5.27931 18.9111C5.21619 18.9616 5.13768 18.9889 5.05687 18.9885C4.97141 18.9935 4.88694 18.9681 4.81846 18.9167C4.74998 18.8654 4.70192 18.7914 4.68282 18.708C4.45606 18.0609 4.23304 17.4124 4.00814 16.7648C3.46359 15.1982 2.91811 13.6318 2.37169 12.0658C2.31846 11.8962 2.21288 11.7478 2.07008 11.6419C1.92729 11.5359 1.75462 11.478 1.57684 11.4763C1.43837 11.4779 1.30238 11.5132 1.18061 11.5791C1.05883 11.6451 0.954937 11.7397 0.877889 11.8547C0.800841 11.9698 0.752955 12.1019 0.738366 12.2396C0.723777 12.3773 0.742925 12.5165 0.794153 12.6451C1.88076 15.7719 2.96642 18.899 4.05115 22.0267C4.11704 22.2438 4.25099 22.4339 4.43323 22.569C4.61546 22.7042 4.83631 22.7771 5.06318 22.7771C5.29005 22.7771 5.5109 22.7042 5.69314 22.569C5.87537 22.4339 6.00932 22.2438 6.07521 22.0267C6.14487 21.8312 6.20098 21.6311 6.27252 21.4366C6.28533 21.3878 6.30805 21.342 6.33925 21.3023C6.37046 21.2626 6.40949 21.2297 6.45393 21.2057C6.49837 21.1817 6.54726 21.167 6.59759 21.1627C6.64792 21.1583 6.6986 21.1644 6.7465 21.1804C6.7944 21.1965 6.83849 21.2222 6.87605 21.2559C6.9136 21.2897 6.94382 21.3309 6.96483 21.3768C6.98584 21.4227 6.99719 21.4725 6.99818 21.523C6.99917 21.5735 6.98978 21.6237 6.97058 21.6704C6.89671 21.9145 6.81769 22.1585 6.72137 22.3942C6.58394 22.7321 6.3464 23.0199 6.04066 23.2189C5.73492 23.4179 5.37561 23.5185 5.01099 23.5074C4.64636 23.4962 4.29387 23.3738 4.00086 23.1565C3.70784 22.9392 3.48833 22.6375 3.37179 22.2918C2.53424 19.8985 1.70121 17.5035 0.872702 15.1068C0.608533 14.3461 0.334542 13.5882 0.0839316 12.8228C0.0166176 12.6249 -0.0106454 12.4156 0.00373081 12.2071C0.018107 11.9985 0.0738375 11.7949 0.167671 11.6081C0.261505 11.4213 0.391565 11.2551 0.550283 11.119C0.709001 10.983 0.8932 10.8799 1.09215 10.8158C1.2911 10.7516 1.50083 10.7277 1.70912 10.7454C1.9174 10.7631 2.12008 10.8221 2.30535 10.9189C2.49062 11.0157 2.65478 11.1484 2.78826 11.3093C2.92174 11.4701 3.02188 11.656 3.08284 11.8559C3.56879 13.2489 4.05193 14.643 4.53227 16.0382C4.69732 16.5118 4.86143 16.9775 5.03863 17.4834Z" fill="#FFB400"/>
<path d="M14.3801 17.142C14.3801 18.7069 14.3834 20.2718 14.3801 21.8362C14.3914 22.0441 14.3614 22.2521 14.2918 22.4483C14.2222 22.6444 14.1145 22.8249 13.9747 22.9791C13.835 23.1334 13.6661 23.2585 13.4777 23.3471C13.2894 23.4357 13.0853 23.486 12.8774 23.4953C12.6694 23.5046 12.4617 23.4725 12.2662 23.4011C12.0708 23.3296 11.8914 23.22 11.7385 23.0788C11.5856 22.9376 11.4622 22.7675 11.3754 22.5783C11.2887 22.3891 11.2402 22.1845 11.233 21.9765C11.2279 19.9141 11.233 17.8517 11.233 15.7893C11.233 14.6416 11.233 13.4941 11.233 12.3467C11.2266 11.9578 11.3647 11.5802 11.6204 11.2871C11.8761 10.9939 12.2314 10.806 12.6176 10.7595C13.0038 10.7129 13.3936 10.8112 13.7116 11.0353C14.0296 11.2594 14.2533 11.5933 14.3395 11.9727C14.3734 12.1458 14.3873 12.3223 14.3811 12.4987C14.3823 14.0453 14.382 15.5931 14.3801 17.142Z" fill="#FFB400"/>
<path d="M18.5058 15.0367C18.5058 14.5555 18.5058 14.074 18.5058 13.5928C18.5058 13.3371 18.6325 13.172 18.8663 13.172C19.4667 13.1398 20.0687 13.1518 20.6674 13.208C21.1055 13.2702 21.5069 13.4874 21.7987 13.8202C22.0904 14.153 22.2532 14.5793 22.2575 15.0219C22.2618 15.4644 22.1073 15.8938 21.8221 16.2322C21.5369 16.5706 21.1398 16.7955 20.7029 16.8662C20.0818 16.9333 19.456 16.9463 18.8327 16.905C18.6129 16.905 18.5054 16.7292 18.5054 16.5048C18.5063 16.0154 18.5065 15.526 18.5058 15.0367Z" fill="#FFB400"/>
<path d="M2.33743 6.46954C2.57121 6.46954 2.80124 6.46627 3.03315 6.46954C3.08506 6.46445 3.13746 6.46965 3.18734 6.48487C3.23723 6.50008 3.28362 6.525 3.32384 6.5582C3.36407 6.59139 3.39735 6.63219 3.42176 6.67828C3.44618 6.72437 3.46125 6.77483 3.46611 6.82676C3.46563 6.88096 3.45391 6.93445 3.43169 6.98389C3.40947 7.03332 3.37724 7.07761 3.33704 7.11395C3.29683 7.15029 3.24952 7.1779 3.1981 7.19502C3.14668 7.21214 3.09226 7.21841 3.0383 7.21343C2.57448 7.22091 2.11051 7.22091 1.64638 7.21343C1.59244 7.21936 1.53785 7.21396 1.48612 7.19756C1.43439 7.18117 1.38666 7.15414 1.34598 7.11821C1.3053 7.08229 1.27258 7.03827 1.24992 6.98897C1.22725 6.93966 1.21514 6.88616 1.21436 6.8319C1.22137 6.61448 1.39483 6.47281 1.66508 6.46907C1.88951 6.4672 2.11347 6.46954 2.33743 6.46954Z" fill="#FFB400"/>
<path d="M22.3342 7.21579C22.1005 7.21579 21.87 7.22186 21.6385 7.21579C21.5864 7.22134 21.5336 7.21586 21.4837 7.1997C21.4338 7.18355 21.3878 7.15706 21.3488 7.12198C21.3098 7.08691 21.2786 7.04402 21.2572 6.9961C21.2359 6.94819 21.2249 6.89631 21.2249 6.84384C21.2249 6.79138 21.2359 6.7395 21.2572 6.69158C21.2786 6.64366 21.3098 6.60078 21.3488 6.5657C21.3878 6.53063 21.4338 6.50414 21.4837 6.48798C21.5336 6.47182 21.5864 6.46634 21.6385 6.4719C22.1023 6.46754 22.5663 6.46754 23.0304 6.4719C23.0826 6.46634 23.1353 6.47182 23.1853 6.48798C23.2352 6.50414 23.2811 6.53063 23.3201 6.5657C23.3592 6.60078 23.3903 6.64366 23.4117 6.69158C23.4331 6.7395 23.4441 6.79138 23.4441 6.84384C23.4441 6.89631 23.4331 6.94819 23.4117 6.9961C23.3903 7.04402 23.3592 7.08691 23.3201 7.12198C23.2811 7.15706 23.2352 7.18355 23.1853 7.1997C23.1353 7.21586 23.0826 7.22134 23.0304 7.21579C22.7985 7.22186 22.5662 7.21579 22.3342 7.21579Z" fill="#FFB400"/>
<path d="M2.1423 9.40067C2.06879 9.40141 1.99681 9.37963 1.93605 9.33826C1.87528 9.29688 1.82864 9.2379 1.80239 9.16923C1.76657 9.09574 1.75868 9.01174 1.78018 8.93287C1.80168 8.854 1.85112 8.78563 1.91928 8.74049C2.36252 8.45621 2.81184 8.17941 3.26397 7.91103C3.30005 7.88843 3.34027 7.87326 3.38229 7.86639C3.42431 7.85951 3.46727 7.86108 3.50867 7.87101C3.55007 7.88093 3.58908 7.89901 3.62341 7.92419C3.65774 7.94937 3.68671 7.98114 3.70862 8.01765C3.73897 8.04788 3.76272 8.08408 3.77836 8.12396C3.794 8.16385 3.8012 8.20654 3.79948 8.24934C3.79777 8.29215 3.78719 8.33413 3.76841 8.37264C3.74963 8.41114 3.72306 8.44534 3.69038 8.47305C3.22549 8.80982 2.73844 9.11488 2.23254 9.38617C2.20354 9.39627 2.173 9.40118 2.1423 9.40067Z" fill="#FFB400"/>
<path d="M22.8958 9.02531C22.8998 9.08747 22.887 9.14957 22.8588 9.20511C22.8306 9.26064 22.788 9.30757 22.7354 9.34102C22.6829 9.37446 22.6223 9.39317 22.56 9.39521C22.4978 9.39725 22.4361 9.38254 22.3815 9.3526C21.9242 9.09217 21.4782 8.81164 21.0359 8.52596C20.9623 8.47085 20.9124 8.38989 20.8963 8.29942C20.8801 8.20894 20.8989 8.1157 20.9488 8.03854C20.9987 7.96138 21.0761 7.90605 21.1652 7.8837C21.2544 7.86135 21.3487 7.87366 21.4291 7.91814C21.8677 8.17951 22.2987 8.45302 22.7322 8.72327C22.7846 8.7537 22.8276 8.798 22.8564 8.85129C22.8853 8.90457 22.8989 8.96478 22.8958 9.02531Z" fill="#FFB400"/>
<path d="M2.15368 4.29545C2.23713 4.29635 2.31783 4.32534 2.38278 4.37774C2.76898 4.61713 3.15706 4.85325 3.54232 5.09451C3.78779 5.24834 3.85372 5.4606 3.7242 5.65557C3.60077 5.83932 3.39083 5.86598 3.15565 5.72151C2.75511 5.47495 2.35551 5.22651 1.95684 4.97621C1.88182 4.93557 1.82409 4.86912 1.79434 4.78916C1.7646 4.7092 1.76485 4.62117 1.79506 4.54139C1.81577 4.46441 1.86327 4.39735 1.929 4.35227C1.99474 4.30718 2.07441 4.28704 2.15368 4.29545Z" fill="#FFB400"/>
<path d="M22.8974 4.68591C22.8963 4.74494 22.8792 4.80258 22.8481 4.85271C22.8169 4.90284 22.7727 4.94359 22.7202 4.97066C22.2994 5.23249 21.8833 5.49619 21.4578 5.74914C21.4169 5.7779 21.3704 5.79783 21.3214 5.8077C21.2723 5.81757 21.2218 5.81715 21.1729 5.80647C21.124 5.7958 21.0779 5.77509 21.0374 5.74566C20.997 5.71623 20.9631 5.67873 20.9379 5.63552C20.9122 5.5924 20.8956 5.54446 20.8892 5.49468C20.8828 5.44489 20.8867 5.39433 20.9006 5.34611C20.9146 5.29789 20.9383 5.25305 20.9703 5.21437C21.0022 5.17568 21.0418 5.14397 21.0866 5.12121C21.4971 4.86078 21.9095 4.60269 22.3279 4.35535C22.3847 4.31603 22.4515 4.29369 22.5205 4.29094C22.5895 4.28819 22.6579 4.30514 22.7176 4.33981C22.7774 4.37448 22.826 4.42544 22.8578 4.48673C22.8897 4.54802 22.9034 4.6171 22.8974 4.68591Z" fill="#FFB400"/>
<path d="M4.57645 1.44994C4.57507 1.26378 4.64732 1.08461 4.77747 0.951491C4.90761 0.81837 5.0851 0.74209 5.27124 0.739258C5.45691 0.743945 5.63374 0.819498 5.76546 0.950435C5.89718 1.08137 5.9738 1.25775 5.97959 1.44339C5.97814 1.62925 5.90388 1.80714 5.77276 1.93887C5.64164 2.0706 5.4641 2.14569 5.27825 2.14801C5.18603 2.14938 5.09446 2.13229 5.00893 2.09774C4.92341 2.06319 4.84566 2.01189 4.78027 1.94685C4.71487 1.8818 4.66315 1.80433 4.62814 1.71899C4.59314 1.63365 4.57556 1.54217 4.57645 1.44994Z" fill="white"/>
<path d="M13.0413 1.45694C13.0389 1.64382 12.9624 1.82208 12.8285 1.95251C12.6947 2.08294 12.5145 2.15485 12.3276 2.15243C12.1408 2.15001 11.9625 2.07346 11.8321 1.93961C11.7016 1.80576 11.6297 1.62558 11.6321 1.43871C11.6333 1.34618 11.6527 1.25479 11.6893 1.16976C11.7258 1.08473 11.7787 1.00772 11.845 0.943142C11.9112 0.87856 11.9896 0.827667 12.0755 0.793363C12.1615 0.75906 12.2533 0.742026 12.3459 0.743223C12.4384 0.74442 12.5298 0.763825 12.6148 0.800341C12.6998 0.836857 12.7768 0.889765 12.8414 0.956041C12.906 1.02232 12.9569 1.10066 12.9912 1.18661C13.0255 1.27255 13.0425 1.36441 13.0413 1.45694Z" fill="white"/>
<path d="M20.0994 1.44105C20.1015 1.53324 20.0851 1.62491 20.0511 1.71067C20.0172 1.79642 19.9665 1.87453 19.9019 1.94037C19.8373 2.0062 19.7602 2.05845 19.6752 2.09403C19.5901 2.1296 19.4987 2.14779 19.4065 2.14752C19.2207 2.14792 19.0421 2.07534 18.9093 1.94539C18.7765 1.81544 18.7 1.63852 18.6963 1.45273C18.6994 1.26691 18.7736 1.08932 18.9036 0.956524C19.0336 0.823724 19.2096 0.7458 19.3953 0.73877C19.5814 0.739868 19.7595 0.814155 19.8913 0.945566C20.0231 1.07698 20.0978 1.25496 20.0994 1.44105Z" fill="white"/>
<path d="M13.6398 17.1406C13.6398 18.7368 13.6398 20.3332 13.6398 21.9298C13.6437 22.1153 13.5851 22.2967 13.4735 22.4449C13.362 22.5931 13.2038 22.6995 13.0245 22.7471C12.8456 22.7969 12.6553 22.7858 12.4834 22.7157C12.3115 22.6455 12.1678 22.5202 12.0749 22.3595C11.992 22.2122 11.95 22.0454 11.9533 21.8765C11.9533 18.7158 11.9533 15.5551 11.9533 12.3944C11.9441 12.2779 11.9592 12.1608 11.9975 12.0504C12.0359 11.94 12.0967 11.8387 12.1762 11.753C12.2556 11.6673 12.352 11.599 12.4591 11.5524C12.5663 11.5058 12.682 11.4819 12.7988 11.4822C12.9157 11.4825 13.0312 11.507 13.1382 11.5543C13.2451 11.6015 13.341 11.6703 13.42 11.7565C13.499 11.8426 13.5592 11.9442 13.597 12.0548C13.6347 12.1654 13.6491 12.2827 13.6393 12.3991C13.6421 13.9798 13.6423 15.5603 13.6398 17.1406Z" fill="#FFB400"/>
<path d="M19.2351 15.0502C19.2351 14.7229 19.2393 14.3919 19.2351 14.0632C19.2351 13.9481 19.2688 13.9075 19.3852 13.9103C19.7382 13.9178 20.0921 13.9023 20.4442 13.9215C20.7266 13.9393 20.9927 14.0604 21.1915 14.2618C21.3904 14.4631 21.5081 14.7306 21.5224 15.0132C21.5232 15.2962 21.4188 15.5694 21.2293 15.7795C21.0399 15.9897 20.779 16.1219 20.4975 16.1503C20.1314 16.1849 19.7606 16.1691 19.3922 16.185C19.2561 16.1906 19.2337 16.1302 19.236 16.0134C19.2388 15.6921 19.2351 15.3709 19.2351 15.0502Z" fill="#FFB400"/>
</svg>
